<svg width="124" height="124" viewBox="0 0 124 124" fill="none" xmlns="http://www.w3.org/2000/svg">
<path d="M62 124C96.2417 124 124 96.2417 124 62C124 27.7583 96.2417 0 62 0C27.7583 0 0 27.7583 0 62C0 96.2417 27.7583 124 62 124Z" fill="#F4F4F4"/>
<mask id="mask0_1373_2579" style="mask-type:luminance" maskUnits="userSpaceOnUse" x="0" y="0" width="124" height="124">
<path d="M62 124C96.2417 124 124 96.2417 124 62C124 27.7583 96.2417 0 62 0C27.7583 0 0 27.7583 0 62C0 96.2417 27.7583 124 62 124Z" fill="white"/>
</mask>
<g mask="url(#mask0_1373_2579)">
<path d="M78.9313 70.6488C86.4353 63.7615 90.6352 53.482 89.2989 42.5858C87.1108 24.6701 70.8105 11.9235 52.8948 14.1116C42.1454 15.4332 33.261 21.8212 28.3415 30.6028C21.4543 23.2603 11.2923 19.1926 0.528168 20.5143C-17.3875 22.7023 -30.1341 39.0027 -27.946 56.9183C-26.6097 67.7999 -20.0749 76.7724 -11.1317 81.6478C-18.6357 88.5351 -22.8356 98.8146 -21.4993 109.711C-19.3112 127.627 -3.01091 140.373 14.9048 138.185C25.6542 136.863 34.5386 130.475 39.4581 121.694C46.3453 129.036 56.5073 133.104 67.2714 131.782C85.1871 129.594 97.9337 113.294 95.7456 95.3783C94.424 84.4967 87.8745 75.5242 78.9313 70.6488Z" fill="url(#paint0_linear_1373_2579)"/>
<path d="M39.4576 69.884C42.1908 69.884 44.4065 67.6683 44.4065 64.9352C44.4065 62.202 42.1908 59.9863 39.4576 59.9863C36.7245 59.9863 34.5088 62.202 34.5088 64.9352C34.5088 67.6683 36.7245 69.884 39.4576 69.884Z" fill="#262626"/>
<path d="M63.027 67.009C65.7601 67.009 67.9758 64.7934 67.9758 62.0602C67.9758 59.327 65.7601 57.1113 63.027 57.1113C60.2938 57.1113 58.0781 59.327 58.0781 62.0602C58.0781 64.7934 60.2938 67.009 63.027 67.009Z" fill="#262626"/>
<path fill-rule="evenodd" clip-rule="evenodd" d="M62.2494 71.2069C63.7179 71.0307 65.0542 72.0733 65.2451 73.5418L65.7444 77.6242C66.508 83.836 61.4858 89.5632 54.5398 90.4149C47.5791 91.2666 41.338 86.9199 40.5744 80.7081L40.0751 76.6257C39.8989 75.1572 40.9415 73.8208 42.41 73.6299L62.2494 71.2069Z" fill="#FAFAFA"/>
</g>
<defs>
<linearGradient id="paint0_linear_1373_2579" x1="89.1623" y1="119.347" x2="-17.1491" y2="36.2064" gradientUnits="userSpaceOnUse">
<stop offset="2.82373e-07" stop-color="#FF965B"/>
<stop offset="1" stop-color="#FFDECC"/>
</linearGradient>
</defs>
</svg>
