<svg width="124" height="124" viewBox="0 0 124 124" fill="none" xmlns="http://www.w3.org/2000/svg">
<path d="M62 124C96.2417 124 124 96.2417 124 62C124 27.7583 96.2417 0 62 0C27.7583 0 0 27.7583 0 62C0 96.2417 27.7583 124 62 124Z" fill="#F4F4F4"/>
<mask id="mask0_1373_2580" style="mask-type:luminance" maskUnits="userSpaceOnUse" x="0" y="0" width="124" height="124">
<path d="M62 124C96.2417 124 124 96.2417 124 62C124 27.7583 96.2417 0 62 0C27.7583 0 0 27.7583 0 62C0 96.2417 27.7583 124 62 124Z" fill="white"/>
</mask>
<g mask="url(#mask0_1373_2580)">
<path d="M107.361 107.437C115.644 101.504 121.062 91.8117 121.062 80.8421C121.062 62.7942 106.436 48.168 88.3884 48.168C77.5508 48.168 67.9615 53.4399 62.0141 61.5607C56.0667 53.4399 46.4774 48.168 35.6399 48.168C17.5921 48.168 2.96582 62.7942 2.96582 80.8421C2.96582 91.8117 8.3699 101.504 16.6669 107.437C8.38458 113.369 2.96582 123.061 2.96582 134.031C2.96582 152.079 17.5921 166.705 35.6399 166.705C46.4774 166.705 56.0667 161.433 62.0141 153.312C67.9615 161.433 77.5508 166.705 88.3884 166.705C106.436 166.705 121.062 152.079 121.062 134.031C121.048 123.061 115.644 113.355 107.361 107.437Z" fill="url(#paint0_linear_1373_2580)"/>
<path d="M50.1198 82.0891C52.8529 82.0891 55.0686 79.8734 55.0686 77.1402C55.0686 74.4071 52.8529 72.1914 50.1198 72.1914C47.3866 72.1914 45.1709 74.4071 45.1709 77.1402C45.1709 79.8734 47.3866 82.0891 50.1198 82.0891Z" fill="#262626"/>
<path d="M73.8795 82.0891C76.6127 82.0891 78.8283 79.8734 78.8283 77.1402C78.8283 74.4071 76.6127 72.1914 73.8795 72.1914C71.1463 72.1914 68.9307 74.4071 68.9307 77.1402C68.9307 79.8734 71.1463 82.0891 73.8795 82.0891Z" fill="#262626"/>
<path d="M61.9998 95.864C67.1661 95.864 71.3542 93.6878 71.3542 91.0033C71.3542 88.3188 67.1661 86.1426 61.9998 86.1426C56.8336 86.1426 52.6455 88.3188 52.6455 91.0033C52.6455 93.6878 56.8336 95.864 61.9998 95.864Z" fill="#FAFAFA"/>
</g>
<defs>
<linearGradient id="paint0_linear_1373_2580" x1="111.589" y1="157.02" x2="16.157" y2="61.5875" gradientUnits="userSpaceOnUse">
<stop offset="2.77045e-07" stop-color="#31C690"/>
<stop offset="1" stop-color="#A7E7D0"/>
</linearGradient>
</defs>
</svg>
