<svg width="124" height="124" viewBox="0 0 124 124" fill="none" xmlns="http://www.w3.org/2000/svg">
<path d="M62 124C96.2417 124 124 96.2417 124 62C124 27.7583 96.2417 0 62 0C27.7583 0 0 27.7583 0 62C0 96.2417 27.7583 124 62 124Z" fill="#F4F4F4"/>
<mask id="mask0_1373_2581" style="mask-type:luminance" maskUnits="userSpaceOnUse" x="0" y="0" width="124" height="124">
<path d="M62 124C96.2417 124 124 96.2417 124 62C124 27.7583 96.2417 0 62 0C27.7583 0 0 27.7583 0 62C0 96.2417 27.7583 124 62 124Z" fill="white"/>
</mask>
<g mask="url(#mask0_1373_2581)">
<path d="M125.644 99.7098C135.542 97.3015 144.177 90.3261 148.274 80.1494C155.014 63.4086 146.908 44.3768 130.167 37.6364C120.123 33.598 109.241 34.905 100.694 40.221C98.2126 30.4701 91.2813 21.9969 81.2221 17.9438C64.4812 11.2034 45.4495 19.3095 38.7091 36.0504C34.612 46.2271 36.007 57.2409 41.4845 65.8316C31.5869 68.2399 22.9521 75.2153 18.855 85.392C12.1146 102.133 20.2207 121.165 36.9616 127.905C47.0061 131.943 57.8877 130.636 66.4344 125.32C68.9161 135.071 75.8474 143.545 85.9066 147.598C102.647 154.338 121.679 146.232 128.42 129.491C132.517 119.314 131.122 108.301 125.644 99.7098Z" fill="url(#paint0_linear_1373_2581)"/>
</g>
<mask id="mask1_1373_2581" style="mask-type:luminance" maskUnits="userSpaceOnUse" x="0" y="0" width="124" height="124">
<path d="M62 124C96.2417 124 124 96.2417 124 62C124 27.7583 96.2417 0 62 0C27.7583 0 0 27.7583 0 62C0 96.2417 27.7583 124 62 124Z" fill="white"/>
</mask>
<g mask="url(#mask1_1373_2581)">
<path d="M53.5405 63.9663C49.8839 62.4978 47.9601 58.6944 49.2377 55.493C49.693 54.3623 50.9706 53.8189 52.1013 54.2742C53.2321 54.7294 53.7754 56.007 53.3201 57.1377C52.9971 57.9454 53.6726 59.2671 55.1705 59.8692C56.6683 60.4712 58.0781 59.9866 58.4012 59.179C58.8564 58.0482 60.134 57.5049 61.2647 57.9601C62.3955 58.4153 62.9388 59.6929 62.4836 60.8237C61.2207 64.0397 57.197 65.4348 53.5405 63.9663Z" fill="#262626"/>
<path d="M75.5678 72.8335C71.9112 71.365 69.9875 67.5615 71.2651 64.3602C71.7203 63.2295 72.9979 62.6861 74.1287 63.1414C75.2594 63.5966 75.8027 64.8742 75.3475 66.0049C75.0244 66.8126 75.6999 68.1343 77.1978 68.7363C78.6957 69.3384 80.1055 68.8538 80.4285 68.0461C80.8838 66.9154 82.1613 66.3721 83.2921 66.8273C84.4228 67.2825 84.9662 68.5601 84.5109 69.6909C83.248 72.8922 79.2244 74.302 75.5678 72.8335Z" fill="#262626"/>
<path fill-rule="evenodd" clip-rule="evenodd" d="M53.0119 68.9006C51.7343 68.3867 50.5742 69.0915 50.3833 70.4572C49.6343 75.6557 52.9091 81.0892 58.5481 83.3507C64.1725 85.6122 70.3108 83.9674 73.3653 79.7088C74.173 78.5927 73.8205 77.2711 72.5429 76.7571L53.0119 68.9006Z" fill="#FAFAFA"/>
</g>
<defs>
<linearGradient id="paint0_linear_1373_2581" x1="111.052" y1="147.315" x2="58.1538" y2="23.1487" gradientUnits="userSpaceOnUse">
<stop stop-color="#0060E6"/>
<stop offset="1" stop-color="#CCE1FF"/>
</linearGradient>
</defs>
</svg>
