<svg width="32" height="32" viewBox="0 0 32 32" fill="none" xmlns="http://www.w3.org/2000/svg">
<circle cx="16" cy="16" r="16" fill="#262626"/>
<path d="M15.917 20.354C16.903 20.354 17.7293 20.0207 18.396 19.354C19.0627 18.6873 19.396 17.8677 19.396 16.895C19.396 15.923 19.0627 15.1037 18.396 14.437C17.7293 13.7703 16.903 13.437 15.917 13.437C14.945 13.437 14.129 13.7703 13.469 14.437C12.809 15.1037 12.479 15.923 12.479 16.895C12.479 17.8677 12.809 18.6873 13.469 19.354C14.129 20.0207 14.945 20.354 15.917 20.354ZM9.584 23.166C9.13933 23.166 8.76433 23.0133 8.459 22.708C8.153 22.4027 8 22.0277 8 21.583V12.229C8 11.7843 8.153 11.4093 8.459 11.104C8.76433 10.798 9.13933 10.645 9.584 10.645H12.042L13.105 9.5C13.2577 9.34733 13.4347 9.22567 13.636 9.135C13.8373 9.045 14.049 9 14.271 9H17.584C17.792 9 17.9967 9.045 18.198 9.135C18.3993 9.22567 18.5763 9.34733 18.729 9.5L19.813 10.645H22.25C22.6947 10.645 23.0697 10.798 23.375 11.104C23.681 11.4093 23.834 11.7843 23.834 12.229V21.583C23.834 22.0277 23.681 22.4027 23.375 22.708C23.0697 23.0133 22.6947 23.166 22.25 23.166H9.584Z" fill="white"/>
</svg>
