<svg width="32" height="32" viewBox="0 0 32 32" fill="none" xmlns="http://www.w3.org/2000/svg">
<path d="M16 32C24.8366 32 32 24.8366 32 16C32 7.16344 24.8366 0 16 0C7.16344 0 0 7.16344 0 16C0 24.8366 7.16344 32 16 32Z" fill="#F4F4F4"/>
<mask id="mask0_1373_2643" style="mask-type:luminance" maskUnits="userSpaceOnUse" x="0" y="0" width="32" height="32">
<path d="M16 32C24.8366 32 32 24.8366 32 16C32 7.16344 24.8366 0 16 0C7.16344 0 0 7.16344 0 16C0 24.8366 7.16344 32 16 32Z" fill="white"/>
</mask>
<g mask="url(#mask0_1373_2643)">
<path d="M27.7054 27.7268C29.8428 26.1957 31.2412 23.6945 31.2412 20.8637C31.2412 16.2062 27.4667 12.4316 22.8092 12.4316C20.0124 12.4316 17.5377 13.7921 16.0029 15.8878C14.4681 13.7921 11.9935 12.4316 9.19667 12.4316C4.53916 12.4316 0.764648 16.2062 0.764648 20.8637C0.764648 23.6945 2.15925 26.1957 4.30041 27.7268C2.16304 29.2578 0.764648 31.759 0.764648 34.5899C0.764648 39.2474 4.53916 43.0219 9.19667 43.0219C11.9935 43.0219 14.4681 41.6614 16.0029 39.5657C17.5377 41.6614 20.0124 43.0219 22.8092 43.0219C27.4667 43.0219 31.2412 39.2474 31.2412 34.5899C31.2374 31.759 29.8428 29.254 27.7054 27.7268Z" fill="url(#paint0_linear_1373_2643)"/>
<path d="M12.9334 21.1851C13.6387 21.1851 14.2105 20.6133 14.2105 19.908C14.2105 19.2026 13.6387 18.6309 12.9334 18.6309C12.228 18.6309 11.6562 19.2026 11.6562 19.908C11.6562 20.6133 12.228 21.1851 12.9334 21.1851Z" fill="#262626"/>
<path d="M19.0652 21.1851C19.7705 21.1851 20.3423 20.6133 20.3423 19.908C20.3423 19.2026 19.7705 18.6309 19.0652 18.6309C18.3599 18.6309 17.7881 19.2026 17.7881 19.908C17.7881 20.6133 18.3599 21.1851 19.0652 21.1851Z" fill="#262626"/>
<path d="M15.999 24.7412C17.3322 24.7412 18.413 24.1796 18.413 23.4868C18.413 22.794 17.3322 22.2324 15.999 22.2324C14.6658 22.2324 13.585 22.794 13.585 23.4868C13.585 24.1796 14.6658 24.7412 15.999 24.7412Z" fill="#FAFAFA"/>
</g>
<defs>
<linearGradient id="paint0_linear_1373_2643" x1="28.7965" y1="40.5224" x2="4.16884" y2="15.8948" gradientUnits="userSpaceOnUse">
<stop offset="2.77045e-07" stop-color="#31C690"/>
<stop offset="1" stop-color="#A7E7D0"/>
</linearGradient>
</defs>
</svg>
