<svg width="24" height="24" viewBox="0 0 24 24" fill="none" xmlns="http://www.w3.org/2000/svg">
<path d="M8.87539 17.1254C8.72539 16.9754 8.65039 16.8004 8.65039 16.6004C8.65039 16.4004 8.72539 16.2254 8.87539 16.0754L12.9504 12.0004L8.87539 7.92539C8.72539 7.77539 8.65039 7.60039 8.65039 7.40039C8.65039 7.20039 8.72539 7.02539 8.87539 6.87539C9.02539 6.72539 9.20039 6.65039 9.40039 6.65039C9.60039 6.65039 9.77539 6.72539 9.92539 6.87539L14.4254 11.3754C14.5087 11.4587 14.5714 11.5544 14.6134 11.6624C14.6547 11.7711 14.6754 11.8837 14.6754 12.0004C14.6754 12.1171 14.6547 12.2294 14.6134 12.3374C14.5714 12.4461 14.5087 12.5421 14.4254 12.6254L9.92539 17.1254C9.77539 17.2754 9.60039 17.3504 9.40039 17.3504C9.20039 17.3504 9.02539 17.2754 8.87539 17.1254Z" fill="white"/>
</svg>
