<svg width="24" height="24" viewBox="0 0 24 24" fill="none" xmlns="http://www.w3.org/2000/svg">
<g id="icon">
<path id="visibility_off" d="M18.5831 19.9405L15.1438 16.5274C14.6426 16.7214 14.1274 16.8614 13.5983 16.9475C13.0692 17.0336 12.5317 17.0767 11.9857 17.0767C10.1964 17.0767 8.55767 16.6007 7.06962 15.6488C5.58157 14.6969 4.40219 13.4424 3.53147 11.8851C3.46063 11.7631 3.40888 11.6388 3.37619 11.5124C3.3435 11.386 3.32715 11.2574 3.32715 11.1267C3.32715 10.9959 3.34486 10.8659 3.38027 10.7368C3.41569 10.6077 3.46882 10.4848 3.53965 10.3682C3.87856 9.80481 4.23872 9.25966 4.62013 8.73276C5.00156 8.20587 5.44509 7.73973 5.95073 7.33435L3.59686 4.95435L4.49263 4.05859L19.4788 19.0447L18.5831 19.9405ZM11.9857 14.592C12.1743 14.592 12.3543 14.5809 12.526 14.5585C12.6976 14.5362 12.8652 14.4874 13.0286 14.4122L8.70016 10.0837C8.63042 10.2472 8.58302 10.4148 8.55796 10.5864C8.53288 10.758 8.52034 10.9381 8.52034 11.1267C8.52034 12.0911 8.8568 12.9097 9.52973 13.5827C10.2026 14.2556 11.0213 14.592 11.9857 14.592ZM17.8965 15.0236L15.2304 12.3788C15.3024 12.1761 15.3571 11.9717 15.3947 11.7658C15.4323 11.5598 15.4511 11.3468 15.4511 11.1267C15.4511 10.1622 15.1147 9.34358 14.4417 8.67066C13.7688 7.99774 12.9501 7.66129 11.9857 7.66129C11.7656 7.66129 11.5526 7.68144 11.3466 7.72176C11.1406 7.76208 10.939 7.82801 10.7418 7.91956L8.61516 5.8011C9.15567 5.58751 9.7068 5.43004 10.2686 5.32869C10.8303 5.22734 11.4027 5.17666 11.9857 5.17666C13.7805 5.17666 15.4269 5.65479 16.9247 6.61104C18.4226 7.5673 19.6041 8.82949 20.4694 10.3976C20.5348 10.5055 20.5852 10.6213 20.6206 10.745C20.656 10.8687 20.6737 10.9959 20.6737 11.1267C20.6737 11.2574 20.6582 11.3847 20.6271 11.5083C20.5961 11.632 20.5479 11.7478 20.4825 11.8557C20.1534 12.4725 19.778 13.0481 19.3562 13.5827C18.9345 14.1172 18.4479 14.5975 17.8965 15.0236ZM14.2677 11.4242L11.7095 8.87415C12.0669 8.80332 12.4151 8.82893 12.754 8.95097C13.0929 9.07303 13.3855 9.26319 13.6318 9.52145C13.8835 9.77645 14.0653 10.0696 14.1769 10.4009C14.2886 10.7322 14.3189 11.0733 14.2677 11.4242Z" fill="#BFBFBF"/>
</g>
</svg>
