<svg width="32" height="32" viewBox="0 0 32 32" fill="none" xmlns="http://www.w3.org/2000/svg">
<path d="M16 32C24.8366 32 32 24.8366 32 16C32 7.16344 24.8366 0 16 0C7.16344 0 0 7.16344 0 16C0 24.8366 7.16344 32 16 32Z" fill="#F4F4F4"/>
<mask id="mask0_1373_2613" style="mask-type:luminance" maskUnits="userSpaceOnUse" x="0" y="0" width="32" height="32">
<path d="M16 32C24.8366 32 32 24.8366 32 16C32 7.16344 24.8366 0 16 0C7.16344 0 0 7.16344 0 16C0 24.8366 7.16344 32 16 32Z" fill="white"/>
</mask>
<g mask="url(#mask0_1373_2613)">
<path d="M21.1918 14.423C23.6475 13.4869 25.6333 11.4216 26.3533 8.68542C27.5357 4.1795 24.845 -0.428745 20.3391 -1.61112C17.6333 -2.31979 14.8933 -1.63386 12.8772 0.00328112C11.926 -2.41453 9.87579 -4.35863 7.16996 -5.07109C2.66404 -6.25346 -1.9442 -3.5628 -3.12658 0.943125C-3.84662 3.67927 -3.13037 6.45331 -1.45154 8.477C-3.90725 9.41304 -5.89304 11.4784 -6.61308 14.2146C-7.79546 18.7205 -5.10479 23.3287 -0.598867 24.5111C2.10696 25.2198 4.84689 24.5338 6.863 22.8967C7.81421 25.3145 9.86442 27.2586 12.5702 27.9711C17.0762 29.1535 21.6844 26.4628 22.8668 21.9569C23.5868 19.2207 22.8744 16.4467 21.1918 14.423Z" fill="url(#paint0_linear_1373_2613)"/>
<path d="M14.4692 14.1161L15.4962 13.2369C15.6327 13.1194 15.5569 12.911 15.3598 12.8579L13.3399 12.3274C13.1428 12.2743 12.9723 12.4221 13.0329 12.5889L13.4953 13.8584C13.6431 14.2639 14.1471 14.3965 14.4692 14.1161L15.4962 13.2369C15.6327 13.1194 15.5569 12.911 15.3598 12.8579L13.3399 12.3274C13.1428 12.2743 12.9723 12.4221 13.0329 12.5889L13.4953 13.8584C13.6431 14.2639 14.1471 14.3965 14.4692 14.1161Z" fill="#FAFAFA"/>
<path d="M11.6579 10.7817C10.6726 10.524 10.0587 9.61451 10.2823 8.75426C10.3619 8.45108 10.6726 8.26919 10.9758 8.34877C11.279 8.42835 11.4609 8.7391 11.3813 9.04228C11.3244 9.25829 11.5404 9.57662 11.9459 9.68273C12.3514 9.78884 12.6963 9.61831 12.7531 9.4023C12.8327 9.09913 13.1435 8.91722 13.4467 8.9968C13.7498 9.07639 13.9317 9.38713 13.8521 9.69031C13.6286 10.5506 12.6432 11.0394 11.6579 10.7817Z" fill="#262626"/>
<path d="M17.5847 12.3384C16.5994 12.0807 15.9854 11.1712 16.209 10.3109C16.2886 10.0077 16.5994 9.82583 16.9025 9.90541C17.2057 9.98499 17.3876 10.2957 17.308 10.5989C17.2512 10.8149 17.4672 11.1333 17.8727 11.2394C18.2782 11.3455 18.6231 11.175 18.6799 10.9589C18.7595 10.6558 19.0702 10.4739 19.3734 10.5534C19.6766 10.633 19.8585 10.9438 19.7789 11.247C19.5553 12.1072 18.57 12.5961 17.5847 12.3384Z" fill="#262626"/>
</g>
<defs>
<linearGradient id="paint0_linear_1373_2613" x1="19.0024" y1="27.0771" x2="1.43793" y2="-2.99823" gradientUnits="userSpaceOnUse">
<stop offset="2.77045e-07" stop-color="#31C690"/>
<stop offset="1" stop-color="#A7E7D0"/>
</linearGradient>
</defs>
</svg>
