<svg width="32" height="32" viewBox="0 0 32 32" fill="none" xmlns="http://www.w3.org/2000/svg">
<path d="M16 32C24.8366 32 32 24.8366 32 16C32 7.16344 24.8366 0 16 0C7.16344 0 0 7.16344 0 16C0 24.8366 7.16344 32 16 32Z" fill="#F4F4F4"/>
<mask id="mask0_1373_2627" style="mask-type:luminance" maskUnits="userSpaceOnUse" x="0" y="0" width="32" height="32">
<path d="M16 32C24.8366 32 32 24.8366 32 16C32 7.16344 24.8366 0 16 0C7.16344 0 0 7.16344 0 16C0 24.8366 7.16344 32 16 32Z" fill="white"/>
</mask>
<g mask="url(#mask0_1373_2627)">
<path d="M32.424 25.731C34.9782 25.1095 37.2065 23.3094 38.2638 20.6832C40.0033 16.3629 37.9114 11.4515 33.5912 9.71205C30.999 8.66989 28.1909 9.00717 25.9853 10.379C25.3449 7.86269 23.5561 5.67605 20.9602 4.6301C16.64 2.89064 11.7286 4.98254 9.9891 9.30277C8.93178 11.929 9.29179 14.7713 10.7053 16.9882C8.1511 17.6097 5.92277 19.4098 4.86545 22.0361C3.12599 26.3563 5.2179 31.2677 9.53813 33.0072C12.1303 34.0493 14.9384 33.712 17.144 32.3402C17.7845 34.8565 19.5732 37.0432 22.1691 38.0891C26.4893 39.8286 31.4007 37.7367 33.1402 33.4165C34.1975 30.7902 33.8375 27.948 32.424 25.731Z" fill="url(#paint0_linear_1373_2627)"/>
</g>
<mask id="mask1_1373_2627" style="mask-type:luminance" maskUnits="userSpaceOnUse" x="0" y="0" width="32" height="32">
<path d="M16 32C24.8366 32 32 24.8366 32 16C32 7.16344 24.8366 0 16 0C7.16344 0 0 7.16344 0 16C0 24.8366 7.16344 32 16 32Z" fill="white"/>
</mask>
<g mask="url(#mask1_1373_2627)">
<path d="M13.8168 16.5075C12.8732 16.1286 12.3767 15.1471 12.7064 14.3209C12.8239 14.0291 13.1536 13.8889 13.4454 14.0064C13.7372 14.1238 13.8774 14.4535 13.7599 14.7454C13.6766 14.9538 13.8509 15.2949 14.2374 15.4502C14.624 15.6056 14.9878 15.4805 15.0712 15.2721C15.1887 14.9803 15.5184 14.8401 15.8102 14.9576C16.102 15.0751 16.2422 15.4048 16.1247 15.6966C15.7988 16.5265 14.7604 16.8865 13.8168 16.5075Z" fill="#262626"/>
<path d="M19.5014 18.7947C18.5577 18.4157 18.0613 17.4342 18.391 16.608C18.5085 16.3162 18.8382 16.176 19.13 16.2935C19.4218 16.411 19.562 16.7407 19.4445 17.0325C19.3611 17.2409 19.5355 17.582 19.922 17.7373C20.3086 17.8927 20.6724 17.7677 20.7557 17.5592C20.8732 17.2674 21.2029 17.1272 21.4947 17.2447C21.7865 17.3622 21.9268 17.6919 21.8093 17.9837C21.4834 18.8098 20.445 19.1736 19.5014 18.7947Z" fill="#262626"/>
<path fill-rule="evenodd" clip-rule="evenodd" d="M13.6803 17.7817C13.3506 17.649 13.0512 17.831 13.0019 18.1834C12.8087 19.5249 13.6538 20.9271 15.109 21.5107C16.5604 22.0943 18.1445 21.6699 18.9328 20.5709C19.1412 20.2829 19.0503 19.9418 18.7206 19.8092L13.6803 17.7817Z" fill="#FAFAFA"/>
</g>
<defs>
<linearGradient id="paint0_linear_1373_2627" x1="28.6582" y1="38.0163" x2="15.0071" y2="5.9733" gradientUnits="userSpaceOnUse">
<stop stop-color="#0060E6"/>
<stop offset="1" stop-color="#CCE1FF"/>
</linearGradient>
</defs>
</svg>
