<svg width="106" height="26" viewBox="0 0 106 26" fill="none" xmlns="http://www.w3.org/2000/svg">
<path d="M39.2018 4.55158C37.8848 4.55158 37.2263 5.27579 37.2263 6.72421V7.53263H40.9022V10.0589H37.3263V20.9221H34.2006V10.0589H32V7.53263H34.2006V6.67368C34.2006 5.22526 34.6173 4.08842 35.4509 3.26316C36.2844 2.42105 37.4597 2 38.9767 2C40.1771 2 41.119 2.24421 41.8025 2.73263L40.9272 5.10737C40.3938 4.73684 39.8186 4.55158 39.2018 4.55158ZM43.0028 2.17684H46.1285V20.9221H43.0028V2.17684Z" fill="#135D42"/>
<path d="M54.4857 21.0989C53.1354 21.0989 51.9184 20.8042 50.8348 20.2147C49.7512 19.6253 48.901 18.8084 48.2842 17.7642C47.684 16.7032 47.3839 15.5074 47.3839 14.1768C47.3839 12.8463 47.684 11.6589 48.2842 10.6147C48.901 9.57053 49.7512 8.75368 50.8348 8.16421C51.9184 7.57474 53.1354 7.28 54.4857 7.28C55.8527 7.28 57.078 7.57474 58.1616 8.16421C59.2452 8.75368 60.0871 9.57053 60.6873 10.6147C61.3041 11.6589 61.6125 12.8463 61.6125 14.1768C61.6125 15.5074 61.3041 16.7032 60.6873 17.7642C60.0871 18.8084 59.2452 19.6253 58.1616 20.2147C57.078 20.8042 55.8527 21.0989 54.4857 21.0989ZM54.4857 18.3958C55.636 18.3958 56.5862 18.0084 57.3364 17.2337C58.0866 16.4589 58.4617 15.44 58.4617 14.1768C58.4617 12.9137 58.0866 11.8947 57.3364 11.12C56.5862 10.3453 55.636 9.95789 54.4857 9.95789C53.3354 9.95789 52.3852 10.3453 51.635 11.12C50.9015 11.8947 50.5347 12.9137 50.5347 14.1768C50.5347 15.44 50.9015 16.4589 51.635 17.2337C52.3852 18.0084 53.3354 18.3958 54.4857 18.3958Z" fill="#135D42"/>
<path d="M70.428 7.28C72.1118 7.28 73.4621 7.77684 74.479 8.77053C75.4959 9.76421 76.0044 11.2379 76.0044 13.1916V20.9221H72.8786V13.5958C72.8786 12.4168 72.6035 11.5326 72.0534 10.9432C71.5033 10.3368 70.7197 10.0337 69.7028 10.0337C68.5525 10.0337 67.644 10.3874 66.9771 11.0947C66.3103 11.7853 65.9769 12.7874 65.9769 14.1011V20.9221H62.8511V7.43158H65.8268V9.17474C66.3436 8.55158 66.9938 8.08 67.7773 7.76C68.5609 7.44 69.4444 7.28 70.428 7.28Z" fill="#135D42"/>
<path d="M90.8945 14.2526C90.8945 14.4716 90.8778 14.7832 90.8444 15.1874H80.3668C80.5502 16.1811 81.0253 16.9726 81.7922 17.5621C82.5757 18.1347 83.5426 18.4211 84.6929 18.4211C86.1599 18.4211 87.3686 17.9326 88.3188 16.9558L89.9942 18.9011C89.3941 19.6253 88.6356 20.1726 87.7187 20.5432C86.8018 20.9137 85.7682 21.0989 84.6179 21.0989C83.1508 21.0989 81.8589 20.8042 80.7419 20.2147C79.625 19.6253 78.7581 18.8084 78.1413 17.7642C77.5411 16.7032 77.241 15.5074 77.241 14.1768C77.241 12.8632 77.5328 11.6842 78.1162 10.64C78.7164 9.57895 79.5416 8.75368 80.5919 8.16421C81.6421 7.57474 82.8258 7.28 84.1428 7.28C85.4431 7.28 86.6017 7.57474 87.6186 8.16421C88.6522 8.73684 89.4524 9.55368 90.0192 10.6147C90.6027 11.6589 90.8945 12.8716 90.8945 14.2526ZM84.1428 9.80632C83.1425 9.80632 82.2923 10.1095 81.5921 10.7158C80.9086 11.3053 80.4918 12.0968 80.3418 13.0905H87.9187C87.7853 12.1137 87.3769 11.3221 86.6934 10.7158C86.0099 10.1095 85.1597 9.80632 84.1428 9.80632Z" fill="#135D42"/>
<path d="M106 7.43158L96.7977 22.1095C95.8808 23.5747 95.0056 24.5853 94.172 25.1411C93.3552 25.7137 92.3549 26 91.1713 26C90.5045 26 89.846 25.8905 89.1958 25.6716C88.5456 25.4526 88.0372 25.1663 87.6704 24.8126L89.2208 22.5137C89.8376 23.0863 90.5711 23.3726 91.4213 23.3726C91.9548 23.3726 92.4216 23.2295 92.8217 22.9432C93.2218 22.6737 93.6302 22.2021 94.047 21.5284L94.4721 20.8716L91.3213 7.43158H94.4471L96.6977 17.4358L102.874 7.43158H106Z" fill="#135D42"/>
<path fill-rule="evenodd" clip-rule="evenodd" d="M24 6.61584C24 8.83622 22.9013 10.7996 21.2172 11.9998H21.2167C22.9009 13.1999 23.9996 15.1634 23.9996 17.3837C23.9996 21.0379 21.0268 24 17.3594 24C15.1582 24 13.2081 22.9315 11.9998 21.2877C10.7919 22.9319 8.84179 24 6.64016 24C2.97276 24 0 21.0379 0 17.3837C0 15.1634 1.09869 13.1999 2.78284 12.0002C1.09869 10.8001 0 8.83665 0 6.61627C0 2.96206 2.97276 0 6.64016 0C8.84179 0 10.7919 1.06807 11.9998 2.71229C13.2081 1.06807 15.1582 0 17.3598 0C21.0268 0 24 2.96206 24 6.61584ZM12.3736 11.03L13.0992 14.8301H13.0988C13.15 15.169 12.8889 15.4737 12.548 15.4737H11.4523C11.1114 15.4737 10.8502 15.1697 10.9011 14.8308C10.9983 14.1837 11.1546 13.431 11.302 12.7212C11.4336 12.0877 11.5581 11.4884 11.6271 11.0289C11.6574 10.8286 11.5656 10.633 11.3981 10.5202C11.1077 10.325 10.9168 9.99276 10.9168 9.61529C10.9168 8.97281 11.4702 8.46044 12.1241 8.53322C12.6186 8.58835 13.0206 8.99155 13.0765 9.48811C13.1252 9.91778 12.9244 10.3044 12.6011 10.5213C12.4339 10.6334 12.3436 10.8304 12.3736 11.03Z" fill="url(#paint0_linear_666_5706)"/>
<defs>
<linearGradient id="paint0_linear_666_5706" x1="24" y1="24" x2="0" y2="0" gradientUnits="userSpaceOnUse">
<stop stop-color="#31C690"/>
<stop offset="1" stop-color="#7FDCBA"/>
</linearGradient>
</defs>
</svg>
