<svg width="24" height="24" viewBox="0 0 24 24" fill="none" xmlns="http://www.w3.org/2000/svg">
<path fill-rule="evenodd" clip-rule="evenodd" d="M2.4 4C1.90294 4 1.5 4.40311 1.5 4.90037C1.5 5.39763 1.90294 5.80074 2.4 5.80074H16.4707C16.9677 5.80074 17.3707 5.39763 17.3707 4.90037C17.3707 4.40311 16.9677 4 16.4707 4H2.4ZM16.4694 16.6121L14.2507 17.8987L14.8317 15.4778L12.8772 13.8357L15.4481 13.6157L16.4694 11.3302L17.4907 13.6326L20.0615 13.8527L18.107 15.4778L18.688 17.9156L16.4694 16.6121ZM13.5463 19.8963L16.4694 18.2034L19.3924 19.8963C19.5215 19.9754 19.6565 20.0092 19.7974 19.9979C19.9383 19.9867 20.0615 19.9415 20.1672 19.8625C20.2728 19.7835 20.355 19.6847 20.4137 19.5662C20.4724 19.4478 20.4841 19.3151 20.4489 19.1683L19.6741 15.9688L22.2626 13.8188C22.38 13.7172 22.4534 13.6015 22.4827 13.4718C22.512 13.342 22.5032 13.215 22.4563 13.0909C22.4093 12.9667 22.3389 12.8651 22.245 12.7861C22.1511 12.7071 22.0219 12.6563 21.8576 12.6338L18.4415 12.346L17.1209 9.33261C17.0622 9.19718 16.9712 9.0956 16.8479 9.02789C16.7247 8.96017 16.5985 8.92632 16.4694 8.92632C16.3402 8.92632 16.214 8.96017 16.0908 9.02789C15.9675 9.0956 15.8765 9.19718 15.8178 9.33261L14.4972 12.346L11.0811 12.6338C10.9168 12.6563 10.7876 12.7071 10.6937 12.7861C10.5998 12.8651 10.5294 12.9667 10.4824 13.0909C10.4355 13.215 10.4266 13.342 10.456 13.4718C10.4853 13.6015 10.5587 13.7172 10.6761 13.8188L13.2646 15.9688L12.4898 19.1683C12.4546 19.3151 12.4663 19.4478 12.525 19.5662C12.5837 19.6847 12.6659 19.7835 12.7715 19.8625C12.8772 19.9415 13.0004 19.9867 13.1413 19.9979C13.2822 20.0092 13.4172 19.9754 13.5463 19.8963ZM1.5 9.93368C1.5 9.43641 1.90294 9.03331 2.4 9.03331H10.4404C10.9374 9.03331 11.3404 9.43641 11.3404 9.93368C11.3404 10.4309 10.9374 10.834 10.4404 10.834H2.4C1.90294 10.834 1.5 10.4309 1.5 9.93368ZM2.4 14.0668C1.90294 14.0668 1.5 14.4699 1.5 14.9672C1.5 15.4644 1.90294 15.8676 2.4 15.8676H6.42018C6.91724 15.8676 7.32018 15.4644 7.32018 14.9672C7.32018 14.4699 6.91724 14.0668 6.42018 14.0668H2.4Z" fill="#262626"/>
</svg>
