<svg width="20" height="20" viewBox="0 0 20 20" fill="none" xmlns="http://www.w3.org/2000/svg">
<path d="M8.575 12.15L6.225 9.8C6.09167 9.66667 5.925 9.6 5.725 9.6C5.525 9.6 5.35 9.675 5.2 9.825C5.05 9.975 4.975 10.15 4.975 10.35C4.975 10.55 5.05 10.725 5.2 10.875L7.95 13.625C8.11667 13.7917 8.325 13.875 8.575 13.875C8.825 13.875 9.04167 13.7917 9.225 13.625L14.8 8.025C14.9333 7.89167 15 7.725 15 7.525C15 7.325 14.925 7.15 14.775 7C14.625 6.85 14.45 6.775 14.25 6.775C14.05 6.775 13.875 6.85 13.725 7L8.575 12.15ZM10 19.5C8.68333 19.5 7.446 19.25 6.288 18.75C5.12933 18.25 4.125 17.575 3.275 16.725C2.425 15.875 1.75 14.8707 1.25 13.712C0.75 12.554 0.5 11.3167 0.5 10C0.5 8.68333 0.75 7.44567 1.25 6.287C1.75 5.129 2.425 4.125 3.275 3.275C4.125 2.425 5.12933 1.75 6.288 1.25C7.446 0.75 8.68333 0.5 10 0.5C11.3167 0.5 12.5543 0.75 13.713 1.25C14.871 1.75 15.875 2.425 16.725 3.275C17.575 4.125 18.25 5.129 18.75 6.287C19.25 7.44567 19.5 8.68333 19.5 10C19.5 11.3167 19.25 12.554 18.75 13.712C18.25 14.8707 17.575 15.875 16.725 16.725C15.875 17.575 14.871 18.25 13.713 18.75C12.5543 19.25 11.3167 19.5 10 19.5Z" fill="#56D1A5"/>
</svg>
