<svg width="16" height="17" viewBox="0 0 16 17" fill="none" xmlns="http://www.w3.org/2000/svg">
<circle cx="8" cy="8.23535" r="8" fill="#FF0000"/>
<path fill-rule="evenodd" clip-rule="evenodd" d="M4.96848 11.8984C4.80006 11.8984 4.6527 11.8353 4.52638 11.709C4.41411 11.5967 4.3546 11.4527 4.34786 11.277C4.34056 11.1018 4.39305 10.9581 4.50533 10.8458L7.11581 8.23535L4.52638 5.64593C4.40007 5.51962 4.33691 5.37225 4.33691 5.20383C4.33691 5.03541 4.40007 4.88805 4.52638 4.76174C4.63866 4.64946 4.78266 4.58967 4.95838 4.58237C5.13353 4.57563 5.27725 4.62841 5.38952 4.74068L8 7.35116L10.5894 4.76174C10.7157 4.63542 10.8631 4.57227 11.0315 4.57227C11.1999 4.57227 11.3473 4.63542 11.4736 4.76174C11.5859 4.87401 11.6454 5.01773 11.6521 5.19289C11.6594 5.3686 11.6069 5.5126 11.4947 5.62488L8.88419 8.23535L11.4736 10.8248C11.5999 10.9511 11.6631 11.0985 11.6631 11.2669C11.6631 11.4353 11.5999 11.5827 11.4736 11.709C11.3613 11.8212 11.2176 11.8808 11.0425 11.8875C10.8668 11.8948 10.7228 11.8423 10.6105 11.73L8 9.11954L5.41058 11.709C5.28426 11.8353 5.1369 11.8984 4.96848 11.8984Z" fill="white"/>
</svg>
