<svg width="24" height="24" viewBox="0 0 24 24" fill="none" xmlns="http://www.w3.org/2000/svg">
<path d="M5.15039 19.0002H6.40039L15.6504 9.7502L14.4254 8.5002L5.15039 17.7752V19.0002ZM18.8504 8.6502L15.4754 5.3002L16.7754 4.0002C17.0754 3.71686 17.4381 3.5752 17.8634 3.5752C18.2881 3.5752 18.6421 3.71686 18.9254 4.0002L20.1504 5.2252C20.4337 5.5252 20.5837 5.8792 20.6004 6.2872C20.6171 6.69586 20.4754 7.04186 20.1754 7.3252L18.8504 8.6502ZM17.7754 9.7502L7.02539 20.5002H3.65039V17.1252L14.4004 6.3752L17.7754 9.7502ZM15.0254 9.1252L14.4254 8.5002L15.6504 9.7502L15.0254 9.1252Z" fill="#262626"/>
</svg>
