<svg width="26" height="26" viewBox="0 0 26 26" fill="none" xmlns="http://www.w3.org/2000/svg">
<path d="M13.0668 19.3754C13.2907 19.3754 13.4864 19.297 13.6539 19.1403C13.8219 18.9835 13.9059 18.7822 13.9059 18.5363V13.9059H18.5701C18.7935 13.9059 18.9835 13.8276 19.1403 13.6708C19.297 13.5146 19.3754 13.3133 19.3754 13.0668C19.3754 12.821 19.297 12.6196 19.1403 12.4629C18.9835 12.3067 18.7822 12.2285 18.5363 12.2285H13.9059V7.42988C13.9059 7.20655 13.8219 7.0165 13.6539 6.85974C13.4864 6.70298 13.2797 6.6246 13.0338 6.6246C12.81 6.6246 12.614 6.70298 12.446 6.85974C12.2785 7.0165 12.1947 7.21782 12.1947 7.4637V12.2285H7.42988C7.20655 12.2285 7.0165 12.3067 6.85974 12.4629C6.70298 12.6196 6.6246 12.821 6.6246 13.0668C6.6246 13.3133 6.70298 13.5146 6.85974 13.6708C7.0165 13.8276 7.21782 13.9059 7.4637 13.9059H12.1947V18.5701C12.1947 18.7935 12.2785 18.9835 12.446 19.1403C12.614 19.297 12.821 19.3754 13.0668 19.3754ZM13 25.75C11.2107 25.75 9.53864 25.4201 7.98391 24.7603C6.42918 24.1005 5.08141 23.2002 3.9406 22.0594C2.79979 20.9186 1.89948 19.5708 1.23969 18.0161C0.579896 16.4614 0.25 14.7893 0.25 13C0.25 11.2107 0.579896 9.54427 1.23969 8.00082C1.89948 6.45737 2.79979 5.1096 3.9406 3.95751C5.08141 2.80542 6.42918 1.89948 7.98391 1.23969C9.53864 0.579896 11.2107 0.25 13 0.25C14.7893 0.25 16.4557 0.579896 17.9992 1.23969C19.5426 1.89948 20.8904 2.80542 22.0425 3.95751C23.1946 5.1096 24.1005 6.45737 24.7603 8.00082C25.4201 9.54427 25.75 11.2107 25.75 13C25.75 14.7893 25.4201 16.4614 24.7603 18.0161C24.1005 19.5708 23.1946 20.9186 22.0425 22.0594C20.8904 23.2002 19.5426 24.1005 17.9992 24.7603C16.4557 25.4201 14.7893 25.75 13 25.75Z" fill="#D9D9D9"/>
</svg>
