<svg width="24" height="24" viewBox="0 0 24 24" fill="none" xmlns="http://www.w3.org/2000/svg">
<mask id="mask0_1067_3092" style="mask-type:alpha" maskUnits="userSpaceOnUse" x="0" y="0" width="24" height="24">
<rect width="24" height="24" fill="#FF0000"/>
</mask>
<g mask="url(#mask0_1067_3092)">
<circle cx="12" cy="12" r="9.5" fill="#D9D9D9"/>
<path fill-rule="evenodd" clip-rule="evenodd" d="M8.27586 16.5C8.06897 16.5 7.88793 16.4224 7.73276 16.2672C7.59483 16.1293 7.52172 15.9524 7.51345 15.7366C7.50448 15.5214 7.56897 15.3448 7.7069 15.2069L10.9138 12L7.73276 8.81897C7.57759 8.66379 7.5 8.48276 7.5 8.27586C7.5 8.06897 7.57759 7.88793 7.73276 7.73276C7.87069 7.59483 8.04759 7.52138 8.26345 7.51241C8.47862 7.50414 8.65517 7.56897 8.7931 7.7069L12 10.9138L15.181 7.73276C15.3362 7.57759 15.5172 7.5 15.7241 7.5C15.931 7.5 16.1121 7.57759 16.2672 7.73276C16.4052 7.87069 16.4783 8.04724 16.4866 8.26241C16.4955 8.47828 16.431 8.65517 16.2931 8.7931L13.0862 12L16.2672 15.181C16.4224 15.3362 16.5 15.5172 16.5 15.7241C16.5 15.931 16.4224 16.1121 16.2672 16.2672C16.1293 16.4052 15.9528 16.4783 15.7376 16.4866C15.5217 16.4955 15.3448 16.431 15.2069 16.2931L12 13.0862L8.81897 16.2672C8.66379 16.4224 8.48276 16.5 8.27586 16.5Z" fill="white"/>
</g>
</svg>
