<svg width="24" height="24" viewBox="0 0 24 24" fill="none" xmlns="http://www.w3.org/2000/svg">
<path d="M6.87461 9.21328C7.02461 9.06328 7.19961 8.98828 7.39961 8.98828C7.59961 8.98828 7.77461 9.06328 7.92461 9.21328L11.9996 13.2883L16.0746 9.21328C16.2246 9.06328 16.3996 8.98828 16.5996 8.98828C16.7996 8.98828 16.9746 9.06328 17.1246 9.21328C17.2746 9.36328 17.3496 9.53828 17.3496 9.73828C17.3496 9.93828 17.2746 10.1133 17.1246 10.2633L12.6246 14.7633C12.5413 14.8466 12.4456 14.9093 12.3376 14.9513C12.2289 14.9926 12.1163 15.0133 11.9996 15.0133C11.8829 15.0133 11.7706 14.9926 11.6626 14.9513C11.5539 14.9093 11.4579 14.8466 11.3746 14.7633L6.87461 10.2633C6.72461 10.1133 6.64961 9.93828 6.64961 9.73828C6.64961 9.53828 6.72461 9.36328 6.87461 9.21328Z" fill="#595959"/>
</svg>
