<svg width="32" height="32" viewBox="0 0 32 32" fill="none" xmlns="http://www.w3.org/2000/svg">
<circle cx="16" cy="16" r="15.5" fill="#E56E73" stroke="#F1F1F1"/>
<path d="M15.8941 24.5C13.8839 24.5 12.1121 23.8865 10.5787 22.6596C9.04541 21.4326 8.06273 19.8628 7.63069 17.95C7.57684 17.7512 7.60921 17.5686 7.72779 17.4019C7.84638 17.2352 8.01431 17.1384 8.23159 17.1115C8.43609 17.0846 8.61944 17.125 8.78162 17.2327C8.94379 17.3404 9.05692 17.4987 9.12102 17.7077C9.5018 19.2525 10.322 20.5208 11.5816 21.5125C12.8412 22.5041 14.2787 23 15.8941 23C17.8441 23 19.4983 22.3208 20.8566 20.9625C22.215 19.6041 22.8941 17.95 22.8941 16C22.8941 14.05 22.215 12.3958 20.8566 11.0375C19.4983 9.67914 17.8441 8.99998 15.8941 8.99998C14.8018 8.99998 13.7781 9.2426 12.823 9.72785C11.8679 10.2131 11.0454 10.8807 10.3557 11.7307H12.2211C12.4336 11.7307 12.6117 11.8026 12.7554 11.9465C12.8992 12.0903 12.971 12.2685 12.971 12.4811C12.971 12.6936 12.8992 12.8717 12.7554 13.0153C12.6117 13.1589 12.4336 13.2307 12.2211 13.2307H8.79802C8.54194 13.2307 8.32728 13.1441 8.15404 12.9708C7.98081 12.7976 7.89419 12.5829 7.89419 12.3269V8.90383C7.89419 8.69133 7.96609 8.5132 8.10989 8.36945C8.25371 8.2257 8.43191 8.15383 8.64449 8.15383C8.85709 8.15383 9.03519 8.2257 9.17877 8.36945C9.32235 8.5132 9.39414 8.69133 9.39414 8.90383V10.5231C10.2057 9.56539 11.1775 8.82213 12.3095 8.29328C13.4416 7.76443 14.6364 7.5 15.8941 7.5C17.0741 7.5 18.1793 7.72308 19.2098 8.16925C20.2404 8.6154 21.139 9.2218 21.9056 9.98845C22.6723 10.7551 23.2787 11.6537 23.7248 12.6841C24.171 13.7145 24.3941 14.8196 24.3941 15.9994C24.3941 17.1793 24.171 18.2846 23.7248 19.3154C23.2787 20.3461 22.6723 21.2448 21.9056 22.0115C21.139 22.7782 20.2404 23.3846 19.2098 23.8307C18.1793 24.2769 17.0741 24.5 15.8941 24.5ZM16.6729 15.6961L19.423 18.4462C19.5614 18.5846 19.6322 18.7587 19.6354 18.9683C19.6387 19.1779 19.5678 19.3551 19.423 19.5C19.2781 19.6448 19.1025 19.7173 18.896 19.7173C18.6896 19.7173 18.514 19.6448 18.3691 19.5L15.4441 16.575C15.3505 16.4814 15.282 16.3794 15.2384 16.269C15.1948 16.1587 15.173 16.0446 15.173 15.9269V11.75C15.173 11.5375 15.2449 11.3594 15.3887 11.2156C15.5325 11.0719 15.7107 11 15.9233 11C16.1359 11 16.314 11.0719 16.4576 11.2156C16.6012 11.3594 16.6729 11.5375 16.6729 11.75V15.6961Z" fill="white"/>
</svg>
