<svg width="8" height="14" viewBox="0 0 8 14" fill="none" xmlns="http://www.w3.org/2000/svg">
<path d="M6.66019 13.7727L0.194175 7.48309C0.12945 7.41994 0.0810358 7.34719 0.0489322 7.26484C0.0163108 7.183 0 7.09788 0 7.00947C0 6.92106 0.0163108 6.83569 0.0489322 6.75334C0.0810358 6.6715 0.12945 6.59901 0.194175 6.53586L6.66019 0.227334C6.81554 0.075778 6.99676 0 7.20388 0C7.411 0 7.59871 0.082093 7.76699 0.246279C7.92233 0.385205 8 0.558737 8 0.766874C8 0.975517 7.92233 1.15562 7.76699 1.30717L1.90291 7.00947L7.76699 12.7307C7.90939 12.8696 7.98058 13.0401 7.98058 13.2422C7.98058 13.4443 7.90291 13.6211 7.74757 13.7727C7.59223 13.9242 7.411 14 7.20388 14C6.99676 14 6.81554 13.9242 6.66019 13.7727Z" fill="#8C8C8C"/>
</svg>
