<svg width="7" height="12" viewBox="0 0 7 12" fill="none" xmlns="http://www.w3.org/2000/svg">
<path d="M6.45078 0.874609C6.60078 1.02461 6.67578 1.19961 6.67578 1.39961C6.67578 1.59961 6.60078 1.77461 6.45078 1.92461L2.37578 5.99961L6.45078 10.0746C6.60078 10.2246 6.67578 10.3996 6.67578 10.5996C6.67578 10.7996 6.60078 10.9746 6.45078 11.1246C6.30078 11.2746 6.12578 11.3496 5.92578 11.3496C5.72578 11.3496 5.55078 11.2746 5.40078 11.1246L0.900781 6.62461C0.817448 6.54128 0.754781 6.44561 0.712781 6.33761C0.671448 6.22894 0.650781 6.11628 0.650781 5.99961C0.650781 5.88294 0.671448 5.77061 0.712781 5.66261C0.754781 5.55394 0.817448 5.45794 0.900781 5.37461L5.40078 0.874609C5.55078 0.724609 5.72578 0.649609 5.92578 0.649609C6.12578 0.649609 6.30078 0.724609 6.45078 0.874609Z" fill="#262626"/>
</svg>
