<svg width="348" height="434" viewBox="0 0 348 434" fill="none" xmlns="http://www.w3.org/2000/svg">
<g filter="url(#filter0_d_3208_4389)">
<path d="M34 12C34 5.37258 39.3726 0 46 0H302C308.627 0 314 5.37258 314 12V160H34V12Z" fill="#DFF6EE"/>
<rect x="197" y="68" width="30" height="4" rx="2" fill="white"/>
<rect x="197" y="120" width="30" height="4" rx="2" fill="white"/>
<rect x="273" y="120" width="30" height="4" rx="2" fill="white"/>
<rect x="235" y="128" width="30" height="4" rx="2" fill="white"/>
<rect x="159" y="120" width="30" height="4" rx="2" fill="white"/>
<rect x="159" y="128" width="30" height="4" rx="2" fill="white"/>
<rect x="121" y="120" width="30" height="4" rx="2" fill="white"/>
<rect x="83" y="120" width="30" height="4" rx="2" fill="white"/>
<rect x="83" y="128" width="30" height="4" rx="2" fill="white"/>
<rect x="45" y="120" width="30" height="4" rx="2" fill="white"/>
<rect x="45" y="128" width="30" height="4" rx="2" fill="white"/>
<rect x="273" y="68" width="30" height="4" rx="2" fill="white"/>
<rect x="273" y="76" width="30" height="4" rx="2" fill="white"/>
<rect x="235" y="68" width="30" height="4" rx="2" fill="white"/>
<rect x="235" y="120" width="30" height="4" rx="2" fill="white"/>
<rect x="205" y="48" width="14" height="14" rx="4" fill="#7FDCBA"/>
<rect x="243" y="48" width="14" height="14" rx="4" fill="#7FDCBA"/>
<rect x="281" y="48" width="14" height="14" rx="4" fill="#7FDCBA"/>
<rect x="281" y="100" width="14" height="14" rx="4" fill="#7FDCBA"/>
<rect x="243" y="100" width="14" height="14" rx="4" fill="#7FDCBA"/>
<rect x="205" y="100" width="14" height="14" rx="4" fill="#7FDCBA"/>
<rect x="165" y="98" width="18" height="18" rx="6" fill="#31C690"/>
<rect x="129" y="100" width="14" height="14" rx="4" fill="#7FDCBA"/>
<rect x="91" y="100" width="14" height="14" rx="4" fill="#7FDCBA"/>
<rect x="53" y="100" width="14" height="14" rx="4" fill="#7FDCBA"/>
<rect x="204" y="20" width="16" height="12" rx="4" fill="#A7E7D0"/>
<rect x="128" y="20" width="16" height="12" rx="4" fill="#A7E7D0"/>
<rect x="166" y="20" width="16" height="12" rx="4" fill="#A7E7D0"/>
<rect x="90" y="20" width="16" height="12" rx="4" fill="#A7E7D0"/>
<rect x="52" y="20" width="16" height="12" rx="4" fill="#A7E7D0"/>
<rect x="242" y="20" width="16" height="12" rx="4" fill="#A7E7D0"/>
<rect x="280" y="20" width="16" height="12" rx="4" fill="#A7E7D0"/>
<g filter="url(#filter1_d_3208_4389)">
<g filter="url(#filter2_d_3208_4389)">
<path d="M14 172C14 165.373 19.3726 160 26 160H322C328.627 160 334 165.373 334 172V414H14V172Z" fill="white"/>
</g>
<g filter="url(#filter3_d_3208_4389)">
<rect x="14" y="414" width="320" height="12" fill="white"/>
</g>
<rect x="262" y="373" width="52" height="14" rx="4" fill="#7FDCBA"/>
<path d="M47.9995 394C55.7311 394 61.9989 387.732 61.9989 380C61.9989 372.268 55.7311 366 47.9995 366C40.2678 366 34 372.268 34 380C34 387.732 40.2678 394 47.9995 394Z" fill="#F4F4F4"/>
<mask id="mask0_3208_4389" style="mask-type:luminance" maskUnits="userSpaceOnUse" x="34" y="366" width="28" height="28">
<path d="M48.0014 394C55.7331 394 62.0009 387.732 62.0009 380C62.0009 372.268 55.7331 366 48.0014 366C40.2697 366 34.002 372.268 34.002 380C34.002 387.732 40.2697 394 48.0014 394Z" fill="white"/>
</mask>
<g mask="url(#mask0_3208_4389)">
<path d="M58.2442 390.261C60.1143 388.922 61.3378 386.733 61.3378 384.256C61.3378 380.181 58.0352 376.878 53.9601 376.878C51.513 376.878 49.3478 378.068 48.0048 379.902C46.6619 378.068 44.4967 376.878 42.0496 376.878C37.9744 376.878 34.6719 380.181 34.6719 384.256C34.6719 386.733 35.8921 388.922 37.7655 390.261C35.8954 391.601 34.6719 393.789 34.6719 396.266C34.6719 400.342 37.9744 403.644 42.0496 403.644C44.4967 403.644 46.6619 402.454 48.0048 400.62C49.3478 402.454 51.513 403.644 53.9601 403.644C58.0352 403.644 61.3378 400.342 61.3378 396.266C61.3345 393.789 60.1143 391.597 58.2442 390.261Z" fill="url(#paint0_linear_3208_4389)"/>
<path d="M45.3167 384.537C45.9338 384.537 46.4341 384.036 46.4341 383.419C46.4341 382.802 45.9338 382.302 45.3167 382.302C44.6995 382.302 44.1992 382.802 44.1992 383.419C44.1992 384.036 44.6995 384.537 45.3167 384.537Z" fill="#262626"/>
<path d="M50.6838 384.537C51.301 384.537 51.8013 384.036 51.8013 383.419C51.8013 382.802 51.301 382.302 50.6838 382.302C50.0667 382.302 49.5664 382.802 49.5664 383.419C49.5664 384.036 50.0667 384.537 50.6838 384.537Z" fill="#262626"/>
<path d="M48.0028 387.648C49.1693 387.648 50.115 387.157 50.115 386.551C50.115 385.945 49.1693 385.453 48.0028 385.453C46.8363 385.453 45.8906 385.945 45.8906 386.551C45.8906 387.157 46.8363 387.648 48.0028 387.648Z" fill="#FAFAFA"/>
</g>
<rect x="76" y="366" width="48" height="12" rx="4" fill="#CFF2E5"/>
<rect x="76" y="382" width="70" height="12" rx="4" fill="#CFF2E5"/>
<rect x="262" y="309" width="52" height="14" rx="4" fill="#7FDCBA"/>
<path d="M47.9992 330C55.7307 330 61.9984 323.732 61.9984 316C61.9984 308.269 55.7307 302.001 47.9992 302.001C40.2676 302.001 34 308.269 34 316C34 323.732 40.2676 330 47.9992 330Z" fill="#F4F4F4"/>
<mask id="mask1_3208_4389" style="mask-type:luminance" maskUnits="userSpaceOnUse" x="34" y="302" width="28" height="28">
<path d="M48.0011 329.999C55.7327 329.999 62.0003 323.731 62.0003 315.999C62.0003 308.268 55.7327 302 48.0011 302C40.2696 302 34.002 308.268 34.002 315.999C34.002 323.731 40.2696 329.999 48.0011 329.999Z" fill="white"/>
</mask>
<g mask="url(#mask1_3208_4389)">
<path d="M62.3709 324.514C64.6057 323.97 66.5554 322.395 67.4805 320.097C69.0024 316.317 67.1721 312.02 63.3921 310.498C61.1241 309.586 58.6672 309.881 56.7374 311.082C56.177 308.88 54.612 306.967 52.3407 306.052C48.5607 304.53 44.2635 306.36 42.7415 310.14C41.8164 312.438 42.1314 314.925 43.3682 316.865C41.1334 317.408 39.1837 318.983 38.2586 321.281C36.7366 325.061 38.567 329.359 42.3469 330.881C44.6149 331.792 47.0719 331.497 49.0017 330.297C49.5621 332.499 51.1271 334.412 53.3984 335.327C57.1784 336.849 61.4756 335.019 62.9976 331.239C63.9227 328.941 63.6077 326.454 62.3709 324.514Z" fill="url(#paint1_linear_3208_4389)"/>
<path d="M46.092 316.445C45.2663 316.113 44.832 315.254 45.1204 314.531C45.2232 314.276 45.5117 314.153 45.767 314.256C46.0223 314.359 46.145 314.647 46.0422 314.903C45.9693 315.085 46.1218 315.383 46.46 315.519C46.7982 315.655 47.1165 315.546 47.1895 315.364C47.2923 315.108 47.5807 314.986 47.836 315.088C48.0914 315.191 48.214 315.48 48.1113 315.735C47.8261 316.461 46.9176 316.776 46.092 316.445Z" fill="#262626"/>
<path d="M51.0646 318.445C50.239 318.114 49.8046 317.255 50.0931 316.532C50.1959 316.277 50.4843 316.154 50.7397 316.257C50.995 316.36 51.1177 316.648 51.0149 316.904C50.9419 317.086 51.0944 317.384 51.4327 317.52C51.7709 317.656 52.0892 317.547 52.1621 317.365C52.2649 317.109 52.5534 316.987 52.8087 317.089C53.064 317.192 53.1867 317.481 53.0839 317.736C52.7988 318.459 51.8902 318.777 51.0646 318.445Z" fill="#262626"/>
<path fill-rule="evenodd" clip-rule="evenodd" d="M45.971 317.559C45.6825 317.443 45.4205 317.603 45.3774 317.911C45.2083 319.085 45.9477 320.312 47.221 320.822C48.4909 321.333 49.8769 320.962 50.5666 320C50.749 319.748 50.6694 319.449 50.3809 319.333L45.971 317.559Z" fill="#FAFAFA"/>
</g>
<rect x="76" y="302" width="24" height="12" rx="4" fill="#CFF2E5"/>
<rect x="76" y="318" width="80" height="12" rx="4" fill="#CFF2E5"/>
<rect x="254" y="245" width="60" height="14" rx="4" fill="#7FDCBA"/>
<rect x="76" y="238" width="52" height="12" rx="4" fill="#CFF2E5"/>
<rect x="76" y="254" width="64" height="12" rx="4" fill="#CFF2E5"/>
<path d="M47.9995 265.999C55.7311 265.999 61.9989 259.731 61.9989 252C61.9989 244.268 55.7311 238 47.9995 238C40.2678 238 34 244.268 34 252C34 259.731 40.2678 265.999 47.9995 265.999Z" fill="#F4F4F4"/>
<mask id="mask2_3208_4389" style="mask-type:luminance" maskUnits="userSpaceOnUse" x="34" y="238" width="28" height="28">
<path d="M48.0014 266C55.7331 266 62.0009 259.732 62.0009 252C62.0009 244.269 55.7331 238.001 48.0014 238.001C40.2697 238.001 34.002 244.269 34.002 252C34.002 259.732 40.2697 266 48.0014 266Z" fill="white"/>
</mask>
<g mask="url(#mask2_3208_4389)">
<path d="M51.8246 253.954C53.519 252.399 54.4673 250.078 54.1655 247.617C53.6715 243.572 49.9909 240.694 45.9456 241.188C43.5184 241.486 41.5123 242.929 40.4015 244.912C38.8464 243.254 36.5518 242.335 34.1213 242.634C30.076 243.128 27.1978 246.808 27.6919 250.854C27.9936 253.311 29.4692 255.337 31.4885 256.438C29.7941 257.993 28.8458 260.314 29.1476 262.774C29.6416 266.82 33.3222 269.698 37.3675 269.204C39.7947 268.905 41.8008 267.463 42.9116 265.48C44.4667 267.138 46.7613 268.056 49.1918 267.758C53.2371 267.264 56.1152 263.583 55.6212 259.538C55.3228 257.081 53.8439 255.055 51.8246 253.954Z" fill="url(#paint2_linear_3208_4389)"/>
<path d="M42.9124 253.782C43.5295 253.782 44.0298 253.281 44.0298 252.664C44.0298 252.047 43.5295 251.547 42.9124 251.547C42.2952 251.547 41.7949 252.047 41.7949 252.664C41.7949 253.281 42.2952 253.782 42.9124 253.782Z" fill="#262626"/>
<path d="M48.2307 253.132C48.8479 253.132 49.3482 252.632 49.3482 252.015C49.3482 251.398 48.8479 250.897 48.2307 250.897C47.6136 250.897 47.1133 251.398 47.1133 252.015C47.1133 252.632 47.6136 253.132 48.2307 253.132Z" fill="#262626"/>
<path fill-rule="evenodd" clip-rule="evenodd" d="M48.0582 254.081C48.3898 254.041 48.6915 254.276 48.7346 254.608L48.8473 255.53C49.0198 256.932 47.8857 258.225 46.3174 258.418C44.7457 258.61 43.3364 257.629 43.164 256.226L43.0513 255.304C43.0115 254.973 43.2469 254.671 43.5785 254.628L48.0582 254.081Z" fill="#FAFAFA"/>
</g>
<path d="M278.779 190.449V201.043H277.525V195.688H276.354V200.504H275.135V190.648H276.354V194.621H277.525V190.449H278.779ZM270.143 198.406V191.668H271.455V197.258C272.369 197.24 273.365 197.158 274.479 196.941L274.607 198.078C273.178 198.33 271.965 198.406 270.846 198.406H270.143ZM288.928 197.211V201.043H287.627V198.242H281.709V197.211H288.928ZM280.197 193.602C280.197 192.102 281.398 191.023 282.998 191.035C283.871 191.029 284.633 191.357 285.131 191.914H287.627V190.449H288.928V196.707H287.627V195.301H285.143C284.639 195.863 283.877 196.203 282.998 196.203C281.398 196.203 280.197 195.125 280.197 193.602ZM281.439 193.602C281.439 194.521 282.09 195.096 282.998 195.102C283.865 195.096 284.527 194.521 284.533 193.602C284.527 192.717 283.865 192.131 282.998 192.137C282.09 192.131 281.439 192.717 281.439 193.602ZM285.693 194.246H287.627V192.98H285.699C285.746 193.18 285.775 193.385 285.775 193.602C285.775 193.824 285.746 194.041 285.693 194.246ZM302.932 196.812V197.879H298.736V201.055H297.447V197.879H293.275V196.812H302.932ZM293.803 195.137C295.918 194.879 297.307 193.795 297.436 192.734H294.166V191.703H297.447V190.461H298.736V191.703H302.029V192.734H298.76C298.883 193.783 300.266 194.879 302.381 195.137L301.9 196.168C300.148 195.945 298.789 195.178 298.104 194.158C297.412 195.189 296.035 195.945 294.271 196.168L293.803 195.137ZM311.943 190.449V194.586H313.514V195.676H311.943V201.02H310.643V190.449H311.943ZM303.588 198.125C306.166 196.836 307.561 195.043 307.818 192.629H304.162V191.551H309.143C309.137 194.662 307.848 197.398 304.326 199.133L303.588 198.125Z" fill="#259D71"/>
<path d="M38.9531 212.156C36.6953 212.156 35.0312 210.805 34.9688 208.938H36.9531C37.0156 209.852 37.8828 210.508 38.9531 210.516C40.2188 210.508 41.1328 209.594 41.125 208.344C41.1328 207.047 40.1953 206.133 38.8906 206.125C38.0078 206.117 37.3672 206.43 37.0156 207.094H35.125L35.8125 200.688H42.5V202.391H37.4844L37.1406 205.391H37.25C37.6875 204.898 38.5078 204.539 39.4375 204.531C41.5391 204.539 43.1016 206.102 43.0938 208.281C43.1016 210.539 41.3984 212.156 38.9531 212.156ZM56.1875 199.281V207.516H54.4375V206.938H51.7969V205.875H54.4375V199.281H56.1875ZM44.3281 204.375C47.0547 204.375 50.4688 204.352 53.5 204.047L53.5938 205.141C52.3047 205.312 50.9766 205.43 49.6719 205.492V207.531H47.9531V205.562C46.7422 205.594 45.5781 205.602 44.5156 205.594L44.3281 204.375ZM45.3281 201.625C45.3281 200.344 46.7422 199.508 48.8906 199.5C50.9922 199.508 52.4141 200.344 52.4219 201.625C52.4141 202.938 50.9922 203.734 48.8906 203.734C46.7422 203.734 45.3281 202.938 45.3281 201.625ZM46.3906 209.141V207.953H56.1875V211.125H48.1562V212.031H56.5625V213.266H46.4531V209.984H54.4688V209.141H46.3906ZM46.9844 201.625C46.9688 202.219 47.7031 202.586 48.8906 202.578C50.0547 202.586 50.7969 202.219 50.7969 201.625C50.7969 201.031 50.0547 200.648 48.8906 200.656C47.7031 200.648 46.9688 201.031 46.9844 201.625ZM67.0312 200.688V212H64.9844V202.672H64.9219L62.2812 204.359V202.5L65.0781 200.688H67.0312ZM73.8906 212.156C71.3672 212.156 69.5859 210.812 69.5938 208.969C69.5859 207.531 70.6562 206.359 72.0156 206.141V206.078C70.8281 205.828 70.0234 204.797 70.0156 203.562C70.0234 201.812 71.6562 200.531 73.8906 200.531C76.1094 200.531 77.75 201.812 77.75 203.562C77.75 204.805 76.9219 205.828 75.75 206.078V206.141C77.1016 206.359 78.1797 207.531 78.1875 208.969C78.1797 210.812 76.3906 212.156 73.8906 212.156ZM71.6875 208.781C71.6797 209.828 72.5469 210.547 73.8906 210.547C75.2188 210.547 76.0859 209.828 76.0938 208.781C76.0859 207.719 75.1641 206.93 73.8906 206.938C72.6172 206.93 71.6797 207.711 71.6875 208.781ZM72 203.75C72.0078 204.742 72.7891 205.422 73.8906 205.422C74.9766 205.422 75.7656 204.742 75.7656 203.75C75.7656 202.789 75 202.125 73.8906 202.125C72.7578 202.125 72.0078 202.789 72 203.75ZM83.4062 199.719C85.5469 199.727 87.1406 201.047 87.1562 202.906C87.1406 204.773 85.5469 206.086 83.4062 206.094C81.25 206.086 79.6562 204.773 79.6562 202.906C79.6562 201.047 81.25 199.727 83.4062 199.719ZM81.3438 202.906C81.3438 204 82.2188 204.688 83.4062 204.688C84.5938 204.688 85.4609 204 85.4688 202.906C85.4609 201.836 84.5938 201.148 83.4062 201.156C82.2188 201.148 81.3438 201.836 81.3438 202.906ZM81.7969 208.375V207.016H91.1719V210.703H83.5312V211.844H91.5938V213.219H81.8281V209.422H89.4375V208.375H81.7969ZM89.4219 206.406V199.266H91.1719V206.406H89.4219Z" fill="#0D0D0D"/>
<path d="M34.8203 192V190.715L38.3203 187.338C39.3184 186.34 39.8379 185.752 39.8379 184.918C39.8379 183.995 39.1064 183.414 38.1426 183.414C37.124 183.414 36.4678 184.05 36.4746 185.055H34.7793C34.7725 183.182 36.1807 181.965 38.1562 181.965C40.1797 181.965 41.54 183.175 41.5469 184.836C41.54 185.95 41.0068 186.853 39.0586 188.691L37.2949 190.441V190.51H41.6973V192H34.8203ZM46.9062 192.137C44.5205 192.137 43.0986 190.291 43.1055 187.051C43.0986 183.824 44.5342 181.965 46.9062 181.965C49.2783 181.965 50.707 183.824 50.707 187.051C50.707 190.298 49.2852 192.137 46.9062 192.137ZM44.8965 187.051C44.8965 189.43 45.6621 190.64 46.9062 190.646C48.1436 190.64 48.916 189.43 48.916 187.051C48.9092 184.692 48.1436 183.448 46.9062 183.441C45.6689 183.448 44.9033 184.692 44.8965 187.051ZM52.1973 192V190.715L55.6973 187.338C56.6953 186.34 57.2148 185.752 57.2148 184.918C57.2148 183.995 56.4834 183.414 55.5195 183.414C54.501 183.414 53.8447 184.05 53.8516 185.055H52.1562C52.1494 183.182 53.5576 181.965 55.5332 181.965C57.5566 181.965 58.917 183.175 58.9238 184.836C58.917 185.95 58.3838 186.853 56.4355 188.691L54.6719 190.441V190.51H59.0742V192H52.1973ZM64.2285 192.137C62.1162 192.137 60.6055 190.988 60.5645 189.32H62.3555C62.4033 190.113 63.1963 190.64 64.2285 190.633C65.3154 190.64 66.1016 190.038 66.1016 189.156C66.1016 188.268 65.3359 187.632 64.0508 187.625H63.1621V186.258H64.0508C65.1035 186.258 65.835 185.67 65.8281 184.809C65.835 183.975 65.2061 183.414 64.2422 183.414C63.3125 183.414 62.5127 183.934 62.4785 184.768H60.7695C60.8105 183.106 62.3213 181.965 64.2559 181.965C66.2656 181.965 67.5645 183.195 67.5508 184.713C67.5645 185.82 66.8262 186.62 65.7461 186.846V186.928C67.1406 187.112 67.9336 188.008 67.9199 189.252C67.9336 190.927 66.3682 192.137 64.2285 192.137ZM79.418 180.871V189.977H77.9004V185.861H74.6738V184.658H77.9004V183.537H74.6738V182.334H77.9004V180.871H79.418ZM69.7793 188.295V181.691H71.2832V187.037C72.8555 187.017 74.3457 186.921 76 186.627L76.1504 187.857C74.25 188.22 72.582 188.288 70.75 188.295H69.7793ZM71.2969 192.971V189.17H72.8281V191.74H79.7324V192.971H71.2969Z" fill="#8C8C8C"/>
</g>
</g>
<defs>
<filter id="filter0_d_3208_4389" x="10" y="0" width="328" height="434" filterUnits="userSpaceOnUse" color-interpolation-filters="sRGB">
<feFlood flood-opacity="0" result="BackgroundImageFix"/>
<feColorMatrix in="SourceAlpha" type="matrix" values="0 0 0 0 0 0 0 0 0 0 0 0 0 0 0 0 0 0 127 0" result="hardAlpha"/>
<feOffset dy="4"/>
<feGaussianBlur stdDeviation="2"/>
<feComposite in2="hardAlpha" operator="out"/>
<feColorMatrix type="matrix" values="0 0 0 0 0 0 0 0 0 0 0 0 0 0 0 0 0 0 0.25 0"/>
<feBlend mode="normal" in2="BackgroundImageFix" result="effect1_dropShadow_3208_4389"/>
<feBlend mode="normal" in="SourceGraphic" in2="effect1_dropShadow_3208_4389" result="shape"/>
</filter>
<filter id="filter1_d_3208_4389" x="10" y="160" width="328" height="274" filterUnits="userSpaceOnUse" color-interpolation-filters="sRGB">
<feFlood flood-opacity="0" result="BackgroundImageFix"/>
<feColorMatrix in="SourceAlpha" type="matrix" values="0 0 0 0 0 0 0 0 0 0 0 0 0 0 0 0 0 0 127 0" result="hardAlpha"/>
<feOffset dy="4"/>
<feGaussianBlur stdDeviation="2"/>
<feComposite in2="hardAlpha" operator="out"/>
<feColorMatrix type="matrix" values="0 0 0 0 0 0 0 0 0 0 0 0 0 0 0 0 0 0 0.25 0"/>
<feBlend mode="normal" in2="BackgroundImageFix" result="effect1_dropShadow_3208_4389"/>
<feBlend mode="normal" in="SourceGraphic" in2="effect1_dropShadow_3208_4389" result="shape"/>
</filter>
<filter id="filter2_d_3208_4389" x="0" y="146" width="348" height="282" filterUnits="userSpaceOnUse" color-interpolation-filters="sRGB">
<feFlood flood-opacity="0" result="BackgroundImageFix"/>
<feColorMatrix in="SourceAlpha" type="matrix" values="0 0 0 0 0 0 0 0 0 0 0 0 0 0 0 0 0 0 127 0" result="hardAlpha"/>
<feMorphology radius="2" operator="dilate" in="SourceAlpha" result="effect1_dropShadow_3208_4389"/>
<feOffset/>
<feGaussianBlur stdDeviation="6"/>
<feComposite in2="hardAlpha" operator="out"/>
<feColorMatrix type="matrix" values="0 0 0 0 0 0 0 0 0 0 0 0 0 0 0 0 0 0 0.05 0"/>
<feBlend mode="normal" in2="BackgroundImageFix" result="effect1_dropShadow_3208_4389"/>
<feBlend mode="normal" in="SourceGraphic" in2="effect1_dropShadow_3208_4389" result="shape"/>
</filter>
<filter id="filter3_d_3208_4389" x="10" y="414" width="328" height="20" filterUnits="userSpaceOnUse" color-interpolation-filters="sRGB">
<feFlood flood-opacity="0" result="BackgroundImageFix"/>
<feColorMatrix in="SourceAlpha" type="matrix" values="0 0 0 0 0 0 0 0 0 0 0 0 0 0 0 0 0 0 127 0" result="hardAlpha"/>
<feOffset dy="4"/>
<feGaussianBlur stdDeviation="2"/>
<feComposite in2="hardAlpha" operator="out"/>
<feColorMatrix type="matrix" values="0 0 0 0 0 0 0 0 0 0 0 0 0 0 0 0 0 0 0.25 0"/>
<feBlend mode="normal" in2="BackgroundImageFix" result="effect1_dropShadow_3208_4389"/>
<feBlend mode="normal" in="SourceGraphic" in2="effect1_dropShadow_3208_4389" result="shape"/>
</filter>
<linearGradient id="paint0_linear_3208_4389" x1="59.1988" y1="401.457" x2="37.6496" y2="379.909" gradientUnits="userSpaceOnUse">
<stop offset="2.77045e-07" stop-color="#31C690"/>
<stop offset="1" stop-color="#A7E7D0"/>
</linearGradient>
<linearGradient id="paint1_linear_3208_4389" x1="65.5864" y1="333.383" x2="41.1542" y2="308.904" gradientUnits="userSpaceOnUse">
<stop offset="2.77045e-07" stop-color="#31C690"/>
<stop offset="1" stop-color="#A7E7D0"/>
</linearGradient>
<linearGradient id="paint2_linear_3208_4389" x1="53.4271" y1="266.961" x2="30.7834" y2="244.302" gradientUnits="userSpaceOnUse">
<stop offset="2.77045e-07" stop-color="#31C690"/>
<stop offset="1" stop-color="#A7E7D0"/>
</linearGradient>
</defs>
</svg>
