<svg width="24" height="24" viewBox="0 0 24 24" fill="none" xmlns="http://www.w3.org/2000/svg">
<path d="M9.66826 16.0625C9.28941 16.0625 8.96874 15.9313 8.70625 15.6688C8.44375 15.4063 8.3125 15.0856 8.3125 14.7067V6.16828C8.3125 5.78943 8.44375 5.46875 8.70625 5.20625C8.96874 4.94375 9.28941 4.8125 9.66826 4.8125H15.9567C16.3356 4.8125 16.6562 4.94375 16.9187 5.20625C17.1812 5.46875 17.3125 5.78943 17.3125 6.16828V14.7067C17.3125 15.0856 17.1812 15.4063 16.9187 15.6688C16.6562 15.9313 16.3356 16.0625 15.9567 16.0625H9.66826ZM7.04327 18.6875C6.66443 18.6875 6.34375 18.5562 6.08125 18.2937C5.81875 18.0312 5.6875 17.7106 5.6875 17.3317V8.23077C5.6875 8.07116 5.74134 7.93751 5.84903 7.82982C5.95673 7.72214 6.09038 7.66829 6.24999 7.66829C6.4096 7.66829 6.54326 7.72214 6.65096 7.82982C6.75864 7.93751 6.81249 8.07116 6.81249 8.23077V17.3317C6.81249 17.3894 6.83653 17.4423 6.8846 17.4904C6.93269 17.5385 6.98558 17.5625 7.04327 17.5625H13.8942C14.0538 17.5625 14.1875 17.6164 14.2952 17.7241C14.4029 17.8318 14.4567 17.9654 14.4567 18.125C14.4567 18.2846 14.4029 18.4183 14.2952 18.526C14.1875 18.6337 14.0538 18.6875 13.8942 18.6875H7.04327Z" fill="#BFBFBF"/>
</svg>
