<svg width="24" height="24" viewBox="0 0 24 24" fill="none" xmlns="http://www.w3.org/2000/svg">
<g id="icon_repeat">
<path id="icon" d="M12.0484 19.75C9.88177 19.75 8.0401 18.996 6.52344 17.488C5.00677 15.9793 4.24844 14.15 4.24844 12V11.225L2.92344 12.55C2.77344 12.6833 2.59844 12.75 2.39844 12.75C2.19844 12.75 2.02344 12.6833 1.87344 12.55C1.72344 12.4 1.64844 12.2207 1.64844 12.012C1.64844 11.804 1.72344 11.6333 1.87344 11.5L4.37344 9C4.45677 8.9 4.55244 8.83333 4.66044 8.8C4.7691 8.76667 4.88177 8.75 4.99844 8.75C5.1151 8.75 5.22777 8.76667 5.33644 8.8C5.44444 8.83333 5.5401 8.9 5.62344 9L8.12344 11.5C8.27344 11.6333 8.34844 11.804 8.34844 12.012C8.34844 12.2207 8.27344 12.4 8.12344 12.55C7.97344 12.6833 7.79844 12.75 7.59844 12.75C7.39844 12.75 7.22344 12.6833 7.07344 12.55L5.74844 11.225V12C5.74844 13.7333 6.3611 15.2083 7.58644 16.425C8.8111 17.6417 10.2984 18.25 12.0484 18.25C12.3818 18.25 12.7191 18.221 13.0604 18.163C13.4024 18.1043 13.7401 18.0167 14.0734 17.9C14.1901 17.8333 14.3234 17.8167 14.4734 17.85C14.6234 17.8833 14.7401 17.95 14.8234 18.05C15.0568 18.2667 15.1484 18.504 15.0984 18.762C15.0484 19.0207 14.8818 19.2 14.5984 19.3C14.1818 19.4333 13.7611 19.5417 13.3364 19.625C12.9111 19.7083 12.4818 19.75 12.0484 19.75ZM18.9984 15.25C18.8818 15.25 18.7694 15.2333 18.6614 15.2C18.5528 15.1667 18.4568 15.1 18.3734 15L15.8734 12.5C15.7234 12.3667 15.6484 12.1957 15.6484 11.987C15.6484 11.779 15.7234 11.6 15.8734 11.45C16.0234 11.3167 16.1984 11.25 16.3984 11.25C16.5984 11.25 16.7734 11.3167 16.9234 11.45L18.2484 12.775V12C18.2484 10.2667 17.6361 8.79167 16.4114 7.575C15.1861 6.35833 13.6984 5.75 11.9484 5.75C11.6151 5.75 11.2778 5.77933 10.9364 5.838C10.5944 5.896 10.2568 5.98333 9.92344 6.1C9.80677 6.16667 9.67344 6.18333 9.52344 6.15C9.37344 6.11667 9.25677 6.05 9.17344 5.95C8.9401 5.73333 8.84844 5.49567 8.89844 5.237C8.94844 4.979 9.1151 4.8 9.39844 4.7C9.8151 4.56667 10.2361 4.45833 10.6614 4.375C11.0861 4.29167 11.5151 4.25 11.9484 4.25C14.1151 4.25 15.9568 5.004 17.4734 6.512C18.9901 8.02067 19.7484 9.85 19.7484 12V12.775L21.0734 11.45C21.2234 11.3167 21.3984 11.25 21.5984 11.25C21.7984 11.25 21.9734 11.3167 22.1234 11.45C22.2734 11.6 22.3484 11.779 22.3484 11.987C22.3484 12.1957 22.2734 12.3667 22.1234 12.5L19.6234 15C19.5401 15.1 19.4441 15.1667 19.3354 15.2C19.2274 15.2333 19.1151 15.25 18.9984 15.25Z" fill="#262626"/>
</g>
</svg>
