<svg width="34" height="34" viewBox="0 0 34 34" fill="none" xmlns="http://www.w3.org/2000/svg">
<circle cx="17" cy="17" r="16.5" fill="#D9D9D9" stroke="#F1F1F1"/>
<path d="M16.8794 16.6506C15.814 16.6506 14.9047 16.274 14.1516 15.5209C13.3985 14.7678 13.0219 13.8585 13.0219 12.7931C13.0219 11.7277 13.3985 10.8184 14.1516 10.0653C14.9047 9.31212 15.814 8.93555 16.8794 8.93555C17.9448 8.93555 18.8541 9.31212 19.6072 10.0653C20.3604 10.8184 20.7369 11.7277 20.7369 12.7931C20.7369 13.8585 20.3604 14.7678 19.6072 15.5209C18.8541 16.274 17.9448 16.6506 16.8794 16.6506ZM10.2941 25.0269C9.81646 25.0269 9.41712 24.8664 9.09602 24.5453C8.7742 24.2235 8.61328 23.8329 8.61328 23.3737V22.5747C8.61328 22.042 8.76023 21.546 9.05414 21.0868C9.34805 20.6275 9.74299 20.2693 10.239 20.0122C11.3227 19.4795 12.4205 19.0797 13.5322 18.813C14.6431 18.547 15.7589 18.414 16.8794 18.414C17.9999 18.414 19.116 18.547 20.2277 18.813C21.3387 19.0797 22.4361 19.4795 23.5199 20.0122C24.0158 20.2693 24.4108 20.6275 24.7047 21.0868C24.9986 21.546 25.1455 22.042 25.1455 22.5747V23.3737C25.1455 23.8329 24.9846 24.2235 24.6628 24.5453C24.3417 24.8664 23.9424 25.0269 23.4648 25.0269H10.2941Z" fill="white"/>
</svg>
