<svg width="16" height="16" viewBox="0 0 16 16" fill="none" xmlns="http://www.w3.org/2000/svg">
<path d="M4.58405 6.3668C4.68405 6.2668 4.80072 6.2168 4.93405 6.2168C5.06738 6.2168 5.18405 6.2668 5.28405 6.3668L8.00072 9.08346L10.7174 6.3668C10.8174 6.2668 10.934 6.2168 11.0674 6.2168C11.2007 6.2168 11.3174 6.2668 11.4174 6.3668C11.5174 6.4668 11.5674 6.58346 11.5674 6.7168C11.5674 6.85013 11.5174 6.9668 11.4174 7.0668L8.41738 10.0668C8.36183 10.1224 8.29805 10.1641 8.22605 10.1921C8.15361 10.2197 8.07849 10.2335 8.00072 10.2335C7.92294 10.2335 7.84805 10.2197 7.77605 10.1921C7.7036 10.1641 7.6396 10.1224 7.58405 10.0668L4.58405 7.0668C4.48405 6.9668 4.43405 6.85013 4.43405 6.7168C4.43405 6.58346 4.48405 6.4668 4.58405 6.3668Z" fill="#717171"/>
</svg>
