<svg width="24" height="24" viewBox="0 0 24 24" fill="none" xmlns="http://www.w3.org/2000/svg">
<mask id="mask0_649_5601" style="mask-type:alpha" maskUnits="userSpaceOnUse" x="0" y="0" width="24" height="24">
<rect width="24" height="24" fill="#D9D9D9"/>
</mask>
<g mask="url(#mask0_649_5601)">
<path d="M7 9.05H10.5C10.6667 9.05 10.8083 8.99167 10.925 8.875C11.0417 8.75833 11.1 8.61667 11.1 8.45C11.1 8.28333 11.0417 8.14167 10.925 8.025C10.8083 7.90833 10.6667 7.85 10.5 7.85H7C6.83333 7.85 6.69167 7.90833 6.575 8.025C6.45833 8.14167 6.4 8.28333 6.4 8.45C6.4 8.61667 6.45833 8.75833 6.575 8.875C6.69167 8.99167 6.83333 9.05 7 9.05ZM13.75 17.1H17.25C17.4167 17.1 17.5583 17.0417 17.675 16.925C17.7917 16.8083 17.85 16.6667 17.85 16.5C17.85 16.3333 17.7917 16.1917 17.675 16.075C17.5583 15.9583 17.4167 15.9 17.25 15.9H13.75C13.5833 15.9 13.4417 15.9583 13.325 16.075C13.2083 16.1917 13.15 16.3333 13.15 16.5C13.15 16.6667 13.2083 16.8083 13.325 16.925C13.4417 17.0417 13.5833 17.1 13.75 17.1ZM13.75 14.6H17.25C17.4167 14.6 17.5583 14.5417 17.675 14.425C17.7917 14.3083 17.85 14.1667 17.85 14C17.85 13.8333 17.7917 13.6917 17.675 13.575C17.5583 13.4583 17.4167 13.4 17.25 13.4H13.75C13.5833 13.4 13.4417 13.4583 13.325 13.575C13.2083 13.6917 13.15 13.8333 13.15 14C13.15 14.1667 13.2083 14.3083 13.325 14.425C13.4417 14.5417 13.5833 14.6 13.75 14.6ZM8.75 17.85C8.91667 17.85 9.05833 17.7917 9.175 17.675C9.29167 17.5583 9.35 17.4167 9.35 17.25V15.85H10.75C10.9167 15.85 11.0583 15.7917 11.175 15.675C11.2917 15.5583 11.35 15.4167 11.35 15.25C11.35 15.0833 11.2917 14.9417 11.175 14.825C11.0583 14.7083 10.9167 14.65 10.75 14.65H9.35V13.25C9.35 13.0833 9.29167 12.9417 9.175 12.825C9.05833 12.7083 8.91667 12.65 8.75 12.65C8.58333 12.65 8.44167 12.7083 8.325 12.825C8.20833 12.9417 8.15 13.0833 8.15 13.25V14.65H6.75C6.58333 14.65 6.44167 14.7083 6.325 14.825C6.20833 14.9417 6.15 15.0833 6.15 15.25C6.15 15.4167 6.20833 15.5583 6.325 15.675C6.44167 15.7917 6.58333 15.85 6.75 15.85H8.15V17.25C8.15 17.4167 8.20833 17.5583 8.325 17.675C8.44167 17.7917 8.58333 17.85 8.75 17.85ZM13.675 10.3C13.8083 10.4167 13.95 10.475 14.1 10.475C14.25 10.475 14.3917 10.4167 14.525 10.3L15.5 9.325L16.5 10.325C16.6167 10.425 16.75 10.475 16.9 10.475C17.05 10.475 17.1917 10.4167 17.325 10.3C17.4417 10.1833 17.5 10.0457 17.5 9.887C17.5 9.729 17.4417 9.58333 17.325 9.45L16.35 8.45L17.35 7.45C17.45 7.33333 17.5 7.2 17.5 7.05C17.5 6.9 17.4417 6.75833 17.325 6.625C17.1917 6.50833 17.05 6.45 16.9 6.45C16.75 6.45 16.6083 6.50833 16.475 6.625L15.5 7.6L14.5 6.6C14.3833 6.5 14.25 6.45 14.1 6.45C13.95 6.45 13.8083 6.50833 13.675 6.625C13.5583 6.75833 13.5 6.9 13.5 7.05C13.5 7.2 13.5583 7.34167 13.675 7.475L14.65 8.45L13.65 9.475C13.55 9.59167 13.5 9.729 13.5 9.887C13.5 10.0457 13.5583 10.1833 13.675 10.3ZM5.3 20.5C4.8 20.5 4.375 20.325 4.025 19.975C3.675 19.625 3.5 19.2 3.5 18.7V5.3C3.5 4.8 3.675 4.375 4.025 4.025C4.375 3.675 4.8 3.5 5.3 3.5H18.7C19.2 3.5 19.625 3.675 19.975 4.025C20.325 4.375 20.5 4.8 20.5 5.3V18.7C20.5 19.2 20.325 19.625 19.975 19.975C19.625 20.325 19.2 20.5 18.7 20.5H5.3ZM5.3 19H18.7C18.7667 19 18.8333 18.9667 18.9 18.9C18.9667 18.8333 19 18.7667 19 18.7V5.3C19 5.23333 18.9667 5.16667 18.9 5.1C18.8333 5.03333 18.7667 5 18.7 5H5.3C5.23333 5 5.16667 5.03333 5.1 5.1C5.03333 5.16667 5 5.23333 5 5.3V18.7C5 18.7667 5.03333 18.8333 5.1 18.9C5.16667 18.9667 5.23333 19 5.3 19Z" fill="#A6A6A6"/>
</g>
</svg>
