<svg width="36" height="36" viewBox="0 0 36 36" fill="none" xmlns="http://www.w3.org/2000/svg">
<path d="M18 36C27.9411 36 36 27.9411 36 18C36 8.05888 27.9411 0 18 0C8.05888 0 0 8.05888 0 18C0 27.9411 8.05888 36 18 36Z" fill="#F4F4F4"/>
<mask id="mask0_1373_2677" style="mask-type:luminance" maskUnits="userSpaceOnUse" x="0" y="0" width="36" height="36">
<path d="M18 36C27.9411 36 36 27.9411 36 18C36 8.05888 27.9411 0 18 0C8.05888 0 0 8.05888 0 18C0 27.9411 8.05888 36 18 36Z" fill="white"/>
</mask>
<g mask="url(#mask0_1373_2677)">
<path d="M31.1687 31.1875C33.5733 29.4651 35.1465 26.6512 35.1465 23.4665C35.1465 18.2268 30.9001 13.9805 25.6604 13.9805C22.5141 13.9805 19.7301 15.511 18.0034 17.8687C16.2767 15.511 13.4928 13.9805 10.3464 13.9805C5.10668 13.9805 0.860352 18.2268 0.860352 23.4665C0.860352 26.6512 2.42928 29.4651 4.83809 31.1875C2.43354 32.9099 0.860352 35.7237 0.860352 38.9085C0.860352 44.1482 5.10668 48.3945 10.3464 48.3945C13.4928 48.3945 16.2767 46.8639 18.0034 44.5063C19.7301 46.8639 22.5141 48.3945 25.6604 48.3945C30.9001 48.3945 35.1465 44.1482 35.1465 38.9085C35.1422 35.7237 33.5733 32.9099 31.1687 31.1875Z" fill="url(#paint0_linear_1373_2677)"/>
<path d="M17.4323 25.1411L16.5668 26.3903C16.4517 26.5566 16.5966 26.7612 16.8226 26.7612H19.1717C19.4019 26.7612 19.5426 26.5566 19.4275 26.3903L18.5621 25.1411C18.2935 24.7446 17.7051 24.7446 17.4323 25.1411L16.5668 26.3903C16.4517 26.5566 16.5966 26.7612 16.8226 26.7612H19.1717C19.4019 26.7612 19.5426 26.5566 19.4275 26.3903L18.5621 25.1411C18.2935 24.7446 17.7051 24.7446 17.4323 25.1411Z" fill="#FAFAFA"/>
<path d="M14.55 24.313C15.3435 24.313 15.9868 23.6697 15.9868 22.8762C15.9868 22.0827 15.3435 21.4395 14.55 21.4395C13.7565 21.4395 13.1133 22.0827 13.1133 22.8762C13.1133 23.6697 13.7565 24.313 14.55 24.313Z" fill="#262626"/>
<path d="M21.4485 24.313C22.242 24.313 22.8852 23.6697 22.8852 22.8762C22.8852 22.0827 22.242 21.4395 21.4485 21.4395C20.655 21.4395 20.0117 22.0827 20.0117 22.8762C20.0117 23.6697 20.655 24.313 21.4485 24.313Z" fill="#262626"/>
</g>
<defs>
<linearGradient id="paint0_linear_1373_2677" x1="32.3962" y1="45.5847" x2="4.69006" y2="17.8785" gradientUnits="userSpaceOnUse">
<stop stop-color="#0060E6"/>
<stop offset="1" stop-color="#CCE1FF"/>
</linearGradient>
</defs>
</svg>
