<svg width="36" height="36" viewBox="0 0 36 36" fill="none" xmlns="http://www.w3.org/2000/svg">
<path d="M18 36C27.9411 36 36 27.9411 36 18C36 8.05888 27.9411 0 18 0C8.05888 0 0 8.05888 0 18C0 27.9411 8.05888 36 18 36Z" fill="#F4F4F4"/>
<mask id="mask0_1373_2690" style="mask-type:luminance" maskUnits="userSpaceOnUse" x="0" y="0" width="36" height="36">
<path d="M18 36C27.9411 36 36 27.9411 36 18C36 8.05888 27.9411 0 18 0C8.05888 0 0 8.05888 0 18C0 27.9411 8.05888 36 18 36Z" fill="white"/>
</mask>
<g mask="url(#mask0_1373_2690)">
<path d="M23.8408 16.2246C26.6035 15.1716 28.8375 12.848 29.6476 9.76988C30.9777 4.70072 27.9507 -0.483559 22.8816 -1.81373C19.8375 -2.61099 16.7551 -1.83931 14.487 0.00247049C13.4169 -2.71757 11.1104 -4.90468 8.06633 -5.70619C2.99717 -7.03637 -2.1871 -4.00937 -3.51728 1.05979C-4.32732 4.13796 -3.52154 7.25875 -1.63287 9.5354C-4.39554 10.5885 -6.62955 12.912 -7.43959 15.9902C-8.76977 21.0593 -5.74277 26.2436 -0.673604 27.5738C2.37045 28.371 5.45288 27.5993 7.721 25.7576C8.79111 28.4776 11.0976 30.6647 14.1416 31.4662C19.2108 32.7964 24.3951 29.7694 25.7253 24.7002C26.5353 21.6221 25.7338 18.5013 23.8408 16.2246Z" fill="url(#paint0_linear_1373_2690)"/>
<path d="M16.2782 15.8801L17.4336 14.891C17.5871 14.7589 17.5018 14.5244 17.2801 14.4647L15.0078 13.8678C14.7861 13.8081 14.5942 13.9744 14.6624 14.162L15.1826 15.5902C15.3488 16.0464 15.9159 16.1956 16.2782 15.8801L17.4336 14.891C17.5871 14.7589 17.5018 14.5244 17.2801 14.4647L15.0078 13.8678C14.7861 13.8081 14.5942 13.9744 14.6624 14.162L15.1826 15.5902C15.3488 16.0464 15.9159 16.1956 16.2782 15.8801Z" fill="#FAFAFA"/>
<path d="M13.1159 12.1292C12.0074 11.8393 11.3167 10.8161 11.5683 9.8483C11.6578 9.50723 12.0074 9.30259 12.3485 9.39212C12.6896 9.48165 12.8942 9.83125 12.8047 10.1723C12.7407 10.4153 12.9837 10.7735 13.4399 10.8928C13.8961 11.0122 14.2841 10.8204 14.348 10.5773C14.4375 10.2363 14.7871 10.0316 15.1282 10.1212C15.4693 10.2107 15.6739 10.5603 15.5844 10.9014C15.3329 11.8691 14.2244 12.4191 13.1159 12.1292Z" fill="#262626"/>
<path d="M19.7829 13.8792C18.6744 13.5893 17.9837 12.5661 18.2353 11.5983C18.3248 11.2572 18.6744 11.0526 19.0155 11.1421C19.3566 11.2317 19.5612 11.5812 19.4717 11.9223C19.4077 12.1653 19.6507 12.5235 20.1069 12.6428C20.5631 12.7622 20.9511 12.5704 21.015 12.3273C21.1045 11.9863 21.4541 11.7816 21.7952 11.8712C22.1363 11.9607 22.3409 12.3103 22.2514 12.6514C21.9998 13.6192 20.8914 14.1691 19.7829 13.8792Z" fill="#262626"/>
</g>
<defs>
<linearGradient id="paint0_linear_1373_2690" x1="21.3778" y1="30.4605" x2="1.6178" y2="-3.37422" gradientUnits="userSpaceOnUse">
<stop offset="2.77045e-07" stop-color="#31C690"/>
<stop offset="1" stop-color="#A7E7D0"/>
</linearGradient>
</defs>
</svg>
