<svg width="24" height="24" viewBox="0 0 24 24" fill="none" xmlns="http://www.w3.org/2000/svg">
<mask id="mask0_682_6422" style="mask-type:alpha" maskUnits="userSpaceOnUse" x="0" y="0" width="24" height="24">
<rect width="24" height="24" fill="#D9D9D9"/>
</mask>
<g mask="url(#mask0_682_6422)">
<path d="M3.57578 20.75C3.32578 20.75 3.11345 20.6627 2.93878 20.488C2.76345 20.3127 2.67578 20.1 2.67578 19.85V10.15C2.67578 9.9 2.76345 9.68733 2.93878 9.512C3.11345 9.33733 3.32578 9.25 3.57578 9.25H6.77578C7.02578 9.25 7.23845 9.33733 7.41378 9.512C7.58845 9.68733 7.67578 9.9 7.67578 10.15V19.85C7.67578 20.1 7.58845 20.3127 7.41378 20.488C7.23845 20.6627 7.02578 20.75 6.77578 20.75H3.57578ZM10.4008 20.75C10.1508 20.75 9.93811 20.6627 9.76278 20.488C9.58811 20.3127 9.50078 20.1 9.50078 19.85V4.15C9.50078 3.9 9.58811 3.68733 9.76278 3.512C9.93811 3.33733 10.1508 3.25 10.4008 3.25H13.6008C13.8508 3.25 14.0634 3.33733 14.2388 3.512C14.4134 3.68733 14.5008 3.9 14.5008 4.15V19.85C14.5008 20.1 14.4134 20.3127 14.2388 20.488C14.0634 20.6627 13.8508 20.75 13.6008 20.75H10.4008ZM17.2008 20.75C16.9508 20.75 16.7381 20.6627 16.5628 20.488C16.3881 20.3127 16.3008 20.1 16.3008 19.85V12.15C16.3008 11.9 16.3881 11.6873 16.5628 11.512C16.7381 11.3373 16.9508 11.25 17.2008 11.25H20.4008C20.6674 11.25 20.8841 11.3373 21.0508 11.512C21.2174 11.6873 21.3008 11.9 21.3008 12.15V19.85C21.3008 20.1 21.2174 20.3127 21.0508 20.488C20.8841 20.6627 20.6674 20.75 20.4008 20.75H17.2008Z" fill="#262626"/>
</g>
</svg>
