<svg width="32" height="32" viewBox="0 0 32 32" fill="none" xmlns="http://www.w3.org/2000/svg">
<circle cx="16" cy="16" r="15.5" fill="#9B8BFF" stroke="#F1F1F1"/>
<path d="M16.1502 20.3423C16.7194 20.3423 17.2303 20.2003 17.6829 19.9163C18.1355 19.6324 18.3617 19.1769 18.3617 18.55C18.3617 18.0282 18.1672 17.6125 17.7781 17.3029C17.389 16.9932 16.663 16.6436 15.6002 16.2538C14.572 15.8846 13.8303 15.4711 13.3752 15.0134C12.9201 14.5557 12.6925 13.9513 12.6925 13.2C12.6925 12.5551 12.9252 11.9647 13.3906 11.4288C13.856 10.8929 14.5066 10.5513 15.3425 10.4038V9.87498C15.3425 9.69293 15.4108 9.53363 15.5473 9.3971C15.6839 9.26057 15.8431 9.1923 16.0252 9.1923C16.2072 9.1923 16.3665 9.26057 16.5031 9.3971C16.6396 9.53363 16.7079 9.69293 16.7079 9.87498V10.4038C17.1784 10.4372 17.6162 10.59 18.0213 10.8625C18.4265 11.1349 18.7572 11.4731 19.0136 11.8769C19.1047 12.0154 19.113 12.1631 19.0386 12.3202C18.9643 12.4772 18.8393 12.5878 18.6636 12.6519C18.4983 12.716 18.3313 12.7243 18.1627 12.6769C17.9941 12.6294 17.856 12.5333 17.7483 12.3884C17.556 12.1564 17.3204 11.9682 17.0415 11.824C16.7627 11.6798 16.4322 11.6077 16.0502 11.6077C15.4284 11.6077 14.9409 11.7551 14.5877 12.05C14.2345 12.3448 14.0579 12.7282 14.0579 13.2C14.0579 13.6718 14.2303 14.0391 14.5752 14.3019C14.92 14.5647 15.6181 14.8756 16.6694 15.2346C17.8694 15.6679 18.6758 16.1538 19.0886 16.6923C19.5015 17.2308 19.7079 17.85 19.7079 18.55C19.7079 19.0269 19.6197 19.4455 19.4434 19.8058C19.2672 20.166 19.0367 20.4689 18.7521 20.7144C18.4675 20.9599 18.1434 21.1538 17.78 21.2961C17.4165 21.4384 17.0425 21.5384 16.6579 21.5961V22.125C16.6579 22.307 16.5896 22.4663 16.4531 22.6029C16.3165 22.7394 16.1572 22.8077 15.9752 22.8077C15.7931 22.8077 15.6339 22.7394 15.4973 22.6029C15.3608 22.4663 15.2925 22.307 15.2925 22.125V21.5461C14.6784 21.4128 14.1464 21.174 13.6964 20.8298C13.2464 20.4855 12.8816 20.0365 12.6021 19.4827C12.5214 19.307 12.5207 19.1333 12.6002 18.9615C12.6797 18.7897 12.8073 18.6718 12.9829 18.6077C13.1483 18.5436 13.3169 18.5445 13.4886 18.6106C13.6604 18.6766 13.7919 18.7872 13.8829 18.9423C14.1419 19.4013 14.4665 19.7493 14.8569 19.9865C15.2473 20.2237 15.6784 20.3423 16.1502 20.3423ZM16.0002 26.5C14.0502 26.5 12.2806 26.0173 10.6915 25.0519C9.10242 24.0865 7.85596 22.7929 6.95212 21.1711V23.4038C6.95212 23.6166 6.88033 23.7948 6.73675 23.9384C6.59315 24.082 6.41494 24.1538 6.20212 24.1538C5.98932 24.1538 5.81112 24.082 5.66752 23.9384C5.52394 23.7948 5.45215 23.6166 5.45215 23.4038V19.5576C5.45215 19.2999 5.53837 19.0849 5.7108 18.9125C5.88323 18.74 6.0983 18.6538 6.356 18.6538H10.2021C10.4149 18.6538 10.5931 18.7256 10.7367 18.8692C10.8803 19.0128 10.9521 19.191 10.9521 19.4038C10.9521 19.6166 10.8803 19.7948 10.7367 19.9384C10.5931 20.082 10.4149 20.1538 10.2021 20.1538H8.1117C8.83478 21.6102 9.90337 22.782 11.3175 23.6692C12.7316 24.5564 14.2925 25 16.0002 25C18.3245 25 20.331 24.2327 22.0194 22.6981C23.7079 21.1634 24.6816 19.2481 24.9406 16.9519C24.9675 16.7429 25.0553 16.5737 25.204 16.4442C25.3527 16.3147 25.5316 16.25 25.7406 16.25C25.9534 16.25 26.1325 16.3215 26.278 16.4644C26.4236 16.6074 26.4829 16.7782 26.4559 16.9769C26.3329 18.3166 25.9758 19.5637 25.3848 20.7182C24.7938 21.8727 24.0306 22.8785 23.0954 23.7355C22.1601 24.5926 21.087 25.2676 19.8761 25.7605C18.6652 26.2535 17.3733 26.5 16.0002 26.5ZM16.0002 6.99998C13.7143 6.99998 11.7191 7.75607 10.0146 9.26825C8.31014 10.7804 7.32521 12.7038 7.05982 15.0384C7.03289 15.2474 6.94507 15.4182 6.79635 15.5509C6.64765 15.6836 6.46882 15.75 6.25985 15.75C6.04062 15.75 5.85985 15.6785 5.71755 15.5355C5.57523 15.3926 5.51754 15.2186 5.54447 15.0134C5.68037 13.648 6.04864 12.3865 6.64927 11.2288C7.24991 10.0711 8.01786 9.06858 8.95312 8.22115C9.88837 7.37372 10.9582 6.70833 12.1627 6.225C13.3672 5.74167 14.6464 5.5 16.0002 5.5C17.931 5.5 19.7005 5.9843 21.3089 6.9529C22.9172 7.9215 24.1637 9.22633 25.0483 10.8674V8.59618C25.0483 8.38336 25.1201 8.20516 25.2636 8.06158C25.4072 7.91799 25.5854 7.8462 25.7982 7.8462C26.0111 7.8462 26.1893 7.91799 26.3329 8.06158C26.4765 8.20516 26.5482 8.38336 26.5482 8.59618V12.4423C26.5482 12.7 26.462 12.9151 26.2896 13.0875C26.1172 13.2599 25.9021 13.3462 25.6444 13.3462H21.7982C21.5854 13.3462 21.4072 13.2744 21.2636 13.1308C21.1201 12.9872 21.0483 12.809 21.0483 12.5962C21.0483 12.3834 21.1201 12.2052 21.2636 12.0616C21.4072 11.918 21.5854 11.8462 21.7982 11.8462H23.8887C23.1848 10.4154 22.1243 9.25 20.7069 8.35C19.2896 7.44998 17.7207 6.99998 16.0002 6.99998Z" fill="white"/>
</svg>
