<svg width="34" height="34" viewBox="0 0 34 34" fill="none" xmlns="http://www.w3.org/2000/svg">
<circle cx="17" cy="17" r="17" fill="#D9D9D9"/>
<circle cx="17" cy="17" r="17" stroke="#F1F1F1"/>
<path d="M19.9835 24.3325L18.014 14.4868C17.9326 13.9697 18.1778 13.4593 18.6314 13.1688C19.509 12.607 20.054 11.6052 19.922 10.4919C19.7701 9.20539 18.6791 8.16073 17.3369 8.01788C15.5619 7.82933 14.0599 9.15682 14.0599 10.8214C14.0599 11.7994 14.5781 12.6603 15.3663 13.166C15.821 13.4583 16.0702 13.9649 15.9878 14.4839C15.5907 17.0085 14.5166 21.1614 14.0172 24.3344C13.8792 25.2125 14.588 26 15.5133 26H18.4875C19.4127 26 20.1215 25.2106 19.9825 24.3325H19.9835Z" fill="white"/>
</svg>
