<svg width="124" height="178" viewBox="0 0 124 178" fill="none" xmlns="http://www.w3.org/2000/svg">
<path d="M14.484 144.04C12.3839 144.04 11.3338 145.187 11.3338 147.48V148.76H17.1955V152.76H11.4933V169.96H6.50899V152.76H3V148.76H6.50899V147.4C6.50899 145.107 7.17357 143.307 8.50273 142C9.83189 140.667 11.706 140 14.1251 140C16.0391 140 17.541 140.387 18.6309 141.16L17.2353 144.92C16.3847 144.333 15.4675 144.04 14.484 144.04ZM20.5449 140.28H25.5293V169.96H20.5449V140.28Z" fill="white"/>
<path d="M38.8556 170.24C36.7024 170.24 34.7618 169.773 33.0339 168.84C31.306 167.907 29.9502 166.613 28.9666 164.96C28.0096 163.28 27.5311 161.387 27.5311 159.28C27.5311 157.173 28.0096 155.293 28.9666 153.64C29.9502 151.987 31.306 150.693 33.0339 149.76C34.7618 148.827 36.7024 148.36 38.8556 148.36C41.0354 148.36 42.9893 148.827 44.7172 149.76C46.4451 150.693 47.7876 151.987 48.7446 153.64C49.7281 155.293 50.2199 157.173 50.2199 159.28C50.2199 161.387 49.7281 163.28 48.7446 164.96C47.7876 166.613 46.4451 167.907 44.7172 168.84C42.9893 169.773 41.0354 170.24 38.8556 170.24ZM38.8556 165.96C40.6898 165.96 42.2051 165.347 43.4013 164.12C44.5976 162.893 45.1957 161.28 45.1957 159.28C45.1957 157.28 44.5976 155.667 43.4013 154.44C42.2051 153.213 40.6898 152.6 38.8556 152.6C37.0214 152.6 35.5061 153.213 34.3099 154.44C33.1402 155.667 32.5554 157.28 32.5554 159.28C32.5554 161.28 33.1402 162.893 34.3099 164.12C35.5061 165.347 37.0214 165.96 38.8556 165.96Z" fill="white"/>
<path d="M64.2771 148.36C66.962 148.36 69.1152 149.147 70.7368 150.72C72.3584 152.293 73.1692 154.627 73.1692 157.72V169.96H68.1848V158.36C68.1848 156.493 67.7462 155.093 66.8689 154.16C65.9917 153.2 64.7423 152.72 63.1207 152.72C61.2865 152.72 59.8377 153.28 58.7743 154.4C57.711 155.493 57.1793 157.08 57.1793 159.16V169.96H52.195V148.6H56.9401V151.36C57.7642 150.373 58.8009 149.627 60.0503 149.12C61.2998 148.613 62.7087 148.36 64.2771 148.36Z" fill="white"/>
<path d="M96.9128 159.4C96.9128 159.747 96.8862 160.24 96.833 160.88H80.1255C80.4179 162.453 81.1755 163.707 82.3983 164.64C83.6477 165.547 85.1896 166 87.0238 166C89.3631 166 91.2904 165.227 92.8057 163.68L95.4773 166.76C94.5203 167.907 93.3107 168.773 91.8487 169.36C90.3866 169.947 88.7384 170.24 86.9042 170.24C84.5649 170.24 82.5047 169.773 80.7236 168.84C78.9425 167.907 77.5602 166.613 76.5766 164.96C75.6196 163.28 75.1411 161.387 75.1411 159.28C75.1411 157.2 75.6063 155.333 76.5367 153.68C77.4937 152 78.8096 150.693 80.4843 149.76C82.1591 148.827 84.0465 148.36 86.1466 148.36C88.22 148.36 90.0676 148.827 91.6892 149.76C93.3373 150.667 94.6133 151.96 95.5172 153.64C96.4476 155.293 96.9128 157.213 96.9128 159.4ZM86.1466 152.36C84.5516 152.36 83.1958 152.84 82.0793 153.8C80.9894 154.733 80.3248 155.987 80.0856 157.56H92.1677C91.955 156.013 91.3037 154.76 90.2138 153.8C89.1239 152.84 87.7681 152.36 86.1466 152.36Z" fill="white"/>
<path d="M121 148.6L106.326 171.84C104.864 174.16 103.468 175.76 102.139 176.64C100.837 177.547 99.2416 178 97.3542 178C96.2909 178 95.2408 177.827 94.2041 177.48C93.1673 177.133 92.3566 176.68 91.7717 176.12L94.244 172.48C95.2275 173.387 96.3972 173.84 97.753 173.84C98.6036 173.84 99.3479 173.613 99.9859 173.16C100.624 172.733 101.275 171.987 101.94 170.92L102.618 169.88L97.5935 148.6H102.578L106.167 164.44L116.016 148.6H121Z" fill="white"/>
<path fill-rule="evenodd" clip-rule="evenodd" d="M124 34.1819C124 45.6538 118.323 55.7981 109.622 61.9989H109.62C118.321 68.1997 123.998 78.344 123.998 89.816C123.998 108.696 108.639 124 89.6903 124C78.3174 124 68.2418 118.479 61.9989 109.986C55.7582 118.482 45.6826 124 34.3075 124C15.3592 124 0 108.696 0 89.816C0 78.344 5.67657 68.1997 14.378 62.0011C5.67657 55.8003 0 45.656 0 34.184C0 15.304 15.3592 0 34.3075 0C45.6826 0 55.7582 5.51835 61.9989 14.0135C68.2418 5.51835 78.3174 0 89.6925 0C108.639 0 124 15.304 124 34.1819ZM63.9301 56.9883L67.6792 76.6222H67.6773C67.9419 78.3731 66.5926 79.9474 64.8315 79.9474H59.17C57.4088 79.9474 56.0596 78.3769 56.3223 76.626C56.8245 73.2826 57.6322 69.3936 58.3939 65.7264C59.0737 62.4533 59.7168 59.3568 60.0733 56.9826C60.2301 55.9476 59.7558 54.9374 58.8903 54.3544C57.3899 53.346 56.4035 51.6293 56.4035 49.679C56.4035 46.3595 59.2626 43.7123 62.6413 44.0883C65.1962 44.3731 67.2729 46.4564 67.562 49.0219C67.8134 51.2419 66.7759 53.2396 65.1055 54.3601C64.2419 54.9393 63.7751 55.9571 63.9301 56.9883Z" fill="white"/>
</svg>
