<svg width="320" height="34" viewBox="0 0 320 34" fill="none" xmlns="http://www.w3.org/2000/svg">
<rect x="228" width="92" height="34" rx="10" fill="#56D1A5"/>
<path d="M247.349 12.2451H246.156V21.9668H247.349V16.9072H248.842V15.9297H247.349V12.2451ZM240.141 19.5928H240.946C242.697 19.5928 244.002 19.5498 245.512 19.292L245.372 18.2822C244.04 18.5132 242.842 18.5884 241.333 18.5938V14.1357H244.685V13.1689H240.141V19.5928ZM253.665 12.4385C251.538 12.4385 250.163 13.1421 250.163 14.3291C250.163 15.4893 251.538 16.1821 253.665 16.1768C255.813 16.1821 257.162 15.4893 257.167 14.3291C257.162 13.1421 255.813 12.4385 253.665 12.4385ZM249.25 17.7988H258.102V16.832H249.25V17.7988ZM250.292 21.8379H257.027V18.5723H250.292V21.8379ZM251.409 14.3291C251.398 13.7114 252.247 13.373 253.665 13.373C255.083 13.373 255.932 13.7114 255.932 14.3291C255.932 14.9146 255.083 15.2476 253.665 15.2529C252.247 15.2476 251.398 14.9146 251.409 14.3291ZM251.474 20.8711V19.5176H255.867V20.8711H251.474ZM263.483 12.7715H259.133V16.8213H259.917C261.985 16.8267 263.167 16.7837 264.472 16.4883L264.343 15.5645C263.14 15.8062 262.082 15.876 260.314 15.8867V13.7275H263.483V12.7715ZM260.067 18.4756H265.224V19.1953H260.078V21.8379H266.717V20.8711H261.26V20.0977H266.416V17.5195H260.067V18.4756ZM265.224 17.1006H266.416V15.1348H267.77V14.1572H266.416V12.2451H265.224V17.1006ZM274.548 14.5762V13.0293H273.334V14.5762C273.329 16.4507 272.383 18.3037 270.767 19.002L271.497 20.001C272.673 19.4478 273.511 18.3306 273.957 16.9663C274.408 18.2339 275.225 19.2598 276.342 19.7754L277.051 18.8193C275.477 18.1426 274.537 16.3594 274.548 14.5762ZM277.749 21.9668H278.952V12.2451H277.749V21.9668ZM283.861 13.9316V13.8135H285.881V12.8574H280.606V13.8135H282.658V13.9316C282.658 15.2046 281.836 16.4614 280.273 16.9824L280.907 17.9062C282.041 17.5195 282.846 16.73 283.276 15.7363C283.7 16.644 284.468 17.3691 285.559 17.7344L286.16 16.8105C284.629 16.3057 283.861 15.1294 283.861 13.9316ZM281.573 19.5068H286.848V21.9561H288.04V18.5508H281.573V19.5068ZM286.848 18.0996H288.04V15.6719H289.394V14.6729H288.04V12.2451H286.848V18.0996ZM297.676 12.7178H290.983V13.6738H296.483C296.483 14.3828 296.462 15.1777 296.231 16.2305H289.888V17.1973H298.761V16.2305H297.439C297.681 15.0864 297.681 14.2271 297.676 13.4697V12.7178ZM290.951 21.8379H297.665V18.3252H290.951V21.8379ZM292.122 20.8711V19.2598H296.483V20.8711H292.122ZM301.683 12.8467C300.388 12.8413 299.454 13.8081 299.459 15.1885C299.454 16.5742 300.388 17.5142 301.683 17.5195C302.966 17.5142 303.917 16.5742 303.917 15.1885C303.917 13.8081 302.966 12.8413 301.683 12.8467ZM300.533 15.1885C300.522 14.3774 301.006 13.8618 301.683 13.8672C302.349 13.8618 302.832 14.3774 302.832 15.1885C302.832 15.9941 302.349 16.5205 301.683 16.5098C301.006 16.5205 300.522 15.9941 300.533 15.1885ZM301.049 19.4639H306.506V21.9561H307.698V18.5078H301.049V19.4639ZM304.497 17.9814H305.604V15.6182H306.56V18.0459H307.698V12.2559H306.56V14.6621H305.604V12.4385H304.497V17.9814Z" fill="white"/>
<rect x="212" y="13" width="10" height="2" fill="#BFBFBF"/>
<rect x="212" y="19" width="10" height="2" fill="#BFBFBF"/>
<rect x="114" width="92" height="34" rx="10" fill="#F7F7F7"/>
<path d="M134.036 15.124V14.1035H136.228V13.2549H130.803V14.1035H133.005V15.124C132.994 16.7837 131.92 18.5884 130.47 19.2705L131.061 20.0762C132.183 19.5283 133.085 18.3574 133.531 16.9824C133.977 18.2661 134.879 19.3296 136.013 19.8291L136.571 19.0342C135.089 18.4004 134.031 16.7354 134.036 15.124ZM137.441 21.9131H138.462V12.2881H137.441V21.9131ZM141.459 12.9756H140.438V17.541H141.223C142.657 17.5464 144.134 17.4551 145.745 17.1221L145.627 16.2842C144.134 16.5957 142.764 16.6816 141.459 16.6816V12.9756ZM141.48 21.709H147.894V20.8818H142.512V18.5615H141.48V21.709ZM146.54 19.2383H147.561V15.9727H148.957V15.1025H147.561V12.2988H146.54V19.2383ZM154.21 12.8252H149.913V16.7998H150.676C152.69 16.7998 153.866 16.7515 155.198 16.4668L155.08 15.6611C153.829 15.9136 152.738 15.9834 150.923 15.9834V13.6416H154.21V12.8252ZM150.848 18.3896H156.058V19.249H150.869V21.7949H157.4V20.9678H151.868V20.0332H157.067V17.5732H150.848V18.3896ZM156.047 17.1221H157.067V15.0918H158.464V14.2539H157.067V12.2881H156.047V17.1221ZM170.474 17.2188H166.585V16.1123H165.575V17.2188H161.697V18.0459H170.474V17.2188ZM162.159 15.8008L162.481 16.585C164.136 16.4292 165.479 15.8706 166.08 14.9736C166.676 15.8706 168.024 16.4292 169.689 16.585L170.001 15.8008C168.089 15.645 166.762 14.9468 166.649 14.0176H169.593V13.2012H166.585V12.2773H165.575V13.2012H162.578V14.0176H165.511C165.387 14.9468 164.066 15.645 162.159 15.8008ZM162.739 20.291C162.739 21.333 163.975 21.897 166.08 21.8916C168.175 21.897 169.394 21.333 169.399 20.291C169.394 19.249 168.175 18.6797 166.08 18.6797C163.975 18.6797 162.739 19.249 162.739 20.291ZM163.771 20.291C163.765 19.7432 164.592 19.4424 166.08 19.4424C167.546 19.4424 168.379 19.7432 168.379 20.291C168.379 20.8389 167.546 21.1289 166.08 21.1182C164.592 21.1289 163.765 20.8389 163.771 20.291ZM174.749 15.124V14.1035H176.94V13.2549H171.516V14.1035H173.718V15.124C173.707 16.7837 172.633 18.5884 171.183 19.2705L171.773 20.0762C172.896 19.5283 173.798 18.3574 174.244 16.9824C174.69 18.2661 175.592 19.3296 176.726 19.8291L177.284 19.0342C175.802 18.4004 174.744 16.7354 174.749 15.124ZM178.154 21.9131H179.175V12.2881H178.154V21.9131ZM189.477 16.5098H180.722V17.2725H184.589V18.0781H181.764V18.8193H187.371V19.5391H181.774V21.8164H188.649V21.043H182.773V20.248H188.381V18.0781H185.599V17.2725H189.477V16.5098ZM181.151 15.3604L181.441 16.1338C183.128 16.0103 184.492 15.5215 185.094 14.6782C185.695 15.5215 187.06 16.0103 188.735 16.1338L189.047 15.3604C187.183 15.2583 185.883 14.6943 185.679 13.8779H188.606V13.0938H185.599V12.2451H184.589V13.0938H181.592V13.8779H184.503C184.293 14.6943 182.994 15.2583 181.151 15.3604Z" fill="#262626"/>
<rect x="98" y="16" width="10" height="2" fill="#BFBFBF"/>
<rect width="92" height="34" rx="10" fill="#F7F7F7"/>
<path d="M20.0361 15.124V14.1035H22.2275V13.2549H16.8027V14.1035H19.0049V15.124C18.9941 16.7837 17.9199 18.5884 16.4697 19.2705L17.0605 20.0762C18.1831 19.5283 19.0854 18.3574 19.5312 16.9824C19.9771 18.2661 20.8794 19.3296 22.0127 19.8291L22.5713 19.0342C21.0889 18.4004 20.0308 16.7354 20.0361 15.124ZM23.4414 21.9131H24.4619V12.2881H23.4414V21.9131ZM27.459 12.9756H26.4385V17.541H27.2227C28.6567 17.5464 30.1338 17.4551 31.7451 17.1221L31.627 16.2842C30.1338 16.5957 28.7642 16.6816 27.459 16.6816V12.9756ZM27.4805 21.709H33.8936V20.8818H28.5117V18.5615H27.4805V21.709ZM32.54 19.2383H33.5605V15.9727H34.957V15.1025H33.5605V12.2988H32.54V19.2383ZM40.21 12.8252H35.9131V16.7998H36.6758C38.6899 16.7998 39.8662 16.7515 41.1982 16.4668L41.0801 15.6611C39.8286 15.9136 38.7383 15.9834 36.9229 15.9834V13.6416H40.21V12.8252ZM36.8477 18.3896H42.0576V19.249H36.8691V21.7949H43.4004V20.9678H37.8682V20.0332H43.0674V17.5732H36.8477V18.3896ZM42.0469 17.1221H43.0674V15.0918H44.4639V14.2539H43.0674V12.2881H42.0469V17.1221ZM56.4736 17.2188H52.585V16.1123H51.5752V17.2188H47.6973V18.0459H56.4736V17.2188ZM48.1592 15.8008L48.4814 16.585C50.1357 16.4292 51.4785 15.8706 52.0801 14.9736C52.6763 15.8706 54.0244 16.4292 55.6895 16.585L56.001 15.8008C54.0889 15.645 52.7622 14.9468 52.6494 14.0176H55.5928V13.2012H52.585V12.2773H51.5752V13.2012H48.5781V14.0176H51.5107C51.3872 14.9468 50.0659 15.645 48.1592 15.8008ZM48.7393 20.291C48.7393 21.333 49.9746 21.897 52.0801 21.8916C54.1748 21.897 55.394 21.333 55.3994 20.291C55.394 19.249 54.1748 18.6797 52.0801 18.6797C49.9746 18.6797 48.7393 19.249 48.7393 20.291ZM49.7705 20.291C49.7651 19.7432 50.5923 19.4424 52.0801 19.4424C53.5464 19.4424 54.3789 19.7432 54.3789 20.291C54.3789 20.8389 53.5464 21.1289 52.0801 21.1182C50.5923 21.1289 49.7651 20.8389 49.7705 20.291ZM62.1348 13.1367V12.6104H61.0713V13.1367C61.0659 14.4312 59.5083 15.6128 57.623 15.8652L58.0312 16.7031C59.5942 16.4507 60.9746 15.6343 61.603 14.501C62.2314 15.6343 63.6118 16.4507 65.1855 16.7031L65.583 15.8652C63.6924 15.6128 62.1294 14.415 62.1348 13.1367ZM57.2041 18.4863H61.0713V21.9131H62.0703V18.4863H65.9805V17.6484H57.2041V18.4863ZM74.6924 12.2881H73.6719V17.4551H74.6924V12.2881ZM66.9043 14.9629C66.9097 16.2788 67.9946 17.1973 69.4717 17.1865C70.9434 17.1973 72.0283 16.2788 72.0283 14.9629C72.0283 13.6416 70.9434 12.7231 69.4717 12.7285C67.9946 12.7231 66.9097 13.6416 66.9043 14.9629ZM67.9033 14.9629C67.8979 14.1411 68.5586 13.5825 69.4717 13.5879C70.374 13.5825 71.0293 14.1411 71.0293 14.9629C71.0293 15.7954 70.374 16.3486 69.4717 16.3486C68.5586 16.3486 67.8979 15.7954 67.9033 14.9629ZM68.3975 21.7949H74.6924V17.917H73.6826V19.002H69.3965V17.917H68.3975V21.7949ZM69.3965 20.957V19.8076H73.6826V20.957H69.3965Z" fill="#262626"/>
</svg>
