<svg width="124" height="124" viewBox="0 0 124 124" fill="none" xmlns="http://www.w3.org/2000/svg">
<circle cx="62" cy="62" r="62" fill="#A7E7D0"/>
<path d="M62 60.9726C58.7778 60.9726 56.0278 59.8025 53.75 57.4623C51.4722 55.1221 50.3333 52.2968 50.3333 48.9863C50.3333 45.6758 51.4722 42.8505 53.75 40.5103C56.0278 38.1701 58.7778 37 62 37C65.2222 37 67.9722 38.1701 70.25 40.5103C72.5278 42.8505 73.6667 45.6758 73.6667 48.9863C73.6667 52.2968 72.5278 55.1221 70.25 57.4623C67.9722 59.8025 65.2222 60.9726 62 60.9726ZM42.0833 87C40.6389 87 39.4311 86.5011 38.46 85.5034C37.4867 84.5034 37 83.29 37 81.863V79.3801C37 77.7249 37.4444 76.1838 38.3333 74.7569C39.2222 73.3299 40.4167 72.2169 41.9167 71.4178C45.1944 69.7626 48.5144 68.5205 51.8767 67.6918C55.2367 66.8653 58.6111 66.4521 62 66.4521C65.3889 66.4521 68.7644 66.8653 72.1267 67.6918C75.4867 68.5205 78.8056 69.7626 82.0833 71.4178C83.5833 72.2169 84.7778 73.3299 85.6667 74.7569C86.5556 76.1838 87 77.7249 87 79.3801V81.863C87 83.29 86.5133 84.5034 85.54 85.5034C84.5689 86.5011 83.3611 87 81.9167 87H42.0833Z" fill="#DFF6EE"/>
</svg>
