<svg width="18" height="18" viewBox="0 0 18 18" fill="none" xmlns="http://www.w3.org/2000/svg">
<path d="M2.3 17.5C1.8 17.5 1.375 17.325 1.025 16.975C0.675 16.625 0.5 16.2 0.5 15.7V2.3C0.5 1.8 0.675 1.375 1.025 1.025C1.375 0.675 1.8 0.5 2.3 0.5H15.7C16.2 0.5 16.625 0.675 16.975 1.025C17.325 1.375 17.5 1.8 17.5 2.3V15.7C17.5 16.2 17.325 16.625 16.975 16.975C16.625 17.325 16.2 17.5 15.7 17.5H2.3ZM7.6 12.475C7.71667 12.475 7.82933 12.454 7.938 12.412C8.046 12.3707 8.14167 12.3083 8.225 12.225L13.825 6.625C13.9583 6.49167 14.025 6.325 14.025 6.125C14.025 5.925 13.95 5.75 13.8 5.6C13.65 5.45 13.4707 5.375 13.262 5.375C13.054 5.375 12.8833 5.45 12.75 5.6L7.6 10.75L5.25 8.4C5.11667 8.26667 4.95 8.2 4.75 8.2C4.55 8.2 4.375 8.275 4.225 8.425C4.075 8.575 4 8.75 4 8.95C4 9.15 4.075 9.325 4.225 9.475L6.975 12.225C7.05833 12.3083 7.15433 12.3707 7.263 12.412C7.371 12.454 7.48333 12.475 7.6 12.475Z" fill="#56D1A5"/>
</svg>
