<svg width="348" height="440" viewBox="0 0 348 440" fill="none" xmlns="http://www.w3.org/2000/svg">
<path d="M24 190H324V428C324 434.627 318.627 440 312 440H36C29.3726 440 24 434.627 24 428V190Z" fill="#A7E7D0"/>
<path d="M250.174 418.137C248.109 418.137 246.599 416.92 246.564 415.211H248.561C248.608 415.983 249.312 416.517 250.174 416.51C251.199 416.517 251.931 415.792 251.924 414.76C251.931 413.707 251.186 412.976 250.146 412.969C249.401 412.969 248.882 413.249 248.588 413.803H246.729L247.262 408.102H253.359V409.783H248.957L248.684 412.285H248.766C249.128 411.8 249.88 411.444 250.748 411.451C252.566 411.444 253.92 412.805 253.92 414.705C253.92 416.708 252.402 418.137 250.174 418.137ZM259.58 408.102V418H257.516V410.057H257.461L255.191 411.479V409.66L257.639 408.102H259.58ZM263.559 416.988L262.383 420.885H260.934L261.617 416.988H263.559ZM268.795 418.137C266.313 418.137 264.816 416.291 264.816 413.051C264.816 409.817 266.327 407.965 268.795 407.965C271.263 407.965 272.773 409.817 272.773 413.051C272.773 416.305 271.27 418.137 268.795 418.137ZM266.922 413.051C266.908 415.334 267.646 416.441 268.795 416.441C269.943 416.441 270.675 415.334 270.668 413.051C270.675 410.788 269.937 409.653 268.795 409.646C267.653 409.653 266.922 410.788 266.922 413.051ZM278.037 418.137C275.556 418.137 274.059 416.291 274.059 413.051C274.059 409.817 275.569 407.965 278.037 407.965C280.505 407.965 282.016 409.817 282.016 413.051C282.016 416.305 280.512 418.137 278.037 418.137ZM276.164 413.051C276.15 415.334 276.889 416.441 278.037 416.441C279.186 416.441 279.917 415.334 279.91 413.051C279.917 410.788 279.179 409.653 278.037 409.646C276.896 409.653 276.164 410.788 276.164 413.051ZM287.279 418.137C284.798 418.137 283.301 416.291 283.301 413.051C283.301 409.817 284.812 407.965 287.279 407.965C289.747 407.965 291.258 409.817 291.258 413.051C291.258 416.305 289.754 418.137 287.279 418.137ZM285.406 413.051C285.393 415.334 286.131 416.441 287.279 416.441C288.428 416.441 289.159 415.334 289.152 413.051C289.159 410.788 288.421 409.653 287.279 409.646C286.138 409.653 285.406 410.788 285.406 413.051ZM302.811 406.83V416.223H301.061V415.238H298.682V414.049H301.061V406.83H302.811ZM292.229 412.34C294.505 412.326 297.581 412.292 300.213 411.971L300.309 413.215C299.324 413.379 298.306 413.495 297.301 413.57V415.936H295.551V417.645H303.084V419.039H293.814V415.32H295.551V413.673C294.437 413.714 293.377 413.721 292.434 413.721L292.229 412.34ZM293.145 409.482C293.145 408.156 294.423 407.247 296.275 407.254C298.08 407.247 299.372 408.156 299.379 409.482C299.372 410.815 298.08 411.677 296.275 411.67C294.423 411.677 293.145 410.815 293.145 409.482ZM294.799 409.482C294.792 410.084 295.387 410.419 296.275 410.412C297.109 410.419 297.711 410.084 297.725 409.482C297.711 408.867 297.109 408.525 296.275 408.525C295.387 408.525 294.792 408.867 294.799 409.482Z" fill="#135D42"/>
<path d="M226.457 409.93V417H225.178V411.17H225.139L223.488 412.225V411.062L225.236 409.93H226.457ZM235.236 409.051V415.428H234.143V409.051H235.236ZM228.039 411.834C228.039 410.55 229.079 409.632 230.422 409.627C231.765 409.632 232.8 410.55 232.795 411.834C232.8 413.138 231.765 414.051 230.422 414.051C229.079 414.051 228.039 413.138 228.039 411.834ZM229.104 411.834C229.099 412.615 229.665 413.104 230.422 413.104C231.159 413.104 231.73 412.615 231.73 411.834C231.73 411.072 231.159 410.574 230.422 410.574C229.665 410.574 229.099 411.072 229.104 411.834ZM229.396 417.693V414.783H230.49V416.814H235.48V417.693H229.396Z" fill="#FAFAFA"/>
<path d="M54.6641 406.912V414.199H53.3652V411.096H51.082V410.029H53.3652V406.912H54.6641ZM44.4512 413.092C46.3516 412.429 47.5205 410.774 47.5137 409.086V408.812H44.8613V407.76H51.4648V408.812H48.8398V409.072C48.833 410.624 49.9404 412.135 51.793 412.764L51.123 413.789C49.749 413.317 48.7373 412.333 48.2041 411.123C47.6709 412.49 46.5977 413.591 45.1348 414.131L44.4512 413.092ZM46.4199 416.852C46.4131 415.396 47.9854 414.548 50.5625 414.541C53.126 414.548 54.6982 415.396 54.7051 416.852C54.6982 418.308 53.126 419.155 50.5625 419.162C47.9854 419.155 46.4131 418.308 46.4199 416.852ZM47.7051 416.852C47.6982 417.679 48.7646 418.15 50.5625 418.137C52.3467 418.15 53.4131 417.679 53.4199 416.852C53.4131 416.018 52.3467 415.546 50.5625 415.553C48.7646 415.546 47.6982 416.018 47.7051 416.852ZM60.8027 409.154C60.8027 410.795 61.9443 412.34 63.8105 412.969L63.1406 413.994C61.7666 413.516 60.7412 412.538 60.2012 411.301C59.668 412.682 58.6152 413.748 57.1797 414.281L56.4551 413.256C58.3965 412.593 59.5107 410.938 59.5176 409.113V407.664H60.8027V409.154ZM58.4238 418.902V415.061H59.75V417.85H66.709V418.902H58.4238ZM64.877 415.936V406.898H66.1758V410.59H67.9531V411.697H66.1758V415.936H64.877ZM81.8574 407.527V408.457C81.8643 409.414 81.8643 410.521 81.543 411.998H83.2793V413.064H72.0684V411.998H80.2305C80.5586 410.569 80.5723 409.523 80.5723 408.594H73.4766V407.527H81.8574ZM73.4355 419.012V414.623H81.8711V419.012H73.4355ZM74.707 417.959H80.5859V415.648H74.707V417.959ZM87.0801 407.664C88.7002 407.671 89.8965 408.874 89.8965 410.604C89.8965 412.326 88.7002 413.502 87.0801 413.502C85.4463 413.502 84.2705 412.326 84.2773 410.604C84.2705 408.874 85.4463 407.671 87.0801 407.664ZM85.4395 410.604C85.4326 411.67 86.1299 412.415 87.0801 412.408C88.0234 412.415 88.707 411.67 88.7207 410.604C88.707 409.517 88.0234 408.785 87.0801 408.785C86.1299 408.785 85.4326 409.517 85.4395 410.604ZM86.2871 415.895V414.855H94.6133V419.162H93.3281V415.895H86.2871ZM90.7441 414.145V407.145H91.9609V410.016H93.3828V406.926H94.6133V414.227H93.3828V411.068H91.9609V414.145H90.7441Z" fill="white"/>
<path d="M44 386H304" stroke="white" stroke-linecap="square" stroke-dasharray="4 4"/>
<path d="M253.841 354.127C251.937 354.127 250.584 353.105 250.527 351.601H251.949C252 352.407 252.8 352.921 253.828 352.921C254.939 352.921 255.745 352.318 255.745 351.423C255.745 350.515 254.99 349.868 253.676 349.861H252.889V348.719H253.676C254.723 348.725 255.453 348.141 255.453 347.259C255.453 346.421 254.825 345.85 253.854 345.85C252.933 345.85 252.108 346.364 252.076 347.195H250.73C250.769 345.697 252.152 344.682 253.866 344.682C255.675 344.682 256.812 345.824 256.799 347.183C256.812 348.23 256.164 348.979 255.174 349.227V349.29C256.431 349.468 257.161 350.312 257.154 351.474C257.161 353.003 255.745 354.127 253.841 354.127ZM261.89 354.127C259.763 354.127 258.513 352.413 258.513 349.404C258.513 346.415 259.776 344.682 261.89 344.682C263.997 344.682 265.26 346.415 265.267 349.404C265.26 352.413 264.016 354.127 261.89 354.127ZM259.909 349.404C259.903 351.696 260.646 352.921 261.89 352.921C263.127 352.921 263.87 351.696 263.87 349.404C263.87 347.119 263.121 345.869 261.89 345.862C260.652 345.869 259.909 347.119 259.909 349.404ZM268.021 353.124L267.006 356.628H265.927L266.6 353.124H268.021ZM272.706 354.127C270.58 354.127 269.329 352.413 269.329 349.404C269.329 346.415 270.592 344.682 272.706 344.682C274.813 344.682 276.077 346.415 276.083 349.404C276.077 352.413 274.833 354.127 272.706 354.127ZM270.726 349.404C270.719 351.696 271.462 352.921 272.706 352.921C273.944 352.921 274.687 351.696 274.687 349.404C274.687 347.119 273.938 345.869 272.706 345.862C271.468 345.869 270.726 347.119 270.726 349.404ZM280.729 354.127C278.603 354.127 277.353 352.413 277.353 349.404C277.353 346.415 278.616 344.682 280.729 344.682C282.837 344.682 284.1 346.415 284.106 349.404C284.1 352.413 282.856 354.127 280.729 354.127ZM278.749 349.404C278.743 351.696 279.485 352.921 280.729 352.921C281.967 352.921 282.71 351.696 282.71 349.404C282.71 347.119 281.961 345.869 280.729 345.862C279.492 345.869 278.749 347.119 278.749 349.404ZM288.753 354.127C286.626 354.127 285.376 352.413 285.376 349.404C285.376 346.415 286.639 344.682 288.753 344.682C290.86 344.682 292.124 346.415 292.13 349.404C292.124 352.413 290.879 354.127 288.753 354.127ZM286.772 349.404C286.766 351.696 287.509 352.921 288.753 352.921C289.991 352.921 290.733 351.696 290.733 349.404C290.733 347.119 289.984 345.869 288.753 345.862C287.515 345.869 286.772 347.119 286.772 349.404ZM302.642 343.717V352.337H301.436V351.245H299.15V350.395H301.436V343.717H302.642ZM293.133 348.909C295.234 348.89 298.071 348.871 300.496 348.566L300.572 349.43C299.601 349.595 298.579 349.696 297.576 349.766V351.981H296.37V349.83C295.266 349.874 294.206 349.874 293.285 349.874L293.133 348.909ZM294.021 346.154C294.015 344.948 295.164 344.148 296.853 344.148C298.516 344.148 299.671 344.948 299.671 346.154C299.671 347.367 298.516 348.135 296.853 348.135C295.17 348.135 294.015 347.367 294.021 346.154ZM294.707 354.838V351.499H295.9V353.86H302.921V354.838H294.707ZM295.164 346.154C295.158 346.827 295.843 347.246 296.853 347.246C297.824 347.246 298.522 346.827 298.528 346.154C298.522 345.475 297.824 345.037 296.853 345.05C295.843 345.037 295.158 345.475 295.164 346.154Z" fill="white"/>
<rect x="44" y="344" width="52" height="12" rx="4" fill="#CFF2E5"/>
<path d="M253.93 319.127C252.19 319.127 250.883 318.067 250.819 316.601H252.178C252.254 317.381 253.003 317.953 253.93 317.959C255.047 317.953 255.847 317.146 255.847 316.055C255.847 314.938 255.021 314.125 253.866 314.112C253.13 314.112 252.565 314.36 252.254 314.925H250.934L251.53 309.809H256.735V311.002H252.686L252.381 313.579H252.47C252.851 313.211 253.498 312.963 254.196 312.957C255.929 312.963 257.205 314.246 257.205 316.017C257.205 317.826 255.847 319.127 253.93 319.127ZM261.89 319.127C259.763 319.127 258.513 317.413 258.513 314.404C258.513 311.415 259.776 309.682 261.89 309.682C263.997 309.682 265.26 311.415 265.267 314.404C265.26 317.413 264.016 319.127 261.89 319.127ZM259.909 314.404C259.903 316.696 260.646 317.921 261.89 317.921C263.127 317.921 263.87 316.696 263.87 314.404C263.87 312.119 263.121 310.869 261.89 310.862C260.652 310.869 259.909 312.119 259.909 314.404ZM268.021 318.124L267.006 321.628H265.927L266.6 318.124H268.021ZM272.706 319.127C270.58 319.127 269.329 317.413 269.329 314.404C269.329 311.415 270.592 309.682 272.706 309.682C274.813 309.682 276.077 311.415 276.083 314.404C276.077 317.413 274.833 319.127 272.706 319.127ZM270.726 314.404C270.719 316.696 271.462 317.921 272.706 317.921C273.944 317.921 274.687 316.696 274.687 314.404C274.687 312.119 273.938 310.869 272.706 310.862C271.468 310.869 270.726 312.119 270.726 314.404ZM280.729 319.127C278.603 319.127 277.353 317.413 277.353 314.404C277.353 311.415 278.616 309.682 280.729 309.682C282.837 309.682 284.1 311.415 284.106 314.404C284.1 317.413 282.856 319.127 280.729 319.127ZM278.749 314.404C278.743 316.696 279.485 317.921 280.729 317.921C281.967 317.921 282.71 316.696 282.71 314.404C282.71 312.119 281.961 310.869 280.729 310.862C279.492 310.869 278.749 312.119 278.749 314.404ZM288.753 319.127C286.626 319.127 285.376 317.413 285.376 314.404C285.376 311.415 286.639 309.682 288.753 309.682C290.86 309.682 292.124 311.415 292.13 314.404C292.124 317.413 290.879 319.127 288.753 319.127ZM286.772 314.404C286.766 316.696 287.509 317.921 288.753 317.921C289.991 317.921 290.733 316.696 290.733 314.404C290.733 312.119 289.984 310.869 288.753 310.862C287.515 310.869 286.772 312.119 286.772 314.404ZM302.642 308.717V317.337H301.436V316.245H299.15V315.395H301.436V308.717H302.642ZM293.133 313.909C295.234 313.89 298.071 313.871 300.496 313.566L300.572 314.43C299.601 314.595 298.579 314.696 297.576 314.766V316.981H296.37V314.83C295.266 314.874 294.206 314.874 293.285 314.874L293.133 313.909ZM294.021 311.154C294.015 309.948 295.164 309.148 296.853 309.148C298.516 309.148 299.671 309.948 299.671 311.154C299.671 312.367 298.516 313.135 296.853 313.135C295.17 313.135 294.015 312.367 294.021 311.154ZM294.707 319.838V316.499H295.9V318.86H302.921V319.838H294.707ZM295.164 311.154C295.158 311.827 295.843 312.246 296.853 312.246C297.824 312.246 298.522 311.827 298.528 311.154C298.522 310.475 297.824 310.037 296.853 310.05C295.843 310.037 295.158 310.475 295.164 311.154Z" fill="white"/>
<rect x="44" y="309" width="52" height="12" rx="4" fill="#CFF2E5"/>
<path d="M251.797 284L255.897 276.078V276.002H251.162V274.809H257.345V276.053L253.257 284H251.797ZM261.801 284.127C259.896 284.127 258.544 283.105 258.487 281.601H259.909C259.96 282.407 260.76 282.921 261.788 282.921C262.899 282.921 263.705 282.318 263.705 281.423C263.705 280.515 262.95 279.868 261.636 279.861H260.849V278.719H261.636C262.683 278.725 263.413 278.141 263.413 277.259C263.413 276.421 262.785 275.85 261.813 275.85C260.893 275.85 260.068 276.364 260.036 277.195H258.69C258.729 275.697 260.112 274.682 261.826 274.682C263.635 274.682 264.771 275.824 264.759 277.183C264.771 278.23 264.124 278.979 263.134 279.227V279.29C264.391 279.468 265.121 280.312 265.114 281.474C265.121 283.003 263.705 284.127 261.801 284.127ZM268.021 283.124L267.006 286.628H265.927L266.6 283.124H268.021ZM272.706 284.127C270.58 284.127 269.329 282.413 269.329 279.404C269.329 276.415 270.592 274.682 272.706 274.682C274.813 274.682 276.077 276.415 276.083 279.404C276.077 282.413 274.833 284.127 272.706 284.127ZM270.726 279.404C270.719 281.696 271.462 282.921 272.706 282.921C273.944 282.921 274.687 281.696 274.687 279.404C274.687 277.119 273.938 275.869 272.706 275.862C271.468 275.869 270.726 277.119 270.726 279.404ZM280.729 284.127C278.603 284.127 277.353 282.413 277.353 279.404C277.353 276.415 278.616 274.682 280.729 274.682C282.837 274.682 284.1 276.415 284.106 279.404C284.1 282.413 282.856 284.127 280.729 284.127ZM278.749 279.404C278.743 281.696 279.485 282.921 280.729 282.921C281.967 282.921 282.71 281.696 282.71 279.404C282.71 277.119 281.961 275.869 280.729 275.862C279.492 275.869 278.749 277.119 278.749 279.404ZM288.753 284.127C286.626 284.127 285.376 282.413 285.376 279.404C285.376 276.415 286.639 274.682 288.753 274.682C290.86 274.682 292.124 276.415 292.13 279.404C292.124 282.413 290.879 284.127 288.753 284.127ZM286.772 279.404C286.766 281.696 287.509 282.921 288.753 282.921C289.991 282.921 290.733 281.696 290.733 279.404C290.733 277.119 289.984 275.869 288.753 275.862C287.515 275.869 286.772 277.119 286.772 279.404ZM302.642 273.717V282.337H301.436V281.245H299.15V280.395H301.436V273.717H302.642ZM293.133 278.909C295.234 278.89 298.071 278.871 300.496 278.566L300.572 279.43C299.601 279.595 298.579 279.696 297.576 279.766V281.981H296.37V279.83C295.266 279.874 294.206 279.874 293.285 279.874L293.133 278.909ZM294.021 276.154C294.015 274.948 295.164 274.148 296.853 274.148C298.516 274.148 299.671 274.948 299.671 276.154C299.671 277.367 298.516 278.135 296.853 278.135C295.17 278.135 294.015 277.367 294.021 276.154ZM294.707 284.838V281.499H295.9V283.86H302.921V284.838H294.707ZM295.164 276.154C295.158 276.827 295.843 277.246 296.853 277.246C297.824 277.246 298.522 276.827 298.528 276.154C298.522 275.475 297.824 275.037 296.853 275.05C295.843 275.037 295.158 275.475 295.164 276.154Z" fill="white"/>
<rect x="44" y="274" width="52" height="12" rx="4" fill="#CFF2E5"/>
<path d="M44 244H304" stroke="white" stroke-linecap="square" stroke-dasharray="4 4"/>
<path d="M241.615 212.102V222H239.551V214.057H239.496L237.227 215.479V213.66L239.674 212.102H241.615ZM247.549 222.137C245.484 222.137 243.974 220.92 243.939 219.211H245.936C245.983 219.983 246.688 220.517 247.549 220.51C248.574 220.517 249.306 219.792 249.299 218.76C249.306 217.707 248.561 216.976 247.521 216.969C246.776 216.969 246.257 217.249 245.963 217.803H244.104L244.637 212.102H250.734V213.783H246.332L246.059 216.285H246.141C246.503 215.8 247.255 215.444 248.123 215.451C249.941 215.444 251.295 216.805 251.295 218.705C251.295 220.708 249.777 222.137 247.549 222.137ZM256.354 222.137C254.18 222.137 252.621 220.94 252.58 219.211H254.658C254.692 219.949 255.41 220.435 256.367 220.441C257.352 220.435 258.056 219.888 258.049 219.088C258.056 218.281 257.338 217.714 256.176 217.707H255.26V216.189H256.176C257.153 216.189 257.837 215.656 257.83 214.877C257.837 214.118 257.256 213.599 256.381 213.605C255.506 213.599 254.788 214.091 254.754 214.85H252.785C252.819 213.147 254.351 211.965 256.381 211.965C258.445 211.965 259.819 213.188 259.812 214.754C259.819 215.861 259.047 216.647 257.939 216.846V216.928C259.396 217.105 260.195 217.987 260.182 219.225C260.195 220.92 258.589 222.137 256.354 222.137ZM263.559 220.988L262.383 224.885H260.934L261.617 220.988H263.559ZM268.795 222.137C266.313 222.137 264.816 220.291 264.816 217.051C264.816 213.817 266.327 211.965 268.795 211.965C271.263 211.965 272.773 213.817 272.773 217.051C272.773 220.305 271.27 222.137 268.795 222.137ZM266.922 217.051C266.908 219.334 267.646 220.441 268.795 220.441C269.943 220.441 270.675 219.334 270.668 217.051C270.675 214.788 269.937 213.653 268.795 213.646C267.653 213.653 266.922 214.788 266.922 217.051ZM278.037 222.137C275.556 222.137 274.059 220.291 274.059 217.051C274.059 213.817 275.569 211.965 278.037 211.965C280.505 211.965 282.016 213.817 282.016 217.051C282.016 220.305 280.512 222.137 278.037 222.137ZM276.164 217.051C276.15 219.334 276.889 220.441 278.037 220.441C279.186 220.441 279.917 219.334 279.91 217.051C279.917 214.788 279.179 213.653 278.037 213.646C276.896 213.653 276.164 214.788 276.164 217.051ZM287.279 222.137C284.798 222.137 283.301 220.291 283.301 217.051C283.301 213.817 284.812 211.965 287.279 211.965C289.747 211.965 291.258 213.817 291.258 217.051C291.258 220.305 289.754 222.137 287.279 222.137ZM285.406 217.051C285.393 219.334 286.131 220.441 287.279 220.441C288.428 220.441 289.159 219.334 289.152 217.051C289.159 214.788 288.421 213.653 287.279 213.646C286.138 213.653 285.406 214.788 285.406 217.051ZM302.811 210.83V220.223H301.061V219.238H298.682V218.049H301.061V210.83H302.811ZM292.229 216.34C294.505 216.326 297.581 216.292 300.213 215.971L300.309 217.215C299.324 217.379 298.306 217.495 297.301 217.57V219.936H295.551V221.645H303.084V223.039H293.814V219.32H295.551V217.673C294.437 217.714 293.377 217.721 292.434 217.721L292.229 216.34ZM293.145 213.482C293.145 212.156 294.423 211.247 296.275 211.254C298.08 211.247 299.372 212.156 299.379 213.482C299.372 214.815 298.08 215.677 296.275 215.67C294.423 215.677 293.145 214.815 293.145 213.482ZM294.799 213.482C294.792 214.084 295.387 214.419 296.275 214.412C297.109 214.419 297.711 214.084 297.725 213.482C297.711 212.867 297.109 212.525 296.275 212.525C295.387 212.525 294.792 212.867 294.799 213.482Z" fill="#414141"/>
<path d="M55.6211 217.188V218.24H44.4512V217.188H49.3867V215.779H50.6719V217.188H55.6211ZM45.0391 215.383C47.4658 215.185 49.1475 214.296 49.3047 213.113H45.5723V212.074H49.3867V210.898H50.6719V212.074H54.5V213.113H50.7539C50.8975 214.296 52.5859 215.185 55.0195 215.383L54.623 216.381C52.5039 216.183 50.7881 215.472 50.0293 214.33C49.2637 215.472 47.5547 216.183 45.4492 216.381L45.0391 215.383ZM45.7773 221.098C45.7773 219.771 47.3496 219.047 50.0293 219.047C52.6953 219.047 54.2471 219.771 54.2539 221.098C54.2471 222.424 52.6953 223.142 50.0293 223.135C47.3496 223.142 45.7773 222.424 45.7773 221.098ZM47.0898 221.098C47.083 221.795 48.1357 222.164 50.0293 222.15C51.8955 222.164 52.9551 221.795 52.9551 221.098C52.9551 220.4 51.8955 220.018 50.0293 220.018C48.1357 220.018 47.083 220.4 47.0898 221.098ZM64.4805 214.521C64.4736 216.572 65.8203 218.691 67.707 219.498L66.9961 220.51C65.5537 219.874 64.4053 218.521 63.8379 216.887C63.2705 218.637 62.1221 220.127 60.6934 220.824L59.9414 219.799C61.7871 218.931 63.1543 216.634 63.168 214.521V213.223H60.3652V212.143H67.2695V213.223H64.4805V214.521ZM68.8145 223.162V210.912H70.1133V223.162H68.8145ZM83.2246 216.285V217.256H78.2891V218.281H81.8301V221.043H74.6934V222.055H82.1719V223.039H73.4219V220.141H80.5449V219.225H73.4082V218.281H77.0039V217.256H72.082V216.285H83.2246ZM72.6289 214.822C74.9736 214.692 76.6279 213.975 76.8945 212.936H73.1895V211.938H77.0039V210.857H78.2891V211.938H82.1172V212.936H78.3916C78.6514 213.975 80.3057 214.692 82.6777 214.822L82.2812 215.807C80.1484 215.649 78.4121 215.027 77.6465 213.954C76.8809 215.027 75.1445 215.649 72.998 215.807L72.6289 214.822Z" fill="#FAFAFA"/>
<g filter="url(#filter0_d_1776_3617)">
<path d="M14 26C14 19.3726 19.3726 14 26 14H322C328.627 14 334 19.3726 334 26V178C334 184.627 328.627 190 322 190H26C19.3726 190 14 184.627 14 178V26Z" fill="white"/>
</g>
<path d="M228.891 147.624C231.977 147.624 233.789 148.476 233.797 150.015C233.789 151.593 231.977 152.444 228.891 152.452C225.789 152.444 223.969 151.593 223.969 150.015C223.969 148.476 225.789 147.624 228.891 147.624ZM222.562 154.39V153.39H235.219V154.39H222.562ZM224.094 156.53V155.593H233.594V158.702H225.344V160.14H234.016V161.108H224.125V157.796H232.391V156.53H224.094ZM225.25 150.015C225.234 150.983 226.586 151.515 228.891 151.515C231.195 151.515 232.539 150.983 232.547 150.015C232.539 149.101 231.195 148.554 228.891 148.546C226.586 148.554 225.234 149.101 225.25 150.015ZM253.125 158.468V159.483H240.406V158.468H246.125V155.468H241.906V148.358H243.141V150.874H250.359V148.358H251.562V155.468H247.328V158.468H253.125ZM243.141 154.468H250.359V151.874H243.141V154.468ZM266.094 147.374V161.265H264.891V154.077H262.891V160.546H261.734V147.687H262.891V153.03H264.891V147.374H266.094ZM254.938 157.671V149.077H256.156V156.577C257.531 156.569 259.016 156.468 260.703 156.124L260.859 157.218C258.922 157.569 257.328 157.671 255.797 157.671H254.938ZM271.781 148.452C273.828 148.46 275.281 150.343 275.297 153.296C275.281 156.257 273.828 158.132 271.781 158.124C269.719 158.132 268.273 156.257 268.281 153.296C268.273 150.343 269.719 148.46 271.781 148.452ZM269.438 153.296C269.445 155.554 270.406 157.038 271.781 157.03C273.172 157.038 274.109 155.554 274.109 153.296C274.109 151.038 273.172 149.554 271.781 149.546C270.406 149.554 269.445 151.038 269.438 153.296ZM277.594 161.265V147.374H278.812V150.874H281.062V151.921H278.812V155.015H281.062V156.046H278.812V161.265H277.594ZM288.828 149.78V150.78H281.859V149.78H284.75V147.796H285.969V149.78H288.828ZM282.359 154.874C282.359 153.03 283.617 151.726 285.344 151.718C287.094 151.726 288.344 153.03 288.359 154.874C288.344 156.741 287.094 158.054 285.344 158.062C283.617 158.054 282.359 156.741 282.359 154.874ZM283.453 154.874C283.453 156.108 284.242 156.991 285.344 156.983C286.453 156.991 287.266 156.108 287.266 154.874C287.266 153.655 286.453 152.765 285.344 152.749C284.242 152.765 283.453 153.655 283.453 154.874ZM289.547 160.577V147.718H290.703V153.233H292.547V147.374H293.719V161.265H292.547V154.249H290.703V160.577H289.547ZM308.438 158.452V159.483H295.719V158.452H298.875V154.71C297.688 154.093 296.969 153.093 296.969 151.827C296.969 149.679 299.078 148.265 302.047 148.249C305.016 148.265 307.125 149.679 307.125 151.827C307.125 153.069 306.43 154.054 305.281 154.671V158.452H308.438ZM298.156 151.827C298.148 153.382 299.766 154.421 302.047 154.421C304.305 154.421 305.938 153.382 305.938 151.827C305.938 150.272 304.305 149.249 302.047 149.265C299.766 149.249 298.148 150.272 298.156 151.827ZM300.078 158.452H304.047V155.147C303.445 155.304 302.773 155.39 302.047 155.39C301.336 155.39 300.672 155.312 300.078 155.155V158.452ZM311.016 160.093C310.469 160.085 310 159.632 310.016 159.077C310 158.53 310.469 158.077 311.016 158.077C311.57 158.077 312.023 158.53 312.016 159.077C312.023 159.632 311.57 160.085 311.016 160.093Z" fill="#262626"/>
<path d="M148.891 159.999L148.875 158.296L152.938 154.562C153.992 153.554 154.562 152.929 154.562 152.03C154.562 151.022 153.805 150.397 152.766 150.405C151.703 150.397 151.008 151.069 151.016 152.155H148.781C148.773 149.944 150.414 148.53 152.797 148.53C155.219 148.53 156.828 149.913 156.828 151.874C156.828 153.163 156.203 154.218 153.875 156.327L152.156 157.999V158.062H156.984V159.999H148.891ZM163.531 148.687V159.999H161.172V150.921H161.109L158.516 152.546V150.468L161.312 148.687H163.531ZM168.078 158.843L166.734 163.296H165.078L165.859 158.843H168.078ZM174.062 160.155C171.227 160.155 169.516 158.046 169.516 154.343C169.516 150.647 171.242 148.53 174.062 148.53C176.883 148.53 178.609 150.647 178.609 154.343C178.609 158.062 176.891 160.155 174.062 160.155ZM171.922 154.343C171.906 156.952 172.75 158.218 174.062 158.218C175.375 158.218 176.211 156.952 176.203 154.343C176.211 151.757 175.367 150.46 174.062 150.452C172.758 150.46 171.922 151.757 171.922 154.343ZM184.625 160.155C181.789 160.155 180.078 158.046 180.078 154.343C180.078 150.647 181.805 148.53 184.625 148.53C187.445 148.53 189.172 150.647 189.172 154.343C189.172 158.062 187.453 160.155 184.625 160.155ZM182.484 154.343C182.469 156.952 183.312 158.218 184.625 158.218C185.938 158.218 186.773 156.952 186.766 154.343C186.773 151.757 185.93 150.46 184.625 150.452C183.32 150.46 182.484 151.757 182.484 154.343ZM195.188 160.155C192.352 160.155 190.641 158.046 190.641 154.343C190.641 150.647 192.367 148.53 195.188 148.53C198.008 148.53 199.734 150.647 199.734 154.343C199.734 158.062 198.016 160.155 195.188 160.155ZM193.047 154.343C193.031 156.952 193.875 158.218 195.188 158.218C196.5 158.218 197.336 156.952 197.328 154.343C197.336 151.757 196.492 150.46 195.188 150.452C193.883 150.46 193.047 151.757 193.047 154.343ZM212.938 147.233V157.968H210.938V156.843H208.219V155.483H210.938V147.233H212.938ZM200.844 153.53C203.445 153.515 206.961 153.476 209.969 153.108L210.078 154.53C208.953 154.718 207.789 154.851 206.641 154.937V157.64H204.641V159.593H213.25V161.187H202.656V156.937H204.641V155.054C203.367 155.101 202.156 155.108 201.078 155.108L200.844 153.53ZM201.891 150.265C201.891 148.749 203.352 147.71 205.469 147.718C207.531 147.71 209.008 148.749 209.016 150.265C209.008 151.788 207.531 152.772 205.469 152.765C203.352 152.772 201.891 151.788 201.891 150.265ZM203.781 150.265C203.773 150.952 204.453 151.335 205.469 151.327C206.422 151.335 207.109 150.952 207.125 150.265C207.109 149.562 206.422 149.171 205.469 149.171C204.453 149.171 203.773 149.562 203.781 150.265Z" fill="#262626"/>
<rect x="80" y="147.999" width="52" height="12" rx="4" fill="#CFF2E5"/>
<path d="M49.9994 170C58.8356 170 65.9988 162.837 65.9988 154C65.9988 145.163 58.8356 138 49.9994 138C41.1632 138 34 145.163 34 154C34 162.837 41.1632 170 49.9994 170Z" fill="#F4F4F4"/>
<mask id="mask0_1776_3617" style="mask-type:luminance" maskUnits="userSpaceOnUse" x="34" y="138" width="32" height="32">
<path d="M50.0013 170C58.8375 170 66.0007 162.837 66.0007 154C66.0007 145.163 58.8375 138 50.0013 138C41.1651 138 34.002 145.163 34.002 154C34.002 162.837 41.1651 170 50.0013 170Z" fill="white"/>
</mask>
<g mask="url(#mask0_1776_3617)">
<path d="M61.7073 165.728C63.8446 164.197 65.2429 161.696 65.2429 158.865C65.2429 154.207 61.4686 150.433 56.8113 150.433C54.0146 150.433 51.54 151.793 50.0053 153.889C48.4705 151.793 45.9959 150.433 43.1993 150.433C38.5419 150.433 34.7676 154.207 34.7676 158.865C34.7676 161.696 36.1621 164.197 38.3032 165.728C36.1659 167.259 34.7676 169.76 34.7676 172.591C34.7676 177.248 38.5419 181.023 43.1993 181.023C45.9959 181.023 48.4705 179.662 50.0053 177.567C51.54 179.662 54.0146 181.023 56.8113 181.023C61.4686 181.023 65.2429 177.248 65.2429 172.591C65.2392 169.76 63.8446 167.255 61.7073 165.728Z" fill="url(#paint0_linear_1776_3617)"/>
<path d="M46.9333 159.185C47.6386 159.185 48.2104 158.613 48.2104 157.908C48.2104 157.203 47.6386 156.631 46.9333 156.631C46.228 156.631 45.6562 157.203 45.6562 157.908C45.6562 158.613 46.228 159.185 46.9333 159.185Z" fill="#262626"/>
<path d="M53.0661 159.185C53.7714 159.185 54.3432 158.613 54.3432 157.908C54.3432 157.203 53.7714 156.631 53.0661 156.631C52.3608 156.631 51.7891 157.203 51.7891 157.908C51.7891 158.613 52.3608 159.185 53.0661 159.185Z" fill="#262626"/>
<path d="M50.0038 162.741C51.3369 162.741 52.4177 162.18 52.4177 161.487C52.4177 160.794 51.3369 160.232 50.0038 160.232C48.6706 160.232 47.5898 160.794 47.5898 161.487C47.5898 162.18 48.6706 162.741 50.0038 162.741Z" fill="#FAFAFA"/>
</g>
<path d="M228.891 95.624C231.977 95.624 233.789 96.4756 233.797 98.0146C233.789 99.5928 231.977 100.444 228.891 100.452C225.789 100.444 223.969 99.5928 223.969 98.0146C223.969 96.4756 225.789 95.624 228.891 95.624ZM222.562 102.39V101.39H235.219V102.39H222.562ZM224.094 104.53V103.593H233.594V106.702H225.344V108.14H234.016V109.108H224.125V105.796H232.391V104.53H224.094ZM225.25 98.0146C225.234 98.9834 226.586 99.5146 228.891 99.5146C231.195 99.5146 232.539 98.9834 232.547 98.0146C232.539 97.1006 231.195 96.5537 228.891 96.5459C226.586 96.5537 225.234 97.1006 225.25 98.0146ZM253.125 106.468V107.483H240.406V106.468H246.125V103.468H241.906V96.3584H243.141V98.874H250.359V96.3584H251.562V103.468H247.328V106.468H253.125ZM243.141 102.468H250.359V99.874H243.141V102.468ZM266.094 95.374V109.265H264.891V102.077H262.891V108.546H261.734V95.6865H262.891V101.03H264.891V95.374H266.094ZM254.938 105.671V97.0771H256.156V104.577C257.531 104.569 259.016 104.468 260.703 104.124L260.859 105.218C258.922 105.569 257.328 105.671 255.797 105.671H254.938ZM271.781 96.4521C273.828 96.46 275.281 98.3428 275.297 101.296C275.281 104.257 273.828 106.132 271.781 106.124C269.719 106.132 268.273 104.257 268.281 101.296C268.273 98.3428 269.719 96.46 271.781 96.4521ZM269.438 101.296C269.445 103.554 270.406 105.038 271.781 105.03C273.172 105.038 274.109 103.554 274.109 101.296C274.109 99.0381 273.172 97.5537 271.781 97.5459C270.406 97.5537 269.445 99.0381 269.438 101.296ZM277.594 109.265V95.374H278.812V98.874H281.062V99.9209H278.812V103.015H281.062V104.046H278.812V109.265H277.594ZM288.828 97.7803V98.7803H281.859V97.7803H284.75V95.7959H285.969V97.7803H288.828ZM282.359 102.874C282.359 101.03 283.617 99.7256 285.344 99.7178C287.094 99.7256 288.344 101.03 288.359 102.874C288.344 104.741 287.094 106.054 285.344 106.062C283.617 106.054 282.359 104.741 282.359 102.874ZM283.453 102.874C283.453 104.108 284.242 104.991 285.344 104.983C286.453 104.991 287.266 104.108 287.266 102.874C287.266 101.655 286.453 100.765 285.344 100.749C284.242 100.765 283.453 101.655 283.453 102.874ZM289.547 108.577V95.7178H290.703V101.233H292.547V95.374H293.719V109.265H292.547V102.249H290.703V108.577H289.547ZM308.438 106.452V107.483H295.719V106.452H298.875V102.71C297.688 102.093 296.969 101.093 296.969 99.8271C296.969 97.6787 299.078 96.2646 302.047 96.249C305.016 96.2646 307.125 97.6787 307.125 99.8271C307.125 101.069 306.43 102.054 305.281 102.671V106.452H308.438ZM298.156 99.8271C298.148 101.382 299.766 102.421 302.047 102.421C304.305 102.421 305.938 101.382 305.938 99.8271C305.938 98.2725 304.305 97.249 302.047 97.2646C299.766 97.249 298.148 98.2725 298.156 99.8271ZM300.078 106.452H304.047V103.147C303.445 103.304 302.773 103.39 302.047 103.39C301.336 103.39 300.672 103.312 300.078 103.155V106.452ZM311.016 108.093C310.469 108.085 310 107.632 310.016 107.077C310 106.53 310.469 106.077 311.016 106.077C311.57 106.077 312.023 106.53 312.016 107.077C312.023 107.632 311.57 108.085 311.016 108.093Z" fill="#262626"/>
<path d="M167.234 96.6865V107.999H164.875V98.9209H164.812L162.219 100.546V98.4678L165.016 96.6865H167.234ZM171.781 106.843L170.438 111.296H168.781L169.562 106.843H171.781ZM177.766 108.155C174.93 108.155 173.219 106.046 173.219 102.343C173.219 98.6475 174.945 96.5303 177.766 96.5303C180.586 96.5303 182.312 98.6475 182.312 102.343C182.312 106.062 180.594 108.155 177.766 108.155ZM175.625 102.343C175.609 104.952 176.453 106.218 177.766 106.218C179.078 106.218 179.914 104.952 179.906 102.343C179.914 99.7568 179.07 98.46 177.766 98.4521C176.461 98.46 175.625 99.7568 175.625 102.343ZM188.328 108.155C185.492 108.155 183.781 106.046 183.781 102.343C183.781 98.6475 185.508 96.5303 188.328 96.5303C191.148 96.5303 192.875 98.6475 192.875 102.343C192.875 106.062 191.156 108.155 188.328 108.155ZM186.188 102.343C186.172 104.952 187.016 106.218 188.328 106.218C189.641 106.218 190.477 104.952 190.469 102.343C190.477 99.7568 189.633 98.46 188.328 98.4521C187.023 98.46 186.188 99.7568 186.188 102.343ZM198.891 108.155C196.055 108.155 194.344 106.046 194.344 102.343C194.344 98.6475 196.07 96.5303 198.891 96.5303C201.711 96.5303 203.438 98.6475 203.438 102.343C203.438 106.062 201.719 108.155 198.891 108.155ZM196.75 102.343C196.734 104.952 197.578 106.218 198.891 106.218C200.203 106.218 201.039 104.952 201.031 102.343C201.039 99.7568 200.195 98.46 198.891 98.4521C197.586 98.46 196.75 99.7568 196.75 102.343ZM216.641 95.2334V105.968H214.641V104.843H211.922V103.483H214.641V95.2334H216.641ZM204.547 101.53C207.148 101.515 210.664 101.476 213.672 101.108L213.781 102.53C212.656 102.718 211.492 102.851 210.344 102.937V105.64H208.344V107.593H216.953V109.187H206.359V104.937H208.344V103.054C207.07 103.101 205.859 103.108 204.781 103.108L204.547 101.53ZM205.594 98.2646C205.594 96.749 207.055 95.71 209.172 95.7178C211.234 95.71 212.711 96.749 212.719 98.2646C212.711 99.7881 211.234 100.772 209.172 100.765C207.055 100.772 205.594 99.7881 205.594 98.2646ZM207.484 98.2646C207.477 98.9521 208.156 99.335 209.172 99.3271C210.125 99.335 210.812 98.9521 210.828 98.2646C210.812 97.5615 210.125 97.1709 209.172 97.1709C208.156 97.1709 207.477 97.5615 207.484 98.2646Z" fill="#262626"/>
<rect x="80" y="95.999" width="52" height="12" rx="4" fill="#CFF2E5"/>
<path d="M49.9991 117.999C58.8351 117.999 65.9981 110.836 65.9981 101.999C65.9981 93.1632 58.8351 86 49.9991 86C41.163 86 34 93.1632 34 101.999C34 110.836 41.163 117.999 49.9991 117.999Z" fill="#F4F4F4"/>
<mask id="mask1_1776_3617" style="mask-type:luminance" maskUnits="userSpaceOnUse" x="34" y="85" width="33" height="33">
<path d="M50.003 117.998C58.839 117.998 66.002 110.835 66.002 101.998C66.002 93.1622 58.839 85.999 50.003 85.999C41.1669 85.999 34.0039 93.1622 34.0039 101.998C34.0039 110.835 41.1669 117.998 50.003 117.998Z" fill="white"/>
</mask>
<g mask="url(#mask1_1776_3617)">
<path d="M66.4252 111.729C68.9793 111.108 71.2075 109.308 72.2648 106.682C74.0042 102.361 71.9124 97.4503 67.5924 95.7109C65.0004 94.6687 62.1924 95.006 59.987 96.3778C59.3466 93.8616 57.5579 91.675 54.9622 90.6291C50.6422 88.8897 45.7311 90.9815 43.9917 95.3016C42.9344 97.9277 43.2944 100.77 44.7079 102.987C42.1538 103.608 39.9256 105.408 38.8683 108.034C37.129 112.354 39.2208 117.266 43.5407 119.005C46.1327 120.047 48.9407 119.71 51.1462 118.338C51.7866 120.854 53.5752 123.041 56.171 124.087C60.491 125.826 65.4021 123.734 67.1415 119.414C68.1987 116.788 67.8387 113.946 66.4252 111.729Z" fill="url(#paint1_linear_1776_3617)"/>
<path d="M47.8197 102.506C46.8761 102.128 46.3797 101.146 46.7093 100.32C46.8268 100.028 47.1565 99.8879 47.4483 100.005C47.7401 100.123 47.8803 100.453 47.7628 100.744C47.6794 100.953 47.8538 101.294 48.2403 101.449C48.6268 101.605 48.9906 101.48 49.074 101.271C49.1914 100.979 49.5211 100.839 49.8129 100.957C50.1047 101.074 50.2449 101.404 50.1274 101.696C49.8015 102.525 48.7632 102.885 47.8197 102.506Z" fill="#262626"/>
<path d="M53.5013 104.794C52.5577 104.415 52.0613 103.433 52.391 102.607C52.5085 102.315 52.8381 102.175 53.1299 102.292C53.4217 102.41 53.5619 102.74 53.4444 103.031C53.3611 103.24 53.5354 103.581 53.9219 103.736C54.3084 103.892 54.6722 103.767 54.7556 103.558C54.8731 103.266 55.2028 103.126 55.4945 103.244C55.7863 103.361 55.9265 103.691 55.8091 103.983C55.4832 104.809 54.4449 105.173 53.5013 104.794Z" fill="#262626"/>
<path fill-rule="evenodd" clip-rule="evenodd" d="M47.6822 103.781C47.3525 103.648 47.0532 103.83 47.0039 104.182C46.8106 105.524 47.6557 106.926 49.1108 107.51C50.5622 108.093 52.1462 107.669 52.9344 106.57C53.1428 106.282 53.0519 105.941 52.7222 105.808L47.6822 103.781Z" fill="#FAFAFA"/>
</g>
<path d="M228.891 43.625C231.977 43.625 233.789 44.4766 233.797 46.0156C233.789 47.5938 231.977 48.4453 228.891 48.4531C225.789 48.4453 223.969 47.5938 223.969 46.0156C223.969 44.4766 225.789 43.625 228.891 43.625ZM222.562 50.3906V49.3906H235.219V50.3906H222.562ZM224.094 52.5312V51.5938H233.594V54.7031H225.344V56.1406H234.016V57.1094H224.125V53.7969H232.391V52.5312H224.094ZM225.25 46.0156C225.234 46.9844 226.586 47.5156 228.891 47.5156C231.195 47.5156 232.539 46.9844 232.547 46.0156C232.539 45.1016 231.195 44.5547 228.891 44.5469C226.586 44.5547 225.234 45.1016 225.25 46.0156ZM251.266 43.375V46.7344H253.359V47.7656H251.266V51.5H250.047V43.375H251.266ZM241 50.625V44.1719H242.203V46.2969H246.25V44.1719H247.469V50.625H241ZM242.203 49.6406H246.25V47.2812H242.203V49.6406ZM242.547 57.0781V52.2812H251.375V53.2656H243.766V56.0781H251.641V57.0781H242.547ZM257.953 44.4531C260 44.4609 261.453 46.3438 261.469 49.2969C261.453 52.2578 260 54.1328 257.953 54.125C255.891 54.1328 254.445 52.2578 254.453 49.2969C254.445 46.3438 255.891 44.4609 257.953 44.4531ZM255.609 49.2969C255.617 51.5547 256.578 53.0391 257.953 53.0312C259.344 53.0391 260.281 51.5547 260.281 49.2969C260.281 47.0391 259.344 45.5547 257.953 45.5469C256.578 45.5547 255.617 47.0391 255.609 49.2969ZM263.766 57.2656V43.375H264.984V48.9219H267.312V49.9844H264.984V57.2656H263.766ZM271.781 44.4531C273.828 44.4609 275.281 46.3438 275.297 49.2969C275.281 52.2578 273.828 54.1328 271.781 54.125C269.719 54.1328 268.273 52.2578 268.281 49.2969C268.273 46.3438 269.719 44.4609 271.781 44.4531ZM269.438 49.2969C269.445 51.5547 270.406 53.0391 271.781 53.0312C273.172 53.0391 274.109 51.5547 274.109 49.2969C274.109 47.0391 273.172 45.5547 271.781 45.5469C270.406 45.5547 269.445 47.0391 269.438 49.2969ZM277.594 57.2656V43.375H278.812V46.875H281.062V47.9219H278.812V51.0156H281.062V52.0469H278.812V57.2656H277.594ZM288.828 45.7812V46.7812H281.859V45.7812H284.75V43.7969H285.969V45.7812H288.828ZM282.359 50.875C282.359 49.0312 283.617 47.7266 285.344 47.7188C287.094 47.7266 288.344 49.0312 288.359 50.875C288.344 52.7422 287.094 54.0547 285.344 54.0625C283.617 54.0547 282.359 52.7422 282.359 50.875ZM283.453 50.875C283.453 52.1094 284.242 52.9922 285.344 52.9844C286.453 52.9922 287.266 52.1094 287.266 50.875C287.266 49.6562 286.453 48.7656 285.344 48.75C284.242 48.7656 283.453 49.6562 283.453 50.875ZM289.547 56.5781V43.7188H290.703V49.2344H292.547V43.375H293.719V57.2656H292.547V50.25H290.703V56.5781H289.547ZM308.438 54.4531V55.4844H295.719V54.4531H298.875V50.7109C297.688 50.0938 296.969 49.0938 296.969 47.8281C296.969 45.6797 299.078 44.2656 302.047 44.25C305.016 44.2656 307.125 45.6797 307.125 47.8281C307.125 49.0703 306.43 50.0547 305.281 50.6719V54.4531H308.438ZM298.156 47.8281C298.148 49.3828 299.766 50.4219 302.047 50.4219C304.305 50.4219 305.938 49.3828 305.938 47.8281C305.938 46.2734 304.305 45.25 302.047 45.2656C299.766 45.25 298.148 46.2734 298.156 47.8281ZM300.078 54.4531H304.047V51.1484C303.445 51.3047 302.773 51.3906 302.047 51.3906C301.336 51.3906 300.672 51.3125 300.078 51.1562V54.4531ZM311.016 56.0938C310.469 56.0859 310 55.6328 310.016 55.0781C310 54.5312 310.469 54.0781 311.016 54.0781C311.57 54.0781 312.023 54.5312 312.016 55.0781C312.023 55.6328 311.57 56.0859 311.016 56.0938Z" fill="#262626"/>
<path d="M148.891 56L148.875 54.2969L152.938 50.5625C153.992 49.5547 154.562 48.9297 154.562 48.0312C154.562 47.0234 153.805 46.3984 152.766 46.4062C151.703 46.3984 151.008 47.0703 151.016 48.1562H148.781C148.773 45.9453 150.414 44.5312 152.797 44.5312C155.219 44.5312 156.828 45.9141 156.828 47.875C156.828 49.1641 156.203 50.2188 153.875 52.3281L152.156 54V54.0625H156.984V56H148.891ZM158.656 56L158.641 54.2969L162.703 50.5625C163.758 49.5547 164.328 48.9297 164.328 48.0312C164.328 47.0234 163.57 46.3984 162.531 46.4062C161.469 46.3984 160.773 47.0703 160.781 48.1562H158.547C158.539 45.9453 160.18 44.5312 162.562 44.5312C164.984 44.5312 166.594 45.9141 166.594 47.875C166.594 49.1641 165.969 50.2188 163.641 52.3281L161.922 54V54.0625H166.75V56H158.656ZM170.953 54.8438L169.609 59.2969H167.953L168.734 54.8438H170.953ZM176.938 56.1562C174.102 56.1562 172.391 54.0469 172.391 50.3438C172.391 46.6484 174.117 44.5312 176.938 44.5312C179.758 44.5312 181.484 46.6484 181.484 50.3438C181.484 54.0625 179.766 56.1562 176.938 56.1562ZM174.797 50.3438C174.781 52.9531 175.625 54.2188 176.938 54.2188C178.25 54.2188 179.086 52.9531 179.078 50.3438C179.086 47.7578 178.242 46.4609 176.938 46.4531C175.633 46.4609 174.797 47.7578 174.797 50.3438ZM187.5 56.1562C184.664 56.1562 182.953 54.0469 182.953 50.3438C182.953 46.6484 184.68 44.5312 187.5 44.5312C190.32 44.5312 192.047 46.6484 192.047 50.3438C192.047 54.0625 190.328 56.1562 187.5 56.1562ZM185.359 50.3438C185.344 52.9531 186.188 54.2188 187.5 54.2188C188.812 54.2188 189.648 52.9531 189.641 50.3438C189.648 47.7578 188.805 46.4609 187.5 46.4531C186.195 46.4609 185.359 47.7578 185.359 50.3438ZM198.062 56.1562C195.227 56.1562 193.516 54.0469 193.516 50.3438C193.516 46.6484 195.242 44.5312 198.062 44.5312C200.883 44.5312 202.609 46.6484 202.609 50.3438C202.609 54.0625 200.891 56.1562 198.062 56.1562ZM195.922 50.3438C195.906 52.9531 196.75 54.2188 198.062 54.2188C199.375 54.2188 200.211 52.9531 200.203 50.3438C200.211 47.7578 199.367 46.4609 198.062 46.4531C196.758 46.4609 195.922 47.7578 195.922 50.3438ZM215.812 43.2344V53.9688H213.812V52.8438H211.094V51.4844H213.812V43.2344H215.812ZM203.719 49.5312C206.32 49.5156 209.836 49.4766 212.844 49.1094L212.953 50.5312C211.828 50.7188 210.664 50.8516 209.516 50.9375V53.6406H207.516V55.5938H216.125V57.1875H205.531V52.9375H207.516V51.0547C206.242 51.1016 205.031 51.1094 203.953 51.1094L203.719 49.5312ZM204.766 46.2656C204.766 44.75 206.227 43.7109 208.344 43.7188C210.406 43.7109 211.883 44.75 211.891 46.2656C211.883 47.7891 210.406 48.7734 208.344 48.7656C206.227 48.7734 204.766 47.7891 204.766 46.2656ZM206.656 46.2656C206.648 46.9531 207.328 47.3359 208.344 47.3281C209.297 47.3359 209.984 46.9531 210 46.2656C209.984 45.5625 209.297 45.1719 208.344 45.1719C207.328 45.1719 206.648 45.5625 206.656 46.2656Z" fill="#262626"/>
<rect x="80" y="44" width="52" height="12" rx="4" fill="#CFF2E5"/>
<path d="M49.9989 65.9979C58.8349 65.9979 65.9978 58.835 65.9978 49.999C65.9978 41.163 58.8349 34 49.9989 34C41.163 34 34 41.163 34 49.999C34 58.835 41.163 65.9979 49.9989 65.9979Z" fill="#F4F4F4"/>
<mask id="mask2_1776_3617" style="mask-type:luminance" maskUnits="userSpaceOnUse" x="34" y="34" width="32" height="32">
<path d="M50.0009 65.9989C58.8368 65.9989 65.9998 58.8359 65.9998 49.9999C65.9998 41.164 58.8368 34.001 50.0009 34.001C41.1649 34.001 34.002 41.164 34.002 49.9999C34.002 58.8359 41.1649 65.9989 50.0009 65.9989Z" fill="white"/>
</mask>
<g mask="url(#mask2_1776_3617)">
<path d="M54.369 52.2324C56.3054 50.4552 57.3891 47.8026 57.0443 44.9909C56.4797 40.3677 52.2734 37.0785 47.6503 37.6431C44.8765 37.9842 42.5839 39.6326 41.3145 41.8987C39.5372 40.004 36.9149 38.9543 34.1373 39.2953C29.5142 39.86 26.225 44.0662 26.7896 48.6893C27.1345 51.4973 28.8208 53.8126 31.1285 55.0707C29.1921 56.848 28.1083 59.5006 28.4532 62.3123C29.0178 66.9354 33.2241 70.2247 37.8471 69.66C40.621 69.319 42.9136 67.6706 44.183 65.4045C45.9603 67.2992 48.5825 68.3489 51.3602 68.0078C55.9833 67.4432 59.2725 63.2369 58.7079 58.6138C58.3668 55.8059 56.6767 53.4905 54.369 52.2324Z" fill="url(#paint2_linear_1776_3617)"/>
<path d="M44.1852 52.0355C44.8905 52.0355 45.4623 51.4638 45.4623 50.7585C45.4623 50.0532 44.8905 49.4814 44.1852 49.4814C43.48 49.4814 42.9082 50.0532 42.9082 50.7585C42.9082 51.4638 43.48 52.0355 44.1852 52.0355Z" fill="#262626"/>
<path d="M50.2634 51.2933C50.9686 51.2933 51.5404 50.7216 51.5404 50.0163C51.5404 49.311 50.9686 48.7393 50.2634 48.7393C49.5581 48.7393 48.9863 49.311 48.9863 50.0163C48.9863 50.7216 49.5581 51.2933 50.2634 51.2933Z" fill="#262626"/>
<path fill-rule="evenodd" clip-rule="evenodd" d="M50.0649 52.3771C50.4439 52.3316 50.7887 52.6007 50.838 52.9796L50.9668 54.0331C51.1638 55.636 49.8679 57.1139 48.0755 57.3337C46.2793 57.5534 44.6688 56.4318 44.4717 54.8288L44.3429 53.7754C44.2974 53.3964 44.5665 53.0516 44.9454 53.0023L50.0649 52.3771Z" fill="#FAFAFA"/>
</g>
<defs>
<filter id="filter0_d_1776_3617" x="0" y="0" width="348" height="204" filterUnits="userSpaceOnUse" color-interpolation-filters="sRGB">
<feFlood flood-opacity="0" result="BackgroundImageFix"/>
<feColorMatrix in="SourceAlpha" type="matrix" values="0 0 0 0 0 0 0 0 0 0 0 0 0 0 0 0 0 0 127 0" result="hardAlpha"/>
<feMorphology radius="2" operator="dilate" in="SourceAlpha" result="effect1_dropShadow_1776_3617"/>
<feOffset/>
<feGaussianBlur stdDeviation="6"/>
<feComposite in2="hardAlpha" operator="out"/>
<feColorMatrix type="matrix" values="0 0 0 0 0 0 0 0 0 0 0 0 0 0 0 0 0 0 0.05 0"/>
<feBlend mode="normal" in2="BackgroundImageFix" result="effect1_dropShadow_1776_3617"/>
<feBlend mode="normal" in="SourceGraphic" in2="effect1_dropShadow_1776_3617" result="shape"/>
</filter>
<linearGradient id="paint0_linear_1776_3617" x1="62.7983" y1="178.523" x2="38.1707" y2="153.897" gradientUnits="userSpaceOnUse">
<stop offset="2.77045e-07" stop-color="#31C690"/>
<stop offset="1" stop-color="#A7E7D0"/>
</linearGradient>
<linearGradient id="paint1_linear_1776_3617" x1="70.1001" y1="121.866" x2="42.1777" y2="93.8885" gradientUnits="userSpaceOnUse">
<stop offset="2.77045e-07" stop-color="#31C690"/>
<stop offset="1" stop-color="#A7E7D0"/>
</linearGradient>
<linearGradient id="paint2_linear_1776_3617" x1="56.2004" y1="67.0967" x2="30.3227" y2="41.2022" gradientUnits="userSpaceOnUse">
<stop offset="2.77045e-07" stop-color="#31C690"/>
<stop offset="1" stop-color="#A7E7D0"/>
</linearGradient>
</defs>
</svg>
