<svg width="48" height="48" viewBox="0 0 48 48" fill="none" xmlns="http://www.w3.org/2000/svg">
<circle cx="24" cy="24" r="24" fill="black"/>
<path d="M31.4691 30.2487C30.5483 31.6126 29.5721 32.9435 28.0855 32.9655C26.599 32.9985 26.122 32.0966 24.4358 32.0966C22.7385 32.0966 22.2171 32.9435 20.8081 32.9985C19.3549 33.0535 18.2566 31.5466 17.3248 30.2157C15.4278 27.4989 13.9745 22.4942 15.927 19.1285C16.8921 17.4566 18.6227 16.4006 20.4975 16.3676C21.9175 16.3456 23.2709 17.3246 24.1473 17.3246C25.0126 17.3246 26.6545 16.1477 28.374 16.3236C29.0951 16.3566 31.1141 16.6096 32.412 18.5015C32.3122 18.5675 30.0047 19.9094 30.0269 22.6922C30.0602 26.014 32.9667 27.1249 33 27.1359C32.9667 27.2129 32.5341 28.7198 31.4691 30.2487ZM25.1347 12.6499C25.9445 11.737 27.2868 11.044 28.3962 11C28.5404 12.2869 28.019 13.5848 27.2424 14.5088C26.477 15.4437 25.2123 16.1697 23.9698 16.0707C23.8034 14.8057 24.4247 13.4858 25.1347 12.6499Z" fill="white"/>
</svg>
