<svg width="24" height="24" viewBox="0 0 24 24" fill="none" xmlns="http://www.w3.org/2000/svg">
<mask id="mask0_975_2511" style="mask-type:alpha" maskUnits="userSpaceOnUse" x="0" y="0" width="24" height="24">
<rect width="24" height="24" fill="#D9D9D9"/>
</mask>
<g mask="url(#mask0_975_2511)">
<path d="M12 11.6992C11.0333 11.6992 10.2083 11.3576 9.525 10.6742C8.84167 9.99089 8.5 9.16589 8.5 8.19922C8.5 7.23255 8.84167 6.40755 9.525 5.72422C10.2083 5.04089 11.0333 4.69922 12 4.69922C12.9667 4.69922 13.7917 5.04089 14.475 5.72422C15.1583 6.40755 15.5 7.23255 15.5 8.19922C15.5 9.16589 15.1583 9.99089 14.475 10.6742C13.7917 11.3576 12.9667 11.6992 12 11.6992ZM6.025 19.2992C5.59167 19.2992 5.22933 19.1536 4.938 18.8622C4.646 18.5702 4.5 18.2159 4.5 17.7992V17.0742C4.5 16.5909 4.63333 16.1409 4.9 15.7242C5.16667 15.3076 5.525 14.9826 5.975 14.7492C6.95833 14.2659 7.95433 13.9032 8.963 13.6612C9.971 13.4199 10.9833 13.2992 12 13.2992C13.0167 13.2992 14.0293 13.4199 15.038 13.6612C16.046 13.9032 17.0417 14.2659 18.025 14.7492C18.475 14.9826 18.8333 15.3076 19.1 15.7242C19.3667 16.1409 19.5 16.5909 19.5 17.0742V17.7992C19.5 18.2159 19.354 18.5702 19.062 18.8622C18.7707 19.1536 18.4083 19.2992 17.975 19.2992H6.025Z" fill="#262626"/>
</g>
</svg>
