<svg width="24" height="24" viewBox="0 0 24 24" fill="none" xmlns="http://www.w3.org/2000/svg">
<path d="M13.6602 18.7727L7.19417 12.4831C7.12945 12.4199 7.08104 12.3472 7.04893 12.2648C7.01631 12.183 7 12.0979 7 12.0095C7 11.9211 7.01631 11.8357 7.04893 11.7533C7.08104 11.6715 7.12945 11.599 7.19417 11.5359L13.6602 5.22733C13.8155 5.07578 13.9968 5 14.2039 5C14.411 5 14.5987 5.08209 14.767 5.24628C14.9223 5.38521 15 5.55874 15 5.76687C15 5.97552 14.9223 6.15562 14.767 6.30717L8.90291 12.0095L14.767 17.7307C14.9094 17.8696 14.9806 18.0401 14.9806 18.2422C14.9806 18.4443 14.9029 18.6211 14.7476 18.7727C14.5922 18.9242 14.411 19 14.2039 19C13.9968 19 13.8155 18.9242 13.6602 18.7727Z" fill="#8C8C8C"/>
</svg>
