<svg width="24" height="24" viewBox="0 0 24 24" fill="none" xmlns="http://www.w3.org/2000/svg">
<path d="M14.4508 6.87559C14.6008 7.02559 14.6758 7.20059 14.6758 7.40059C14.6758 7.60058 14.6008 7.77559 14.4508 7.92558L10.3758 12.0006L14.4508 16.0756C14.6008 16.2256 14.6758 16.4006 14.6758 16.6006C14.6758 16.8006 14.6008 16.9756 14.4508 17.1256C14.3008 17.2756 14.1258 17.3506 13.9258 17.3506C13.7258 17.3506 13.5508 17.2756 13.4008 17.1256L8.90078 12.6256C8.81745 12.5423 8.75478 12.4466 8.71278 12.3386C8.67145 12.2299 8.65078 12.1173 8.65078 12.0006C8.65078 11.8839 8.67145 11.7716 8.71278 11.6636C8.75478 11.5549 8.81745 11.4589 8.90078 11.3756L13.4008 6.87559C13.5508 6.72559 13.7258 6.65059 13.9258 6.65059C14.1258 6.65059 14.3008 6.72559 14.4508 6.87559Z" fill="white"/>
</svg>
