<svg width="24" height="24" viewBox="0 0 24 24" fill="none" xmlns="http://www.w3.org/2000/svg">
<path d="M9.15039 16.8504C9.06706 16.7671 9.02539 16.6837 9.02539 16.6004C9.02539 16.5171 9.06706 16.4337 9.15039 16.3504L13.5004 12.0004L9.15039 7.65039C9.06706 7.56706 9.02539 7.48372 9.02539 7.40039C9.02539 7.31706 9.06706 7.23372 9.15039 7.15039C9.23372 7.06706 9.31706 7.02539 9.40039 7.02539C9.48372 7.02539 9.56706 7.06706 9.65039 7.15039L13.9754 11.4754C14.0587 11.5587 14.1171 11.6421 14.1504 11.7254C14.1837 11.8087 14.2004 11.9004 14.2004 12.0004C14.2004 12.1004 14.1837 12.1921 14.1504 12.2754C14.1171 12.3587 14.0587 12.4421 13.9754 12.5254L9.65039 16.8504C9.56706 16.9337 9.48372 16.9754 9.40039 16.9754C9.31706 16.9754 9.23372 16.9337 9.15039 16.8504Z" fill="#8C8C8C"/>
</svg>
