<svg width="6" height="10" viewBox="0 0 6 10" fill="none" xmlns="http://www.w3.org/2000/svg">
<path d="M0.150391 9.85039C0.0670573 9.76706 0.0253906 9.68372 0.0253906 9.60039C0.0253906 9.51706 0.0670573 9.43372 0.150391 9.35039L4.50039 5.00039L0.150391 0.650391C0.0670573 0.567057 0.0253906 0.483724 0.0253906 0.400391C0.0253906 0.317057 0.0670573 0.233724 0.150391 0.150391C0.233724 0.0670573 0.317057 0.0253906 0.400391 0.0253906C0.483724 0.0253906 0.567057 0.0670573 0.650391 0.150391L4.97539 4.47539C5.05872 4.55872 5.11706 4.64206 5.15039 4.72539C5.18372 4.80872 5.20039 4.90039 5.20039 5.00039C5.20039 5.10039 5.18372 5.19206 5.15039 5.27539C5.11706 5.35872 5.05872 5.44206 4.97539 5.52539L0.650391 9.85039C0.567057 9.93372 0.483724 9.97539 0.400391 9.97539C0.317057 9.97539 0.233724 9.93372 0.150391 9.85039Z" fill="#8C8C8C"/>
</svg>
