<svg width="110" height="110" viewBox="0 0 110 110" fill="none" xmlns="http://www.w3.org/2000/svg">
<circle cx="55" cy="55" r="55" fill="#A7E7D0"/>
<path d="M63.9506 77.8123L58.0419 47.1811C57.7977 45.5724 58.5333 43.9844 59.8943 43.0808C62.527 41.3328 64.1621 38.2161 63.766 34.7527C63.3103 30.7501 60.0373 27.5 56.0108 27.0556C50.6857 26.469 46.1797 30.599 46.1797 35.7778C46.1797 38.8205 47.7343 41.4987 50.099 43.0719C51.463 43.9814 52.2106 45.5576 51.9634 47.1723C50.7721 55.0263 47.5497 67.9466 46.0517 77.8183C45.6377 80.5499 47.7641 83 50.5398 83H59.4625C62.2382 83 64.3646 80.5439 63.9476 77.8123H63.9506Z" fill="#DFF6EE"/>
</svg>
