<svg width="36" height="36" viewBox="0 0 36 36" fill="none" xmlns="http://www.w3.org/2000/svg">
<path d="M18 36C27.9411 36 36 27.9411 36 18C36 8.05888 27.9411 0 18 0C8.05888 0 0 8.05888 0 18C0 27.9411 8.05888 36 18 36Z" fill="#F4F4F4"/>
<mask id="mask0_1373_2664" style="mask-type:luminance" maskUnits="userSpaceOnUse" x="0" y="0" width="36" height="36">
<path d="M18 36C27.9411 36 36 27.9411 36 18C36 8.05888 27.9411 0 18 0C8.05888 0 0 8.05888 0 18C0 27.9411 8.05888 36 18 36Z" fill="white"/>
</mask>
<g mask="url(#mask0_1373_2664)">
<path d="M34.6869 5.07104C35.9872 2.41495 36.0299 -0.808173 34.5164 -3.60922C32.0265 -8.21793 26.271 -9.93607 21.6623 -7.44626C18.8953 -5.94981 17.1729 -3.28094 16.7722 -0.386099C14.1331 -1.63953 10.9526 -1.66085 8.18571 -0.168662C3.57699 2.32115 1.85885 8.07672 4.34866 12.6854C5.86216 15.4865 8.5822 17.2174 11.5154 17.5883C10.2151 20.2444 10.1724 23.4675 11.6859 26.2686C14.1758 30.8773 19.9313 32.5954 24.54 30.1056C27.307 28.6092 29.0294 25.9403 29.4301 23.0455C32.0692 24.2989 35.2497 24.3202 38.0166 22.828C42.6253 20.3382 44.3434 14.5826 41.8536 9.97393C40.3401 7.17289 37.6201 5.44195 34.6869 5.07104Z" fill="url(#paint0_linear_1373_2664)"/>
<path d="M12.7825 14.8852C13.576 14.8852 14.2192 14.242 14.2192 13.4485C14.2192 12.655 13.576 12.0117 12.7825 12.0117C11.989 12.0117 11.3457 12.655 11.3457 13.4485C11.3457 14.242 11.989 14.8852 12.7825 14.8852Z" fill="#262626"/>
<path d="M18.8489 11.6118C19.6424 11.6118 20.2856 10.9686 20.2856 10.1751C20.2856 9.38155 19.6424 8.73828 18.8489 8.73828C18.0554 8.73828 17.4121 9.38155 17.4121 10.1751C17.4121 10.9686 18.0554 11.6118 18.8489 11.6118Z" fill="#262626"/>
<path d="M18.1246 16.085C17.1185 16.6307 15.9119 16.3536 15.4345 15.4754C15.2682 15.1641 15.3833 14.7762 15.6945 14.6099C16.0057 14.4436 16.3937 14.5587 16.56 14.87C16.6794 15.0917 17.1014 15.1855 17.515 14.9638C17.9285 14.7421 18.082 14.337 17.9626 14.1153C17.7964 13.8041 17.9115 13.4162 18.2227 13.2499C18.5339 13.0836 18.9219 13.1987 19.0882 13.5099C19.5614 14.3797 19.1308 15.5393 18.1246 16.085Z" fill="#FAFAFA"/>
</g>
<defs>
<linearGradient id="paint0_linear_1373_2664" x1="31.8065" y1="26.408" x2="15.0436" y2="-2.62397" gradientUnits="userSpaceOnUse">
<stop offset="2.82373e-07" stop-color="#FF965B"/>
<stop offset="1" stop-color="#FFDECC"/>
</linearGradient>
</defs>
</svg>
