<svg width="32" height="32" viewBox="0 0 32 32" fill="none" xmlns="http://www.w3.org/2000/svg">
<circle cx="16" cy="16" r="16" fill="#D9D9D9"/>
<circle cx="16" cy="16" r="16" stroke="#F1F1F1"/>
<path d="M16 15.7123C15.0978 15.7123 14.3278 15.3847 13.69 14.7295C13.0522 14.0742 12.7333 13.2831 12.7333 12.3562C12.7333 11.4292 13.0522 10.6381 13.69 9.98288C14.3278 9.32763 15.0978 9 16 9C16.9022 9 17.6722 9.32763 18.31 9.98288C18.9478 10.6381 19.2667 11.4292 19.2667 12.3562C19.2667 13.2831 18.9478 14.0742 18.31 14.7295C17.6722 15.3847 16.9022 15.7123 16 15.7123ZM10.4233 23C10.0189 23 9.68071 22.8603 9.4088 22.581C9.13627 22.301 9 21.9612 9 21.5616V20.8664C9 20.403 9.12444 19.9715 9.37333 19.5719C9.62222 19.1724 9.95667 18.8607 10.3767 18.637C11.2944 18.1735 12.224 17.8258 13.1655 17.5937C14.1063 17.3623 15.0511 17.2466 16 17.2466C16.9489 17.2466 17.894 17.3623 18.8355 17.5937C19.7763 17.8258 20.7056 18.1735 21.6233 18.637C22.0433 18.8607 22.3778 19.1724 22.6267 19.5719C22.8756 19.9715 23 20.403 23 20.8664V21.5616C23 21.9612 22.8637 22.301 22.5912 22.581C22.3193 22.8603 21.9811 23 21.5767 23H10.4233Z" fill="white"/>
</svg>
