<svg width="328" height="454" viewBox="0 0 328 454" fill="none" xmlns="http://www.w3.org/2000/svg">
<g filter="url(#filter0_d_1776_3616)">
<rect x="14" y="208" width="300" height="232" rx="12" fill="white"/>
</g>
<rect x="226" y="399" width="62" height="14" rx="4" fill="#A7E7D0"/>
<rect x="34" y="396" width="4" height="20" rx="2" fill="#7FDCBA"/>
<path d="M53.7969 409.516V418H52.7305V410.617H52.6836L50.6211 411.988V410.922L52.7305 409.516H53.7969ZM58.8242 418.117C57.2949 418.117 56.1348 417.174 56.0703 415.867H57.0898C57.166 416.623 57.9043 417.186 58.8242 417.191C59.9258 417.186 60.7227 416.383 60.7227 415.316C60.7227 414.215 59.8965 413.4 58.7539 413.395C58.0391 413.383 57.4824 413.605 57.1719 414.156H56.1523L56.75 409.516H61.3438V410.453H57.6289L57.3125 412.938H57.3945C57.7754 412.645 58.3438 412.445 58.9414 412.445C60.5586 412.445 61.748 413.641 61.7539 415.293C61.748 416.934 60.5176 418.117 58.8242 418.117ZM67.543 415.961C67.543 415.035 68.1406 414.244 69.207 414.25C70.2852 414.244 70.8594 415.035 70.8594 415.961V416.406C70.8594 417.338 70.2676 418.123 69.207 418.129C68.123 418.123 67.543 417.338 67.543 416.406V415.961ZM63.3125 411.555V411.109C63.3066 410.178 63.916 409.387 64.9766 409.387C66.0605 409.387 66.623 410.178 66.6289 411.109V411.555C66.623 412.48 66.043 413.266 64.9766 413.266C63.8867 413.266 63.3066 412.48 63.3125 411.555ZM63.6289 418L69.4648 409.516H70.4141L64.5781 418H63.6289ZM64.168 411.555C64.168 412.059 64.3848 412.539 64.9766 412.539C65.5566 412.539 65.7617 412.059 65.7617 411.555V411.109C65.7617 410.6 65.5684 410.119 64.9766 410.113C64.4023 410.119 64.168 410.6 64.168 411.109V411.555ZM68.4102 416.406C68.4043 416.916 68.6152 417.396 69.207 417.391C69.7812 417.396 69.998 416.916 69.9922 416.406V415.961C69.998 415.457 69.7988 414.977 69.207 414.977C68.627 414.977 68.4043 415.457 68.4102 415.961V416.406Z" fill="#737373"/>
<path d="M59.9023 391.717V398.445H58.6963V397.062H55.8271V396.071H58.6963V394.688H55.9478C55.2114 396.516 53.5039 397.804 51.041 398.509L50.5586 397.569C53.25 396.801 54.8242 395.354 55.04 393.52H51.1426V392.529H56.3477C56.3477 392.948 56.3032 393.354 56.2271 393.735H58.6963V391.717H59.9023ZM52.3232 400.794C52.3232 399.417 53.8213 398.579 56.1572 398.572C58.4614 398.579 59.9722 399.417 59.9785 400.794C59.9722 402.178 58.4614 403.028 56.1572 403.028C53.8213 403.028 52.3232 402.178 52.3232 400.794ZM53.5166 400.794C53.5166 401.594 54.5322 402.057 56.1572 402.063C57.7505 402.057 58.7661 401.594 58.7725 400.794C58.7661 399.981 57.7505 399.518 56.1572 399.524C54.5322 399.518 53.5166 399.981 53.5166 400.794ZM72.0645 400.667V401.657H61.6543V400.667H66.25V397.976H67.4561V400.667H72.0645ZM62.1367 397.455C64.2505 397.1 66.2119 395.519 66.2119 393.773V393.672H62.5176V392.682H71.1631V393.672H67.4688V393.773C67.4688 395.519 69.4429 397.068 71.6074 397.404L71.125 398.356C69.2842 398.014 67.5894 396.947 66.8467 395.449C66.1167 396.966 64.4346 398.052 62.6318 398.407L62.1367 397.455ZM76.8379 394.599C76.8252 396.611 77.9995 398.674 79.6943 399.499L78.9453 400.464C77.7075 399.816 76.749 398.547 76.2476 397.03C75.7397 398.642 74.7432 400.007 73.4482 400.68L72.6992 399.702C74.4448 398.864 75.6255 396.681 75.6318 394.599V392.656H76.8379V394.599ZM80.5449 403.079V391.704H81.751V396.236H83.5791V397.265H81.751V403.079H80.5449Z" fill="#262626"/>
<rect x="216" y="339" width="72" height="14" rx="4" fill="#A7E7D0"/>
<rect x="34" y="336" width="4" height="20" rx="2" fill="#31C690"/>
<path d="M50.7969 358L50.7852 357.227L53.6797 354.18C54.6816 353.113 55.1621 352.539 55.168 351.754C55.1621 350.881 54.4355 350.318 53.4805 350.312C52.4668 350.318 51.834 350.957 51.8281 351.906H50.832C50.8203 350.406 51.9805 349.398 53.5156 349.398C55.0566 349.398 56.1465 350.436 56.1523 351.754C56.1465 352.703 55.707 353.441 54.207 354.988L52.2617 356.992V357.062H56.3047V358H50.7969ZM60.6055 358.117C59.0762 358.117 57.916 357.174 57.8516 355.867H58.8711C58.9473 356.623 59.6855 357.186 60.6055 357.191C61.707 357.186 62.5039 356.383 62.5039 355.316C62.5039 354.215 61.6777 353.4 60.5352 353.395C59.8203 353.383 59.2637 353.605 58.9531 354.156H57.9336L58.5312 349.516H63.125V350.453H59.4102L59.0938 352.938H59.1758C59.5566 352.645 60.125 352.445 60.7227 352.445C62.3398 352.445 63.5293 353.641 63.5352 355.293C63.5293 356.934 62.2988 358.117 60.6055 358.117ZM69.3242 355.961C69.3242 355.035 69.9219 354.244 70.9883 354.25C72.0664 354.244 72.6406 355.035 72.6406 355.961V356.406C72.6406 357.338 72.0488 358.123 70.9883 358.129C69.9043 358.123 69.3242 357.338 69.3242 356.406V355.961ZM65.0938 351.555V351.109C65.0879 350.178 65.6973 349.387 66.7578 349.387C67.8418 349.387 68.4043 350.178 68.4102 351.109V351.555C68.4043 352.48 67.8242 353.266 66.7578 353.266C65.668 353.266 65.0879 352.48 65.0938 351.555ZM65.4102 358L71.2461 349.516H72.1953L66.3594 358H65.4102ZM65.9492 351.555C65.9492 352.059 66.166 352.539 66.7578 352.539C67.3379 352.539 67.543 352.059 67.543 351.555V351.109C67.543 350.6 67.3496 350.119 66.7578 350.113C66.1836 350.119 65.9492 350.6 65.9492 351.109V351.555ZM70.1914 356.406C70.1855 356.916 70.3965 357.396 70.9883 357.391C71.5625 357.396 71.7793 356.916 71.7734 356.406V355.961C71.7793 355.457 71.5801 354.977 70.9883 354.977C70.4082 354.977 70.1855 355.457 70.1914 355.961V356.406Z" fill="#737373"/>
<path d="M60.791 338.115V339.093H56.1699V343.066H54.9893V339.093H50.4189V338.115H60.791ZM51.0029 336.3C53.123 336.008 54.8877 334.745 54.9258 333.342H51.3838V332.377H59.8135V333.342H56.2969C56.3159 334.745 58.0679 336.008 60.2197 336.3L59.7754 337.252C57.9092 336.96 56.2969 336.04 55.605 334.745C54.9067 336.04 53.3008 336.96 51.46 337.252L51.0029 336.3ZM71.125 331.704V343.079H69.9316V337.201H67.3799V336.211H69.9316V331.704H71.125ZM61.6289 340.02C64.644 338.547 65.9834 336.497 66.1929 333.888H62.1367V332.923H67.418C67.4053 336.217 66.123 339.061 62.2637 340.972L61.6289 340.02ZM76.7998 332.377L73.8418 343.384H72.6357L75.5938 332.377H76.7998ZM87.7686 337.684V338.636H77.3711V337.684H81.9668V336.693H78.7295V332.009H86.499V332.961H79.9482V333.888H86.207V334.789H79.9482V335.754H86.5752V336.693H83.1729V337.684H87.7686ZM78.6279 341.226C78.6279 340.032 80.0435 339.378 82.5762 339.385C85.0708 339.378 86.4927 340.032 86.499 341.226C86.4927 342.425 85.0708 343.06 82.5762 343.054C80.0435 343.06 78.6279 342.425 78.6279 341.226ZM79.834 341.226C79.8276 341.841 80.7798 342.152 82.5762 342.14C84.3472 342.152 85.293 341.841 85.293 341.226C85.293 340.61 84.3472 340.286 82.5762 340.286C80.7798 340.286 79.8276 340.61 79.834 341.226ZM98.0645 331.717V340.045H96.8584V331.717H98.0645ZM88.6953 337.48C90.479 336.82 91.5327 335.183 91.5391 333.469V332.339H92.7705V333.469C92.7642 335.132 93.8179 336.655 95.5762 337.265L94.9541 338.229C93.6401 337.741 92.6689 336.776 92.1611 335.544C91.6597 336.865 90.6758 337.918 89.3428 338.433L88.6953 337.48ZM90.625 342.838V339.258H91.8438V341.86H98.4072V342.838H90.625Z" fill="#262626"/>
<rect x="204" y="279" width="84" height="14" rx="4" fill="#A7E7D0"/>
<path d="M50.5859 296.266V295.398L54.4062 289.516H55.707V295.34H56.8906V296.266H55.707V298H54.6992V296.266H50.5859ZM51.7227 295.34H54.6992V290.852H54.5938L51.7227 295.27V295.34ZM61.0625 298.117C59.1816 298.117 58.0918 296.535 58.0977 293.758C58.0918 291.004 59.1934 289.398 61.0625 289.398C62.9258 289.398 64.0273 291.004 64.0273 293.758C64.0273 296.535 62.9434 298.117 61.0625 298.117ZM59.1172 293.758C59.123 295.955 59.832 297.18 61.0625 297.18C62.2871 297.18 63.002 295.955 62.9961 293.758C63.002 291.561 62.2812 290.318 61.0625 290.312C59.8438 290.318 59.123 291.561 59.1172 293.758ZM69.7578 295.961C69.7578 295.035 70.3555 294.244 71.4219 294.25C72.5 294.244 73.0742 295.035 73.0742 295.961V296.406C73.0742 297.338 72.4824 298.123 71.4219 298.129C70.3379 298.123 69.7578 297.338 69.7578 296.406V295.961ZM65.5273 291.555V291.109C65.5215 290.178 66.1309 289.387 67.1914 289.387C68.2754 289.387 68.8379 290.178 68.8438 291.109V291.555C68.8379 292.48 68.2578 293.266 67.1914 293.266C66.1016 293.266 65.5215 292.48 65.5273 291.555ZM65.8438 298L71.6797 289.516H72.6289L66.793 298H65.8438ZM66.3828 291.555C66.3828 292.059 66.5996 292.539 67.1914 292.539C67.7715 292.539 67.9766 292.059 67.9766 291.555V291.109C67.9766 290.6 67.7832 290.119 67.1914 290.113C66.6172 290.119 66.3828 290.6 66.3828 291.109V291.555ZM70.625 296.406C70.6191 296.916 70.8301 297.396 71.4219 297.391C71.9961 297.396 72.2129 296.916 72.207 296.406V295.961C72.2129 295.457 72.0137 294.977 71.4219 294.977C70.8418 294.977 70.6191 295.457 70.625 295.961V296.406Z" fill="#737373"/>
<rect x="34" y="276" width="4" height="20" rx="2" fill="#1A7454"/>
<path d="M54.5576 273.342C54.5513 274.916 55.6177 276.357 57.376 276.935L56.7666 277.887C55.4463 277.43 54.4624 276.503 53.9482 275.316C53.4404 276.585 52.4375 277.595 51.0918 278.077L50.4824 277.138C52.2534 276.509 53.3198 274.967 53.3262 273.342V272.25H54.5576V273.342ZM52.1455 280.058V279.08H59.8516V283.079H58.6455V280.058H52.1455ZM58.6455 278.534V271.704H59.8516V278.534H58.6455ZM71.0742 271.704V283.104H69.8682V271.704H71.0742ZM62.2891 280.375V272.656H63.4951V275.576H66.5547V272.656H67.748V280.375H62.2891ZM63.4951 279.385H66.5547V276.528H63.4951V279.385Z" fill="#262626"/>
<rect x="34" y="228" width="260" height="24" rx="8" fill="#F1F1F1"/>
<path d="M144 228H220V252H144V228Z" fill="#31C690"/>
<path d="M34 236C34 231.582 37.5817 228 42 228H144V252H42C37.5817 252 34 248.418 34 244V236Z" fill="#1A7454"/>
<path d="M220 228H256V252H220V228Z" fill="#7FDCBA"/>
<g filter="url(#filter1_d_1776_3616)">
<path d="M14 26C14 19.3726 19.3726 14 26 14H302C308.627 14 314 19.3726 314 26V176C314 182.627 308.627 188 302 188H26C19.3726 188 14 182.627 14 176V26Z" fill="white"/>
</g>
<rect x="274" y="168" width="78" height="20" rx="4" transform="rotate(-90 274 168)" fill="#1A7454"/>
<rect x="226" y="168" width="60" height="20" rx="4" transform="rotate(-90 226 168)" fill="#56D1A5"/>
<rect x="178" y="168" width="66" height="20" rx="4" transform="rotate(-90 178 168)" fill="#56D1A5"/>
<rect x="130" y="168" width="50" height="20" rx="4" transform="rotate(-90 130 168)" fill="#56D1A5"/>
<rect x="82" y="168" width="38" height="20" rx="4" transform="rotate(-90 82 168)" fill="#56D1A5"/>
<rect x="34" y="168" width="24" height="20" rx="4" transform="rotate(-90 34 168)" fill="#56D1A5"/>
<rect x="34" y="56" width="116" height="14" rx="4" fill="#CFF2E5"/>
<path d="M44.6641 34.9258H43.3652V38.1113H41.3965V39.1777H43.3652V40.6953H41.3965V41.7344H43.3652V44.2637H44.6641V34.9258ZM34.4648 37.4004H41.3555V36.3477H38.6211V34.9121H37.3359V36.3477H34.4648V37.4004ZM35.1484 40.3398C35.1484 41.748 36.3105 42.7051 37.9648 42.7051C39.6123 42.7051 40.7881 41.748 40.7949 40.3398C40.7881 38.9385 39.6123 37.9814 37.9648 37.9883C36.3105 37.9814 35.1484 38.9385 35.1484 40.3398ZM36.3652 40.3398C36.3584 39.5332 37.0146 39.0137 37.9648 39C38.9014 39.0137 39.5645 39.5332 39.5781 40.3398C39.5645 41.1738 38.9014 41.6934 37.9648 41.6934C37.0146 41.6934 36.3584 41.1738 36.3652 40.3398ZM36.666 46.9023H44.9375V45.8496H37.9785V43.4434H36.666V46.9023ZM57.1328 34.9121H55.8887V39.7793H54.4258V35.1445H53.1953V46.5605H54.4258V40.873H55.8887V47.1621H57.1328V34.9121ZM46.3867 43.7031L47.1934 44.6875C48.4443 43.9492 49.251 42.6641 49.668 41.0576C50.1055 42.4658 50.9121 43.6074 52.1152 44.2637L52.8809 43.2656C51.0967 42.3496 50.2695 40.3535 50.2695 38.1523V37.3594H52.4023V36.3066H46.7148V37.3594H49.0117V38.1523C49.0117 40.5859 48.1777 42.6982 46.3867 43.7031ZM62.916 38.5215V37.2227H65.582V36.1426H58.8691V37.2227H61.6309V38.5215C61.624 40.5928 60.2773 42.9033 58.418 43.7988L59.1836 44.8242C60.5781 44.127 61.7266 42.6162 62.2871 40.873C62.8408 42.4727 63.9346 43.8535 65.3086 44.5098L66.0469 43.498C64.1875 42.6162 62.9092 40.4561 62.916 38.5215ZM66.8945 47.1621H68.1934V40.8594H70.1621V39.7656H68.1934V34.9121H66.8945V47.1621ZM75.002 37.1543V35.6641H73.7168V37.1133C73.71 38.9385 72.5957 40.5928 70.6543 41.2559L71.3789 42.2812C72.8145 41.748 73.8672 40.6816 74.4004 39.3008C74.9404 40.5381 75.9658 41.5156 77.3398 41.9941L78.0098 40.9688C76.1436 40.3398 75.002 38.7949 75.002 37.1543ZM72.623 46.9023H80.9082V45.8496H73.9492V43.0605H72.623V46.9023ZM79.0762 43.9355H80.375V39.6973H82.1523V38.5898H80.375V34.8984H79.0762V43.9355Z" fill="#8C8C8C"/>
<defs>
<filter id="filter0_d_1776_3616" x="0" y="194" width="328" height="260" filterUnits="userSpaceOnUse" color-interpolation-filters="sRGB">
<feFlood flood-opacity="0" result="BackgroundImageFix"/>
<feColorMatrix in="SourceAlpha" type="matrix" values="0 0 0 0 0 0 0 0 0 0 0 0 0 0 0 0 0 0 127 0" result="hardAlpha"/>
<feMorphology radius="2" operator="dilate" in="SourceAlpha" result="effect1_dropShadow_1776_3616"/>
<feOffset/>
<feGaussianBlur stdDeviation="6"/>
<feComposite in2="hardAlpha" operator="out"/>
<feColorMatrix type="matrix" values="0 0 0 0 0 0 0 0 0 0 0 0 0 0 0 0 0 0 0.05 0"/>
<feBlend mode="normal" in2="BackgroundImageFix" result="effect1_dropShadow_1776_3616"/>
<feBlend mode="normal" in="SourceGraphic" in2="effect1_dropShadow_1776_3616" result="shape"/>
</filter>
<filter id="filter1_d_1776_3616" x="0" y="0" width="328" height="202" filterUnits="userSpaceOnUse" color-interpolation-filters="sRGB">
<feFlood flood-opacity="0" result="BackgroundImageFix"/>
<feColorMatrix in="SourceAlpha" type="matrix" values="0 0 0 0 0 0 0 0 0 0 0 0 0 0 0 0 0 0 127 0" result="hardAlpha"/>
<feMorphology radius="2" operator="dilate" in="SourceAlpha" result="effect1_dropShadow_1776_3616"/>
<feOffset/>
<feGaussianBlur stdDeviation="6"/>
<feComposite in2="hardAlpha" operator="out"/>
<feColorMatrix type="matrix" values="0 0 0 0 0 0 0 0 0 0 0 0 0 0 0 0 0 0 0.05 0"/>
<feBlend mode="normal" in2="BackgroundImageFix" result="effect1_dropShadow_1776_3616"/>
<feBlend mode="normal" in="SourceGraphic" in2="effect1_dropShadow_1776_3616" result="shape"/>
</filter>
</defs>
</svg>
