<svg width="36" height="36" viewBox="0 0 36 36" fill="none" xmlns="http://www.w3.org/2000/svg">
<circle cx="18" cy="18" r="18" fill="#D9D9D9"/>
<circle cx="18" cy="18" r="18" stroke="#F1F1F1"/>
<path d="M18 17.6301C16.84 17.6301 15.85 17.2089 15.03 16.3664C14.21 15.524 13.8 14.5068 13.8 13.3151C13.8 12.1233 14.21 11.1062 15.03 10.2637C15.85 9.42123 16.84 9 18 9C19.16 9 20.15 9.42123 20.97 10.2637C21.79 11.1062 22.2 12.1233 22.2 13.3151C22.2 14.5068 21.79 15.524 20.97 16.3664C20.15 17.2089 19.16 17.6301 18 17.6301ZM10.83 27C10.31 27 9.8752 26.8204 9.5256 26.4612C9.1752 26.1012 9 25.6644 9 25.1507V24.2569C9 23.661 9.16 23.1062 9.48 22.5925C9.8 22.0788 10.23 21.6781 10.77 21.3904C11.95 20.7945 13.1452 20.3474 14.3556 20.049C15.5652 19.7515 16.78 19.6027 18 19.6027C19.22 19.6027 20.4352 19.7515 21.6456 20.049C22.8552 20.3474 24.05 20.7945 25.23 21.3904C25.77 21.6781 26.2 22.0788 26.52 22.5925C26.84 23.1062 27 23.661 27 24.2569V25.1507C27 25.6644 26.8248 26.1012 26.4744 26.4612C26.1248 26.8204 25.69 27 25.17 27H10.83Z" fill="white"/>
</svg>
