<svg width="32" height="32" viewBox="0 0 32 32" fill="none" xmlns="http://www.w3.org/2000/svg">
<circle cx="16" cy="16" r="16" fill="#D9D9D9"/>
<circle cx="16" cy="16" r="16" stroke="#F1F1F1"/>
<path d="M18.7839 22.9252L16.9456 13.6264C16.8696 13.1381 17.0985 12.656 17.5219 12.3817C18.341 11.851 18.8496 10.9049 18.7264 9.85349C18.5846 8.63842 17.5664 7.6518 16.3137 7.51689C14.657 7.33881 13.2551 8.59256 13.2551 10.1647C13.2551 11.0884 13.7388 11.9014 14.4745 12.379C14.8988 12.6551 15.1314 13.1336 15.0545 13.6237C14.6839 16.008 13.6813 19.9302 13.2153 22.927C13.0865 23.7562 13.7481 24.5 14.6116 24.5H17.3875C18.2511 24.5 18.9126 23.7544 18.7829 22.9252H18.7839Z" fill="white"/>
</svg>
