<svg width="18" height="18" viewBox="0 0 18 18" fill="none" xmlns="http://www.w3.org/2000/svg">
<path d="M2.3 17.5C1.8 17.5 1.375 17.325 1.025 16.975C0.675 16.625 0.5 16.2 0.5 15.7V2.3C0.5 1.8 0.675 1.375 1.025 1.025C1.375 0.675 1.8 0.5 2.3 0.5H15.7C16.2 0.5 16.625 0.675 16.975 1.025C17.325 1.375 17.5 1.8 17.5 2.3V15.7C17.5 16.2 17.325 16.625 16.975 16.975C16.625 17.325 16.2 17.5 15.7 17.5H2.3ZM2.3 16H15.7C15.7667 16 15.8333 15.9667 15.9 15.9C15.9667 15.8333 16 15.7667 16 15.7V2.3C16 2.23333 15.9667 2.16667 15.9 2.1C15.8333 2.03333 15.7667 2 15.7 2H2.3C2.23333 2 2.16667 2.03333 2.1 2.1C2.03333 2.16667 2 2.23333 2 2.3V15.7C2 15.7667 2.03333 15.8333 2.1 15.9C2.16667 15.9667 2.23333 16 2.3 16Z" fill="#31C690"/>
</svg>
