<svg width="50" height="50" viewBox="0 0 50 50" fill="none" xmlns="http://www.w3.org/2000/svg">
<circle cx="25" cy="25" r="24.5" fill="white" stroke="#D9D9D9"/>
<path fill-rule="evenodd" clip-rule="evenodd" d="M18.0231 24.7514C18.0231 23.9882 18.1554 23.2564 18.3915 22.5701L14.2591 19.5459C13.4538 21.113 13 22.8788 13 24.7514C13 26.6224 13.4532 28.3872 14.2575 29.9532L18.3876 26.9231C18.1537 26.24 18.0231 25.5109 18.0231 24.7514Z" fill="#FBBC05"/>
<path fill-rule="evenodd" clip-rule="evenodd" d="M25.2794 17.8071C27.0096 17.8071 28.5724 18.3946 29.8002 19.356L33.3723 15.9376C31.1956 14.1216 28.4049 13 25.2794 13C20.4271 13 16.2567 15.6594 14.2598 19.5451L18.3921 22.5693C19.3443 19.7993 22.0585 17.8071 25.2794 17.8071Z" fill="#EB4335"/>
<path fill-rule="evenodd" clip-rule="evenodd" d="M25.2794 31.6938C22.0585 31.6938 19.3443 29.7016 18.3921 26.9316L14.2598 29.9553C16.2567 33.8415 20.4271 36.5009 25.2794 36.5009C28.2743 36.5009 31.1336 35.4818 33.2796 33.5723L29.3571 30.6662C28.2503 31.3344 26.8567 31.6938 25.2794 31.6938Z" fill="#34A853"/>
<path fill-rule="evenodd" clip-rule="evenodd" d="M37 24.7507C37 24.0564 36.8883 23.3086 36.7209 22.6143H25.2793V27.1543H31.8652C31.5359 28.7021 30.6395 29.8921 29.357 30.6666L33.2795 33.5728C35.5338 31.5677 37 28.5809 37 24.7507Z" fill="#4285F4"/>
</svg>
