<svg width="36" height="36" viewBox="0 0 36 36" fill="none" xmlns="http://www.w3.org/2000/svg">
<path d="M18 36C27.9411 36 36 27.9411 36 18C36 8.05888 27.9411 0 18 0C8.05888 0 0 8.05888 0 18C0 27.9411 8.05888 36 18 36Z" fill="#F4F4F4"/>
<mask id="mask0_1373_2720" style="mask-type:luminance" maskUnits="userSpaceOnUse" x="0" y="0" width="36" height="36">
<path d="M18 36C27.9411 36 36 27.9411 36 18C36 8.05888 27.9411 0 18 0C8.05888 0 0 8.05888 0 18C0 27.9411 8.05888 36 18 36Z" fill="white"/>
</mask>
<g mask="url(#mask0_1373_2720)">
<path d="M31.1687 31.1914C33.5733 29.469 35.1465 26.6551 35.1465 23.4704C35.1465 18.2307 30.9001 13.9844 25.6604 13.9844C22.5141 13.9844 19.7301 15.5149 18.0034 17.8726C16.2767 15.5149 13.4928 13.9844 10.3464 13.9844C5.10668 13.9844 0.860352 18.2307 0.860352 23.4704C0.860352 26.6551 2.42928 29.469 4.83809 31.1914C2.43354 32.9138 0.860352 35.7276 0.860352 38.9124C0.860352 44.1521 5.10668 48.3984 10.3464 48.3984C13.4928 48.3984 16.2767 46.8678 18.0034 44.5102C19.7301 46.8678 22.5141 48.3984 25.6604 48.3984C30.9001 48.3984 35.1465 44.1521 35.1465 38.9124C35.1422 35.7276 33.5733 32.9095 31.1687 31.1914Z" fill="url(#paint0_linear_1373_2720)"/>
<path d="M14.55 23.8325C15.3435 23.8325 15.9868 23.1892 15.9868 22.3957C15.9868 21.6022 15.3435 20.959 14.55 20.959C13.7565 20.959 13.1133 21.6022 13.1133 22.3957C13.1133 23.1892 13.7565 23.8325 14.55 23.8325Z" fill="#262626"/>
<path d="M21.4485 23.8325C22.242 23.8325 22.8852 23.1892 22.8852 22.3957C22.8852 21.6022 22.242 20.959 21.4485 20.959C20.655 20.959 20.0117 21.6022 20.0117 22.3957C20.0117 23.1892 20.655 23.8325 21.4485 23.8325Z" fill="#262626"/>
<path d="M17.999 27.8321C19.4989 27.8321 20.7147 27.2003 20.7147 26.4209C20.7147 25.6416 19.4989 25.0098 17.999 25.0098C16.4991 25.0098 15.2832 25.6416 15.2832 26.4209C15.2832 27.2003 16.4991 27.8321 17.999 27.8321Z" fill="#FAFAFA"/>
</g>
<defs>
<linearGradient id="paint0_linear_1373_2720" x1="32.3962" y1="45.5865" x2="4.69006" y2="17.8804" gradientUnits="userSpaceOnUse">
<stop offset="2.77045e-07" stop-color="#31C690"/>
<stop offset="1" stop-color="#A7E7D0"/>
</linearGradient>
</defs>
</svg>
