<svg width="36" height="36" viewBox="0 0 36 36" fill="none" xmlns="http://www.w3.org/2000/svg">
<path d="M18 36C27.9411 36 36 27.9411 36 18C36 8.05888 27.9411 0 18 0C8.05888 0 0 8.05888 0 18C0 27.9411 8.05888 36 18 36Z" fill="#F4F4F4"/>
<mask id="mask0_1373_2704" style="mask-type:luminance" maskUnits="userSpaceOnUse" x="0" y="0" width="36" height="36">
<path d="M18 36C27.9411 36 36 27.9411 36 18C36 8.05888 27.9411 0 18 0C8.05888 0 0 8.05888 0 18C0 27.9411 8.05888 36 18 36Z" fill="white"/>
</mask>
<g mask="url(#mask0_1373_2704)">
<path d="M36.4766 28.9471C39.3501 28.2479 41.857 26.2228 43.0465 23.2683C45.0033 18.4081 42.65 12.8827 37.7897 10.9258C34.8736 9.75339 31.7144 10.1328 29.2331 11.6762C28.5126 8.84528 26.5003 6.38531 23.5799 5.20862C18.7196 3.25173 13.1943 5.60512 11.2374 10.4654C10.0479 13.4199 10.4529 16.6174 12.0431 19.1115C9.16962 19.8107 6.66275 21.8358 5.47327 24.7903C3.51638 29.6506 5.86977 35.1759 10.73 37.1328C13.6462 38.3053 16.8053 37.9258 19.2866 36.3825C20.0071 39.2134 22.0195 41.6733 24.9399 42.85C29.8001 44.8069 35.3255 42.4535 37.2824 37.5933C38.4719 34.6388 38.0668 31.4412 36.4766 28.9471Z" fill="url(#paint0_linear_1373_2704)"/>
</g>
<mask id="mask1_1373_2704" style="mask-type:luminance" maskUnits="userSpaceOnUse" x="0" y="0" width="36" height="36">
<path d="M18 36C27.9411 36 36 27.9411 36 18C36 8.05888 27.9411 0 18 0C8.05888 0 0 8.05888 0 18C0 27.9411 8.05888 36 18 36Z" fill="white"/>
</mask>
<g mask="url(#mask1_1373_2704)">
<path d="M15.5445 18.5695C14.4829 18.1432 13.9244 17.039 14.2953 16.1096C14.4275 15.7813 14.7984 15.6235 15.1267 15.7557C15.455 15.8879 15.6127 16.2588 15.4805 16.5871C15.3868 16.8215 15.5829 17.2052 16.0177 17.38C16.4526 17.5548 16.8619 17.4142 16.9557 17.1797C17.0878 16.8514 17.4588 16.6936 17.787 16.8258C18.1153 16.958 18.2731 17.3289 18.1409 17.6572C17.7743 18.5908 16.6061 18.9959 15.5445 18.5695Z" fill="#262626"/>
<path d="M21.939 21.1438C20.8775 20.7174 20.3189 19.6132 20.6899 18.6838C20.822 18.3555 21.1929 18.1978 21.5212 18.3299C21.8495 18.4621 22.0072 18.833 21.8751 19.1613C21.7813 19.3958 21.9774 19.7795 22.4123 19.9543C22.8471 20.1291 23.2564 19.9884 23.3502 19.7539C23.4824 19.4256 23.8533 19.2679 24.1816 19.4C24.5098 19.5322 24.6676 19.9031 24.5354 20.2314C24.1688 21.1608 23.0006 21.5701 21.939 21.1438Z" fill="#262626"/>
<path fill-rule="evenodd" clip-rule="evenodd" d="M15.3906 20.0039C15.0197 19.8547 14.6829 20.0593 14.6274 20.4558C14.41 21.9651 15.3607 23.5425 16.9979 24.1991C18.6307 24.8556 20.4129 24.3781 21.2996 23.1418C21.5341 22.8177 21.4318 22.434 21.0609 22.2848L15.3906 20.0039Z" fill="#FAFAFA"/>
</g>
<defs>
<linearGradient id="paint0_linear_1373_2704" x1="32.2401" y1="42.7681" x2="16.8826" y2="6.71972" gradientUnits="userSpaceOnUse">
<stop stop-color="#0060E6"/>
<stop offset="1" stop-color="#CCE1FF"/>
</linearGradient>
</defs>
</svg>
