<svg width="32" height="32" viewBox="0 0 32 32" fill="none" xmlns="http://www.w3.org/2000/svg">
<circle cx="16" cy="16" r="16" fill="#DFF6EE"/>
<path d="M17.6225 25H14.5975C14.3808 25 14.1892 24.925 14.0225 24.775C13.8558 24.625 13.7558 24.4333 13.7225 24.2L13.4225 21.95C13.1558 21.8667 12.8852 21.7417 12.6105 21.575C12.3352 21.4083 12.0808 21.2333 11.8475 21.05L9.7725 21.95C9.55583 22.0333 9.3435 22.0417 9.1355 21.975C8.92683 21.9083 8.75583 21.775 8.6225 21.575L7.1225 18.95C7.00583 18.75 6.9725 18.5373 7.0225 18.312C7.0725 18.0873 7.18083 17.9083 7.3475 17.775L9.1725 16.4C9.13917 16.25 9.1185 16.1 9.1105 15.95C9.10183 15.8 9.0975 15.65 9.0975 15.5C9.0975 15.3667 9.10183 15.225 9.1105 15.075C9.1185 14.925 9.13917 14.7667 9.1725 14.6L7.3475 13.225C7.18083 13.0917 7.0725 12.9127 7.0225 12.688C6.9725 12.4627 7.00583 12.25 7.1225 12.05L8.6225 9.45C8.73917 9.25 8.90583 9.11667 9.1225 9.05C9.33917 8.98333 9.5475 8.99167 9.7475 9.075L11.8475 9.95C12.0808 9.76667 12.3352 9.596 12.6105 9.438C12.8852 9.27933 13.1558 9.15 13.4225 9.05L13.7225 6.8C13.7558 6.56667 13.8558 6.375 14.0225 6.225C14.1892 6.075 14.3808 6 14.5975 6H17.6225C17.8558 6 18.0558 6.075 18.2225 6.225C18.3892 6.375 18.4892 6.56667 18.5225 6.8L18.8225 9.05C19.1225 9.16667 19.3932 9.29567 19.6345 9.437C19.8765 9.579 20.1225 9.75 20.3725 9.95L22.4975 9.075C22.6975 8.99167 22.9018 8.98333 23.1105 9.05C23.3185 9.11667 23.4892 9.25 23.6225 9.45L25.1225 12.05C25.2392 12.25 25.2725 12.4627 25.2225 12.688C25.1725 12.9127 25.0642 13.0917 24.8975 13.225L23.0475 14.625C23.0808 14.7917 23.0975 14.9417 23.0975 15.075V15.5C23.0975 15.6333 23.0932 15.7707 23.0845 15.912C23.0765 16.054 23.0558 16.2167 23.0225 16.4L24.8475 17.775C25.0308 17.9083 25.1475 18.0873 25.1975 18.312C25.2475 18.5373 25.2058 18.75 25.0725 18.95L23.5725 21.55C23.4558 21.75 23.2892 21.8833 23.0725 21.95C22.8558 22.0167 22.6392 22.0083 22.4225 21.925L20.3725 21.05C20.1225 21.25 19.8685 21.425 19.6105 21.575C19.3518 21.725 19.0892 21.85 18.8225 21.95L18.5225 24.2C18.4892 24.4333 18.3892 24.625 18.2225 24.775C18.0558 24.925 17.8558 25 17.6225 25ZM16.1225 18.5C16.9558 18.5 17.6642 18.2083 18.2475 17.625C18.8308 17.0417 19.1225 16.3333 19.1225 15.5C19.1225 14.6667 18.8308 13.9583 18.2475 13.375C17.6642 12.7917 16.9558 12.5 16.1225 12.5C15.2892 12.5 14.5808 12.7917 13.9975 13.375C13.4142 13.9583 13.1225 14.6667 13.1225 15.5C13.1225 16.3333 13.4142 17.0417 13.9975 17.625C14.5808 18.2083 15.2892 18.5 16.1225 18.5Z" fill="#31C690"/>
</svg>
