<svg width="36" height="36" viewBox="0 0 36 36" fill="none" xmlns="http://www.w3.org/2000/svg">
<path d="M18 36C27.9411 36 36 27.9411 36 18C36 8.05888 27.9411 0 18 0C8.05888 0 0 8.05888 0 18C0 27.9411 8.05888 36 18 36Z" fill="#F4F4F4"/>
<mask id="mask0_1373_2730" style="mask-type:luminance" maskUnits="userSpaceOnUse" x="0" y="0" width="36" height="36">
<path d="M18 36C27.9411 36 36 27.9411 36 18C36 8.05888 27.9411 0 18 0C8.05888 0 0 8.05888 0 18C0 27.9411 8.05888 36 18 36Z" fill="white"/>
</mask>
<g mask="url(#mask0_1373_2730)">
<path d="M22.9163 20.5123C25.0949 18.5128 26.3142 15.5284 25.9262 12.365C25.291 7.16367 20.5586 3.46306 15.3573 4.0983C12.2365 4.48201 9.65714 6.33658 8.22891 8.88608C6.22938 6.75439 3.27912 5.57343 0.154063 5.95714C-5.04726 6.59238 -8.74788 11.3247 -8.11264 16.5261C-7.72467 19.6852 -5.82746 22.2902 -3.23106 23.7056C-5.40965 25.7051 -6.62898 28.6895 -6.24101 31.8529C-5.60577 37.0542 -0.873412 40.7549 4.32792 40.1196C7.44871 39.7359 10.0281 37.8813 11.4563 35.3318C13.4558 37.4635 16.4061 38.6445 19.5311 38.2608C24.7325 37.6255 28.4331 32.8932 27.7978 27.6919C27.4141 24.5327 25.5127 21.9278 22.9163 20.5123Z" fill="url(#paint0_linear_1373_2730)"/>
<path d="M11.4563 20.2915C12.2498 20.2915 12.8931 19.6482 12.8931 18.8547C12.8931 18.0612 12.2498 17.418 11.4563 17.418C10.6628 17.418 10.0195 18.0612 10.0195 18.8547C10.0195 19.6482 10.6628 20.2915 11.4563 20.2915Z" fill="#262626"/>
<path d="M18.2991 19.4556C19.0926 19.4556 19.7358 18.8123 19.7358 18.0188C19.7358 17.2253 19.0926 16.582 18.2991 16.582C17.5056 16.582 16.8623 17.2253 16.8623 18.0188C16.8623 18.8123 17.5056 19.4556 18.2991 19.4556Z" fill="#262626"/>
<path fill-rule="evenodd" clip-rule="evenodd" d="M18.0732 20.6756C18.4996 20.6244 18.8875 20.9271 18.943 21.3534L19.0879 22.5387C19.3096 24.3421 17.8515 26.0048 15.835 26.2521C13.8141 26.4993 12.0022 25.2374 11.7805 23.434L11.6355 22.2487C11.5844 21.8224 11.8871 21.4344 12.3134 21.379L18.0732 20.6756Z" fill="#FAFAFA"/>
</g>
<defs>
<linearGradient id="paint0_linear_1373_2730" x1="25.8866" y1="34.6505" x2="-4.97804" y2="10.5129" gradientUnits="userSpaceOnUse">
<stop offset="2.82373e-07" stop-color="#FF965B"/>
<stop offset="1" stop-color="#FFDECC"/>
</linearGradient>
</defs>
</svg>
