<svg width="82" height="19" viewBox="0 0 82 19" fill="none" xmlns="http://www.w3.org/2000/svg">
<path fill-rule="evenodd" clip-rule="evenodd" d="M18 4.96188C18 6.62717 17.176 8.09973 15.9129 8.99984H15.9126C17.1757 9.89995 17.9997 11.3725 17.9997 13.0378C17.9997 15.7785 15.7701 18 13.0196 18C11.3687 18 9.90607 17.1986 8.99984 15.9658C8.09393 17.1989 6.63134 18 4.98012 18C2.22957 18 0 15.7785 0 13.0378C0 11.3725 0.824019 9.89995 2.08713 9.00016C0.824019 8.10005 0 6.62748 0 4.9622C0 2.22154 2.22957 0 4.98012 0C6.63134 0 8.09393 0.801051 8.99984 2.03422C9.90607 0.801051 11.3687 0 13.0199 0C15.7701 0 18 2.22154 18 4.96188ZM9.28014 8.27249L9.82437 11.1226H9.82409C9.8625 11.3767 9.66664 11.6053 9.41099 11.6053H8.58916C8.33351 11.6053 8.13765 11.3773 8.17578 11.1231C8.24868 10.6378 8.36593 10.0733 8.4765 9.54093C8.57518 9.0658 8.66853 8.61631 8.72028 8.27167C8.74305 8.12143 8.6742 7.97478 8.54856 7.89015C8.33076 7.74377 8.18757 7.49457 8.18757 7.21147C8.18757 6.72961 8.6026 6.34533 9.09306 6.39991C9.46393 6.44126 9.76539 6.74367 9.80736 7.11609C9.84384 7.43834 9.69325 7.72833 9.45076 7.89098C9.3254 7.97505 9.25765 8.12281 9.28014 8.27249Z" fill="url(#paint0_linear_649_5693)"/>
<path d="M31.45 2.91368C30.4534 2.91368 29.955 3.45684 29.955 4.54316V5.14947H32.7368V7.04421H30.0307V15.1916H27.6653V7.04421H26V5.14947H27.6653V4.50526C27.6653 3.41895 27.9807 2.56631 28.6115 1.94737C29.2423 1.31579 30.1317 1 31.2797 1C32.188 1 32.9008 1.18316 33.4181 1.54947L32.7557 3.33053C32.352 3.05263 31.9168 2.91368 31.45 2.91368ZM34.3264 1.13263H36.6919V15.1916H34.3264V1.13263Z" fill="#8C8C8C"/>
<path d="M43.0162 15.3242C41.9943 15.3242 41.0734 15.1032 40.2534 14.6611C39.4333 14.2189 38.7899 13.6063 38.3231 12.8232C37.869 12.0274 37.6419 11.1305 37.6419 10.1326C37.6419 9.13474 37.869 8.24421 38.3231 7.46105C38.7899 6.67789 39.4333 6.06526 40.2534 5.62316C41.0734 5.18105 41.9943 4.96 43.0162 4.96C44.0507 4.96 44.978 5.18105 45.798 5.62316C46.618 6.06526 47.2551 6.67789 47.7093 7.46105C48.1761 8.24421 48.4095 9.13474 48.4095 10.1326C48.4095 11.1305 48.1761 12.0274 47.7093 12.8232C47.2551 13.6063 46.618 14.2189 45.798 14.6611C44.978 15.1032 44.0507 15.3242 43.0162 15.3242ZM43.0162 13.2968C43.8867 13.2968 44.6058 13.0063 45.1735 12.4253C45.7412 11.8442 46.0251 11.08 46.0251 10.1326C46.0251 9.18526 45.7412 8.42105 45.1735 7.84C44.6058 7.25895 43.8867 6.96842 43.0162 6.96842C42.1457 6.96842 41.4266 7.25895 40.8589 7.84C40.3038 8.42105 40.0263 9.18526 40.0263 10.1326C40.0263 11.08 40.3038 11.8442 40.8589 12.4253C41.4266 13.0063 42.1457 13.2968 43.0162 13.2968Z" fill="#8C8C8C"/>
<path d="M55.0806 4.96C56.3548 4.96 57.3767 5.33263 58.1463 6.07789C58.9158 6.82316 59.3006 7.92842 59.3006 9.39368V15.1916H56.9352V9.69684C56.9352 8.81263 56.727 8.14947 56.3107 7.70737C55.8944 7.25263 55.3014 7.02526 54.5319 7.02526C53.6614 7.02526 52.9738 7.29053 52.4692 7.82105C51.9646 8.33895 51.7122 9.09053 51.7122 10.0758V15.1916H49.3468V5.07368H51.5987V6.38105C51.9898 5.91368 52.4818 5.56 53.0747 5.32C53.6677 5.08 54.3363 4.96 55.0806 4.96Z" fill="#8C8C8C"/>
<path d="M70.5688 10.1895C70.5688 10.3537 70.5562 10.5874 70.5309 10.8905H62.6019C62.7407 11.6358 63.1002 12.2295 63.6806 12.6716C64.2735 13.1011 65.0052 13.3158 65.8757 13.3158C66.9859 13.3158 67.9005 12.9495 68.6196 12.2168L69.8875 13.6758C69.4334 14.2189 68.8593 14.6295 68.1655 14.9074C67.4716 15.1853 66.6894 15.3242 65.8189 15.3242C64.7087 15.3242 63.731 15.1032 62.8858 14.6611C62.0405 14.2189 61.3845 13.6063 60.9177 12.8232C60.4635 12.0274 60.2365 11.1305 60.2365 10.1326C60.2365 9.14737 60.4572 8.26316 60.8988 7.48C61.353 6.68421 61.9774 6.06526 62.7722 5.62316C63.567 5.18105 64.4627 4.96 65.4594 4.96C66.4434 4.96 67.3202 5.18105 68.0898 5.62316C68.872 6.05263 69.4775 6.66526 69.9064 7.46105C70.348 8.24421 70.5688 9.15368 70.5688 10.1895ZM65.4594 6.85474C64.7024 6.85474 64.059 7.0821 63.5292 7.53684C63.0119 7.97895 62.6965 8.57263 62.583 9.31789H68.3169C68.2159 8.58526 67.9068 7.99158 67.3896 7.53684C66.8724 7.0821 66.229 6.85474 65.4594 6.85474Z" fill="#8C8C8C"/>
<path d="M82 5.07368L75.0361 16.0821C74.3422 17.1811 73.6799 17.9389 73.0491 18.3558C72.4309 18.7853 71.674 19 70.7783 19C70.2736 19 69.7753 18.9179 69.2833 18.7537C68.7913 18.5895 68.4065 18.3747 68.129 18.1095L69.3022 16.3853C69.769 16.8147 70.3241 17.0295 70.9675 17.0295C71.3712 17.0295 71.7245 16.9221 72.0272 16.7074C72.33 16.5053 72.6391 16.1516 72.9545 15.6463L73.2762 15.1537L70.8918 5.07368H73.2573L74.9604 12.5768L79.6345 5.07368H82Z" fill="#8C8C8C"/>
<defs>
<linearGradient id="paint0_linear_649_5693" x1="16.3846" y1="16.8462" x2="-2.19231" y2="-2.42308" gradientUnits="userSpaceOnUse">
<stop stop-color="#31C690"/>
<stop offset="1" stop-color="#A7E7D0"/>
</linearGradient>
</defs>
</svg>
