<svg width="32" height="32" viewBox="0 0 32 32" fill="none" xmlns="http://www.w3.org/2000/svg">
<circle cx="16" cy="16" r="15.5" fill="#D3343B" stroke="#F1F1F1"/>
<path d="M16.5501 15.6794C16.9321 15.2516 17.2187 14.7628 17.41 14.2128C17.6006 13.6628 17.696 13.0975 17.696 12.5169C17.696 11.9211 17.6006 11.3482 17.41 10.7982C17.2187 10.2482 16.9321 9.76693 16.5501 9.35443C17.3599 9.44609 18.0284 9.79351 18.5558 10.3967C19.0826 11.0005 19.346 11.7072 19.346 12.5169C19.346 13.3266 19.0826 14.0331 18.5558 14.6363C18.0284 15.24 17.3599 15.5878 16.5501 15.6794ZM21.3626 22.6919V20.5378C21.3626 20.0489 21.2597 19.5789 21.0537 19.1279C20.8472 18.6775 20.5605 18.2919 20.1939 17.9711C20.8967 18.2003 21.5423 18.5135 22.1308 18.9107C22.7187 19.3079 23.0126 19.8503 23.0126 20.5378V22.6919H21.3626ZM26.221 14.8544H21.1793V13.4794H26.221V14.8544ZM12.6543 15.7253C11.7682 15.7253 11.0119 15.4081 10.3855 14.7738C9.75916 14.14 9.44596 13.3878 9.44596 12.5169C9.44596 11.6308 9.75916 10.8746 10.3855 10.2482C11.0119 9.62179 11.7682 9.30859 12.6543 9.30859C13.5404 9.30859 14.2967 9.62179 14.923 10.2482C15.5494 10.8746 15.8626 11.6308 15.8626 12.5169C15.8626 13.3878 15.5494 14.14 14.923 14.7738C14.2967 15.4081 13.5404 15.7253 12.6543 15.7253ZM5.7793 22.6919V20.6523C5.7793 20.2093 5.90152 19.7968 6.14596 19.4148C6.39041 19.0329 6.71124 18.735 7.10846 18.5211C8.02513 18.078 8.9418 17.7456 9.85846 17.5238C10.7751 17.3025 11.7071 17.1919 12.6543 17.1919C13.5862 17.1919 14.5142 17.3025 15.4382 17.5238C16.3628 17.7456 17.2758 18.078 18.1772 18.5211C18.5897 18.735 18.9182 19.0329 19.1626 19.4148C19.4071 19.7968 19.5293 20.2093 19.5293 20.6523V22.6919H5.7793ZM12.6543 14.3503C13.1585 14.3503 13.5902 14.1706 13.9495 13.8113C14.3083 13.4525 14.4876 13.0211 14.4876 12.5169C14.4876 12.0128 14.3083 11.581 13.9495 11.2217C13.5902 10.863 13.1585 10.6836 12.6543 10.6836C12.1501 10.6836 11.7187 10.863 11.36 11.2217C11.0006 11.581 10.821 12.0128 10.821 12.5169C10.821 13.0211 11.0006 13.4525 11.36 13.8113C11.7187 14.1706 12.1501 14.3503 12.6543 14.3503ZM7.1543 21.3169H18.1543V20.6523C18.1543 20.469 18.1008 20.301 17.9939 20.1482C17.8869 19.9954 17.7418 19.8655 17.5585 19.7586C16.764 19.3766 15.958 19.0824 15.1403 18.8758C14.3232 18.6699 13.4946 18.5669 12.6543 18.5669C11.814 18.5669 10.9854 18.6699 10.1683 18.8758C9.35063 19.0824 8.54457 19.3766 7.75013 19.7586C7.5668 19.8655 7.42166 19.9954 7.31471 20.1482C7.20777 20.301 7.1543 20.469 7.1543 20.6523V21.3169Z" fill="white"/>
</svg>
