<svg width="32" height="32" viewBox="0 0 32 32" fill="none" xmlns="http://www.w3.org/2000/svg">
<path d="M16 32C24.8366 32 32 24.8366 32 16C32 7.16344 24.8366 0 16 0C7.16344 0 0 7.16344 0 16C0 24.8366 7.16344 32 16 32Z" fill="#F4F4F4"/>
<mask id="mask0_1373_2587" style="mask-type:luminance" maskUnits="userSpaceOnUse" x="0" y="0" width="32" height="32">
<path d="M16 32C24.8366 32 32 24.8366 32 16C32 7.16344 24.8366 0 16 0C7.16344 0 0 7.16344 0 16C0 24.8366 7.16344 32 16 32Z" fill="white"/>
</mask>
<g mask="url(#mask0_1373_2587)">
<path d="M30.8327 4.50846C31.9885 2.14749 32.0264 -0.717508 30.6811 -3.20732C28.4679 -7.30396 23.3519 -8.8312 19.2552 -6.61803C16.7957 -5.28785 15.2647 -2.91552 14.9085 -0.342331C12.5627 -1.4565 9.73557 -1.47544 7.27607 -0.149055C3.17944 2.06411 1.6522 7.18017 3.86537 11.2768C5.2107 13.7666 7.62851 15.3052 10.2358 15.6349C9.07996 17.9959 9.04206 20.8609 10.3874 23.3507C12.6006 27.4473 17.7166 28.9746 21.8133 26.7614C24.2728 25.4312 25.8038 23.0589 26.16 20.4857C28.5058 21.5999 31.3329 21.6188 33.7924 20.2924C37.8891 18.0793 39.4163 12.9632 37.2031 8.86658C35.8578 6.37677 33.44 4.83816 30.8327 4.50846Z" fill="url(#paint0_linear_1373_2587)"/>
<path d="M11.3621 13.232C12.0674 13.232 12.6392 12.6602 12.6392 11.9549C12.6392 11.2495 12.0674 10.6777 11.3621 10.6777C10.6567 10.6777 10.085 11.2495 10.085 11.9549C10.085 12.6602 10.6567 13.232 11.3621 13.232Z" fill="#262626"/>
<path d="M16.7547 10.3218C17.46 10.3218 18.0318 9.75004 18.0318 9.04471C18.0318 8.33937 17.46 7.76758 16.7547 7.76758C16.0493 7.76758 15.4775 8.33937 15.4775 9.04471C15.4775 9.75004 16.0493 10.3218 16.7547 10.3218Z" fill="#262626"/>
<path d="M16.1103 14.2967C15.2159 14.7818 14.1434 14.5355 13.719 13.7548C13.5712 13.4781 13.6735 13.1333 13.9501 12.9855C14.2268 12.8377 14.5716 12.94 14.7194 13.2167C14.8255 13.4137 15.2007 13.4971 15.5683 13.3C15.9359 13.103 16.0724 12.743 15.9662 12.5459C15.8184 12.2692 15.9208 11.9244 16.1974 11.7766C16.4741 11.6288 16.8189 11.7311 16.9667 12.0078C17.3874 12.7808 17.0046 13.8116 16.1103 14.2967Z" fill="#FAFAFA"/>
</g>
<defs>
<linearGradient id="paint0_linear_1373_2587" x1="28.2723" y1="23.4746" x2="13.372" y2="-2.33155" gradientUnits="userSpaceOnUse">
<stop offset="2.82373e-07" stop-color="#FF965B"/>
<stop offset="1" stop-color="#FFDECC"/>
</linearGradient>
</defs>
</svg>
