<svg width="32" height="32" viewBox="0 0 32 32" fill="none" xmlns="http://www.w3.org/2000/svg">
<path d="M16 32C24.8366 32 32 24.8366 32 16C32 7.16344 24.8366 0 16 0C7.16344 0 0 7.16344 0 16C0 24.8366 7.16344 32 16 32Z" fill="#F4F4F4"/>
<mask id="mask0_1373_2600" style="mask-type:luminance" maskUnits="userSpaceOnUse" x="0" y="0" width="32" height="32">
<path d="M16 32C24.8366 32 32 24.8366 32 16C32 7.16344 24.8366 0 16 0C7.16344 0 0 7.16344 0 16C0 24.8366 7.16344 32 16 32Z" fill="white"/>
</mask>
<g mask="url(#mask0_1373_2600)">
<path d="M27.7054 27.7209C29.8428 26.1899 31.2412 23.6887 31.2412 20.8578C31.2412 16.2003 27.4667 12.4258 22.8092 12.4258C20.0124 12.4258 17.5377 13.7863 16.0029 15.882C14.4681 13.7863 11.9935 12.4258 9.19667 12.4258C4.53916 12.4258 0.764648 16.2003 0.764648 20.8578C0.764648 23.6887 2.15925 26.1899 4.30041 27.7209C2.16304 29.2519 0.764648 31.7531 0.764648 34.584C0.764648 39.2415 4.53916 43.016 9.19667 43.016C11.9935 43.016 14.4681 41.6555 16.0029 39.5598C17.5377 41.6555 20.0124 43.016 22.8092 43.016C27.4667 43.016 31.2412 39.2415 31.2412 34.584C31.2374 31.7531 29.8428 29.2519 27.7054 27.7209Z" fill="url(#paint0_linear_1373_2600)"/>
<path d="M15.4957 22.3464L14.7264 23.4567C14.624 23.6045 14.7529 23.7864 14.9537 23.7864H17.0418C17.2465 23.7864 17.3716 23.6045 17.2692 23.4567L16.4999 22.3464C16.2612 21.9939 15.7382 21.9939 15.4957 22.3464L14.7264 23.4567C14.624 23.6045 14.7529 23.7864 14.9537 23.7864H17.0418C17.2465 23.7864 17.3716 23.6045 17.2692 23.4567L16.4999 22.3464C16.2612 21.9939 15.7382 21.9939 15.4957 22.3464Z" fill="#FAFAFA"/>
<path d="M12.9334 21.6109C13.6387 21.6109 14.2105 21.0391 14.2105 20.3338C14.2105 19.6284 13.6387 19.0566 12.9334 19.0566C12.228 19.0566 11.6562 19.6284 11.6562 20.3338C11.6562 21.0391 12.228 21.6109 12.9334 21.6109Z" fill="#262626"/>
<path d="M19.0652 21.6109C19.7705 21.6109 20.3423 21.0391 20.3423 20.3338C20.3423 19.6284 19.7705 19.0566 19.0652 19.0566C18.3599 19.0566 17.7881 19.6284 17.7881 20.3338C17.7881 21.0391 18.3599 21.6109 19.0652 21.6109Z" fill="#262626"/>
</g>
<defs>
<linearGradient id="paint0_linear_1373_2600" x1="28.7965" y1="40.5184" x2="4.16884" y2="15.8907" gradientUnits="userSpaceOnUse">
<stop stop-color="#0060E6"/>
<stop offset="1" stop-color="#CCE1FF"/>
</linearGradient>
</defs>
</svg>
