<svg width="124" height="124" viewBox="0 0 124 124" fill="none" xmlns="http://www.w3.org/2000/svg">
<circle cx="62" cy="62" r="62" fill="#A7E7D0"/>
<path d="M61.625 60.9167C58.3222 60.9167 55.5035 59.7493 53.1687 57.4146C50.834 55.0799 49.6667 52.2611 49.6667 48.9583C49.6667 45.6556 50.834 42.8368 53.1687 40.5021C55.5035 38.1674 58.3222 37 61.625 37C64.9278 37 67.7465 38.1674 70.0813 40.5021C72.416 42.8368 73.5833 45.6556 73.5833 48.9583C73.5833 52.2611 72.416 55.0799 70.0813 57.4146C67.7465 59.7493 64.9278 60.9167 61.625 60.9167ZM41.2104 86.8833C39.7299 86.8833 38.4919 86.3856 37.4965 85.3903C36.4988 84.3926 36 83.1819 36 81.7583V79.2813C36 77.6299 36.4556 76.0924 37.3667 74.6688C38.2778 73.2451 39.5021 72.1347 41.0396 71.3375C44.3993 69.6861 47.8023 68.447 51.2486 67.6202C54.6926 66.7956 58.1514 66.3833 61.625 66.3833C65.0986 66.3833 68.5586 66.7956 72.0048 67.6202C75.4488 68.447 78.8507 69.6861 82.2104 71.3375C83.7479 72.1347 84.9722 73.2451 85.8833 74.6688C86.7944 76.0924 87.25 77.6299 87.25 79.2813V81.7583C87.25 83.1819 86.7512 84.3926 85.7535 85.3903C84.7581 86.3856 83.5201 86.8833 82.0396 86.8833H41.2104Z" fill="#DFF6EE"/>
</svg>
