<svg width="36" height="36" viewBox="0 0 36 36" fill="none" xmlns="http://www.w3.org/2000/svg">
<circle cx="18" cy="18" r="18" fill="#D9D9D9"/>
<circle cx="18" cy="18" r="18" stroke="#F1F1F1"/>
<path d="M20.9835 25.3325L19.014 15.4868C18.9326 14.9697 19.1778 14.4593 19.6314 14.1688C20.509 13.607 21.054 12.6052 20.922 11.4919C20.7701 10.2054 19.6791 9.16073 18.3369 9.01788C16.5619 8.82933 15.0599 10.1568 15.0599 11.8214C15.0599 12.7994 15.5781 13.6603 16.3663 14.166C16.821 14.4583 17.0702 14.9649 16.9878 15.4839C16.5907 18.0085 15.5166 22.1614 15.0172 25.3344C14.8792 26.2125 15.588 27 16.5133 27H19.4875C20.4127 27 21.1215 26.2106 20.9825 25.3325H20.9835Z" fill="white"/>
</svg>
