<svg width="32" height="32" viewBox="0 0 32 32" fill="none" xmlns="http://www.w3.org/2000/svg">
<path d="M16 32C24.8366 32 32 24.8366 32 16C32 7.16344 24.8366 0 16 0C7.16344 0 0 7.16344 0 16C0 24.8366 7.16344 32 16 32Z" fill="#F4F4F4"/>
<mask id="mask0_1373_2653" style="mask-type:luminance" maskUnits="userSpaceOnUse" x="0" y="0" width="32" height="32">
<path d="M16 32C24.8366 32 32 24.8366 32 16C32 7.16344 24.8366 0 16 0C7.16344 0 0 7.16344 0 16C0 24.8366 7.16344 32 16 32Z" fill="white"/>
</mask>
<g mask="url(#mask0_1373_2653)">
<path d="M20.3699 18.2334C22.3064 16.456 23.3903 13.8033 23.0454 10.9913C22.4807 6.36793 18.2742 3.07849 13.6508 3.64315C10.8768 3.98422 8.58402 5.63273 7.31448 7.89895C5.53712 6.00412 2.91467 4.95438 0.136836 5.29545C-4.48656 5.86011 -7.776 10.0667 -7.21134 14.6901C-6.86648 17.4982 -5.18008 19.8137 -2.87217 21.0719C-4.80869 22.8492 -5.89253 25.502 -5.54767 28.3139C-4.98301 32.9373 -0.776474 36.2268 3.84693 35.6621C6.62097 35.321 8.91372 33.6725 10.1833 31.4063C11.9606 33.3011 14.5831 34.3509 17.3609 34.0098C21.9843 33.4451 25.2737 29.2386 24.7091 24.6152C24.368 21.8071 22.6778 19.4916 20.3699 18.2334Z" fill="url(#paint0_linear_1373_2653)"/>
<path d="M10.1834 18.0367C10.8887 18.0367 11.4605 17.4649 11.4605 16.7595C11.4605 16.0542 10.8887 15.4824 10.1834 15.4824C9.47804 15.4824 8.90625 16.0542 8.90625 16.7595C8.90625 17.4649 9.47804 18.0367 10.1834 18.0367Z" fill="#262626"/>
<path d="M16.2654 17.2945C16.9707 17.2945 17.5425 16.7227 17.5425 16.0174C17.5425 15.312 16.9707 14.7402 16.2654 14.7402C15.5601 14.7402 14.9883 15.312 14.9883 16.0174C14.9883 16.7227 15.5601 17.2945 16.2654 17.2945Z" fill="#262626"/>
<path fill-rule="evenodd" clip-rule="evenodd" d="M16.0653 18.3781C16.4443 18.3326 16.7891 18.6016 16.8384 18.9806L16.9672 20.0341C17.1643 21.6372 15.8682 23.1152 14.0757 23.335C12.2794 23.5548 10.6688 22.433 10.4717 20.83L10.3429 19.7764C10.2974 19.3975 10.5665 19.0526 10.9455 19.0034L16.0653 18.3781Z" fill="#FAFAFA"/>
</g>
<defs>
<linearGradient id="paint0_linear_1373_2653" x1="23.0102" y1="30.8006" x2="-4.42503" y2="9.34504" gradientUnits="userSpaceOnUse">
<stop offset="2.82373e-07" stop-color="#FF965B"/>
<stop offset="1" stop-color="#FFDECC"/>
</linearGradient>
</defs>
</svg>
