<svg width="24" height="24" viewBox="0 0 24 24" fill="none" xmlns="http://www.w3.org/2000/svg">
<mask id="mask0_649_5608" style="mask-type:alpha" maskUnits="userSpaceOnUse" x="0" y="0" width="24" height="24">
<rect width="24" height="24" fill="#D9D9D9"/>
</mask>
<g mask="url(#mask0_649_5608)">
<path d="M3.75 11.05V18.95C3.75 19.0333 3.77933 19.1043 3.838 19.163C3.896 19.221 3.96667 19.25 4.05 19.25H8.25V10.75H4.05C3.96667 10.75 3.896 10.779 3.838 10.837C3.77933 10.8957 3.75 10.9667 3.75 11.05ZM9.75 5.05V19.25H14.25V5.05C14.25 4.96667 14.221 4.896 14.163 4.838C14.1043 4.77933 14.0333 4.75 13.95 4.75H10.05C9.96667 4.75 9.896 4.77933 9.838 4.838C9.77933 4.896 9.75 4.96667 9.75 5.05ZM15.75 12.75V19.25H19.95C20.0333 19.25 20.1043 19.221 20.163 19.163C20.221 19.1043 20.25 19.0333 20.25 18.95V13.05C20.25 12.9667 20.221 12.8957 20.163 12.837C20.1043 12.779 20.0333 12.75 19.95 12.75H15.75ZM19.95 20.75H4.05C3.55 20.75 3.125 20.575 2.775 20.225C2.425 19.875 2.25 19.45 2.25 18.95V11.05C2.25 10.55 2.425 10.125 2.775 9.775C3.125 9.425 3.55 9.25 4.05 9.25H8.25V5.05C8.25 4.55 8.425 4.125 8.775 3.775C9.125 3.425 9.55 3.25 10.05 3.25H13.95C14.45 3.25 14.875 3.425 15.225 3.775C15.575 4.125 15.75 4.55 15.75 5.05V11.25H19.95C20.45 11.25 20.875 11.425 21.225 11.775C21.575 12.125 21.75 12.55 21.75 13.05V18.95C21.75 19.45 21.575 19.875 21.225 20.225C20.875 20.575 20.45 20.75 19.95 20.75Z" fill="#A6A6A6"/>
</g>
</svg>
