<svg width="124" height="124" viewBox="0 0 124 124" fill="none" xmlns="http://www.w3.org/2000/svg">
<path d="M62 124C96.2417 124 124 96.2417 124 62C124 27.7583 96.2417 0 62 0C27.7583 0 0 27.7583 0 62C0 96.2417 27.7583 124 62 124Z" fill="#F4F4F4"/>
<mask id="mask0_1373_2582" style="mask-type:luminance" maskUnits="userSpaceOnUse" x="0" y="0" width="124" height="124">
<path d="M62 124C96.2417 124 124 96.2417 124 62C124 27.7583 96.2417 0 62 0C27.7583 0 0 27.7583 0 62C0 96.2417 27.7583 124 62 124Z" fill="white"/>
</mask>
<g mask="url(#mask0_1373_2582)">
<path d="M82.1189 55.8903C91.6348 52.2631 99.3297 44.2598 102.12 33.6572C106.702 16.1968 96.2752 -1.66017 78.8148 -6.24188C68.3297 -8.98797 57.7125 -6.32998 49.9 0.0139351C46.2141 -9.35508 38.2695 -16.8885 27.7845 -19.6492C10.324 -24.2309 -7.53292 -13.8046 -12.1146 3.65583C-14.9048 14.2584 -12.1293 25.0078 -5.62388 32.8496C-15.1397 36.4768 -22.8347 44.4801 -25.6248 55.0826C-30.2065 72.5431 -19.7802 90.4 -2.31976 94.9817C8.16532 97.7278 18.7826 95.0698 26.595 88.7259C30.2809 98.0949 38.2255 105.628 48.7106 108.389C66.171 112.971 84.028 102.544 88.6097 85.084C91.3998 74.4815 88.639 63.7321 82.1189 55.8903Z" fill="url(#paint0_linear_1373_2582)"/>
<path d="M56.0679 54.7004L60.0475 51.2935C60.5762 50.8382 60.2825 50.0306 59.5189 49.825L51.6918 47.7691C50.9281 47.5635 50.2673 48.1362 50.5023 48.7823L52.2939 53.7018C52.8666 55.2731 54.8197 55.787 56.0679 54.7004L60.0475 51.2935C60.5762 50.8382 60.2825 50.0306 59.5189 49.825L51.6918 47.7691C50.9281 47.5635 50.2673 48.1362 50.5023 48.7823L52.2939 53.7018C52.8666 55.2731 54.8197 55.787 56.0679 54.7004Z" fill="#FAFAFA"/>
<path d="M45.1718 41.7795C41.3537 40.7809 38.9747 37.2565 39.8411 33.923C40.1495 32.7482 41.3537 32.0433 42.5285 32.3517C43.7033 32.6601 44.4082 33.8643 44.0998 35.0391C43.8795 35.8761 44.7165 37.1097 46.2878 37.5208C47.8591 37.932 49.1955 37.2712 49.4157 36.4342C49.7241 35.2594 50.9283 34.5545 52.1031 34.8629C53.2779 35.1712 53.9828 36.3754 53.6744 37.5502C52.808 40.8837 48.9899 42.778 45.1718 41.7795Z" fill="#262626"/>
<path d="M68.1386 47.8127C64.3205 46.8141 61.9415 43.2897 62.8079 39.9562C63.1163 38.7814 64.3205 38.0765 65.4953 38.3849C66.6701 38.6933 67.3749 39.8975 67.0666 41.0723C66.8463 41.9093 67.6833 43.1429 69.2546 43.554C70.8259 43.9652 72.1623 43.3044 72.3825 42.4674C72.6909 41.2926 73.8951 40.5877 75.0699 40.8961C76.2447 41.2044 76.9496 42.4086 76.6412 43.5834C75.7748 46.9169 71.9567 48.8113 68.1386 47.8127Z" fill="#262626"/>
</g>
<defs>
<linearGradient id="paint0_linear_1373_2582" x1="73.635" y1="104.925" x2="5.57285" y2="-11.6169" gradientUnits="userSpaceOnUse">
<stop offset="2.77045e-07" stop-color="#31C690"/>
<stop offset="1" stop-color="#A7E7D0"/>
</linearGradient>
</defs>
</svg>
