<svg width="124" height="124" viewBox="0 0 124 124" fill="none" xmlns="http://www.w3.org/2000/svg">
<path d="M62 124C96.2417 124 124 96.2417 124 62C124 27.7583 96.2417 0 62 0C27.7583 0 0 27.7583 0 62C0 96.2417 27.7583 124 62 124Z" fill="#F4F4F4"/>
<mask id="mask0_1373_2583" style="mask-type:luminance" maskUnits="userSpaceOnUse" x="0" y="0" width="124" height="124">
<path d="M62 124C96.2417 124 124 96.2417 124 62C124 27.7583 96.2417 0 62 0C27.7583 0 0 27.7583 0 62C0 96.2417 27.7583 124 62 124Z" fill="white"/>
</mask>
<g mask="url(#mask0_1373_2583)">
<path d="M107.361 107.419C115.644 101.486 121.062 91.7942 121.062 80.8245C121.062 62.7766 106.436 48.1504 88.3884 48.1504C77.5508 48.1504 67.9615 53.4223 62.0141 61.5431C56.0667 53.4223 46.4774 48.1504 35.6399 48.1504C17.5921 48.1504 2.96582 62.7766 2.96582 80.8245C2.96582 91.7942 8.3699 101.486 16.6669 107.419C8.38458 113.352 2.96582 123.044 2.96582 134.013C2.96582 152.061 17.5921 166.688 35.6399 166.688C46.4774 166.688 56.0667 161.416 62.0141 153.295C67.9615 161.416 77.5508 166.688 88.3884 166.688C106.436 166.688 121.062 152.061 121.062 134.013C121.048 123.044 115.644 113.352 107.361 107.419Z" fill="url(#paint0_linear_1373_2583)"/>
<path d="M60.046 86.5965L57.065 90.8993C56.6685 91.472 57.1678 92.1769 57.9461 92.1769H66.0375C66.8305 92.1769 67.3151 91.472 66.9186 90.8993L63.9376 86.5965C63.0124 85.2308 60.9859 85.2308 60.046 86.5965L57.065 90.8993C56.6685 91.472 57.1678 92.1769 57.9461 92.1769H66.0375C66.8305 92.1769 67.3151 91.472 66.9186 90.8993L63.9376 86.5965C63.0124 85.2308 60.9859 85.2308 60.046 86.5965Z" fill="#FAFAFA"/>
<path d="M50.1198 83.7473C52.8529 83.7473 55.0686 81.5316 55.0686 78.7984C55.0686 76.0653 52.8529 73.8496 50.1198 73.8496C47.3866 73.8496 45.1709 76.0653 45.1709 78.7984C45.1709 81.5316 47.3866 83.7473 50.1198 83.7473Z" fill="#262626"/>
<path d="M73.8795 83.7473C76.6127 83.7473 78.8283 81.5316 78.8283 78.7984C78.8283 76.0653 76.6127 73.8496 73.8795 73.8496C71.1463 73.8496 68.9307 76.0653 68.9307 78.7984C68.9307 81.5316 71.1463 83.7473 73.8795 83.7473Z" fill="#262626"/>
</g>
<defs>
<linearGradient id="paint0_linear_1373_2583" x1="111.589" y1="157.009" x2="16.157" y2="61.577" gradientUnits="userSpaceOnUse">
<stop stop-color="#0060E6"/>
<stop offset="1" stop-color="#CCE1FF"/>
</linearGradient>
</defs>
</svg>
