<svg width="24" height="24" viewBox="0 0 24 24" fill="none" xmlns="http://www.w3.org/2000/svg">
<path d="M12.0017 15.4652C12.9648 15.4652 13.7829 15.1281 14.4558 14.4539C15.1287 13.7797 15.4652 12.961 15.4652 11.9979C15.4652 11.0347 15.1281 10.2167 14.4539 9.5438C13.7797 8.87088 12.961 8.53443 11.9978 8.53443C11.0347 8.53443 10.2167 8.87152 9.54377 9.54571C8.87085 10.2199 8.53439 11.0386 8.53439 12.0017C8.53439 12.9649 8.87148 13.7829 9.54568 14.4558C10.2199 15.1287 11.0386 15.4652 12.0017 15.4652ZM11.9998 14.2948C11.3623 14.2948 10.8204 14.0717 10.3741 13.6254C9.92789 13.1792 9.70476 12.6373 9.70476 11.9998C9.70476 11.3623 9.92789 10.8204 10.3741 10.3742C10.8204 9.92792 11.3623 9.70479 11.9998 9.70479C12.6373 9.70479 13.1792 9.92792 13.6254 10.3742C14.0717 10.8204 14.2948 11.3623 14.2948 11.9998C14.2948 12.6373 14.0717 13.1792 13.6254 13.6254C13.1792 14.0717 12.6373 14.2948 11.9998 14.2948ZM11.9998 17.9498C10.2104 17.9498 8.57389 17.4725 7.0902 16.5179C5.6065 15.5632 4.42222 14.3073 3.53735 12.7501C3.46652 12.628 3.41475 12.505 3.38205 12.3811C3.34936 12.2571 3.33301 12.1299 3.33301 11.9994C3.33301 11.8689 3.34936 11.7418 3.38205 11.6181C3.41475 11.4944 3.46652 11.3716 3.53735 11.2495C4.42222 9.69228 5.6065 8.43635 7.0902 7.48174C8.57389 6.52712 10.2104 6.0498 11.9998 6.0498C13.7891 6.0498 15.4257 6.52712 16.9093 7.48174C18.393 8.43635 19.5773 9.69228 20.4622 11.2495C20.533 11.3716 20.5848 11.4946 20.6175 11.6185C20.6502 11.7425 20.6665 11.8697 20.6665 12.0002C20.6665 12.1307 20.6502 12.2578 20.6175 12.3815C20.5848 12.5052 20.533 12.628 20.4622 12.7501C19.5773 14.3073 18.393 15.5632 16.9093 16.5179C15.4257 17.4725 13.7891 17.9498 11.9998 17.9498Z" fill="#BFBFBF"/>
</svg>
