<svg width="33" height="32" viewBox="0 0 33 32" fill="none" xmlns="http://www.w3.org/2000/svg">
<circle cx="16.5" cy="16" r="15.5" fill="#31C690" stroke="#F1F1F1"/>
<path d="M20.3598 16.1048C20.2305 15.979 20.1658 15.8323 20.1658 15.6647C20.1658 15.497 20.2233 15.3503 20.3383 15.2246L22.3437 13.2754H9.59973C9.41285 13.2754 9.25845 13.2159 9.13655 13.0969C9.01407 12.9784 8.95283 12.8283 8.95283 12.6467C8.95283 12.4651 9.01407 12.315 9.13655 12.1965C9.25845 12.0775 9.41285 12.018 9.59973 12.018H22.3437L20.3383 10.0689C20.2233 9.94311 20.1658 9.79641 20.1658 9.62874C20.1658 9.46108 20.2305 9.31437 20.3598 9.18862C20.4892 9.06287 20.6402 9 20.8127 9C20.9852 9 21.1361 9.06287 21.2655 9.18862L24.2844 12.1228C24.3562 12.1926 24.4103 12.2728 24.4465 12.3634C24.4822 12.4545 24.5 12.5489 24.5 12.6467C24.5 12.7445 24.4822 12.8387 24.4465 12.9292C24.4103 13.0203 24.3562 13.1008 24.2844 13.1707L21.2655 16.1048C21.1361 16.2305 20.9852 16.2934 20.8127 16.2934C20.6402 16.2934 20.4892 16.2305 20.3598 16.1048ZM11.7345 22.8114L8.71563 19.8772C8.64376 19.8074 8.58999 19.7269 8.55434 19.6358C8.51811 19.5453 8.5 19.4511 8.5 19.3533C8.5 19.2555 8.51811 19.161 8.55434 19.0699C8.58999 18.9794 8.64376 18.8992 8.71563 18.8293L11.7345 15.8952C11.8639 15.7695 12.0148 15.7066 12.1873 15.7066C12.3598 15.7066 12.5108 15.7695 12.6402 15.8952C12.7695 16.021 12.838 16.1677 12.8454 16.3353C12.8523 16.503 12.7911 16.6497 12.6617 16.7754L10.6563 18.7246H23.4003C23.5872 18.7246 23.7418 18.7838 23.8643 18.9023C23.9862 19.0213 24.0472 19.1717 24.0472 19.3533C24.0472 19.5349 23.9862 19.6853 23.8643 19.8043C23.7418 19.9228 23.5872 19.982 23.4003 19.982H10.6563L12.6617 21.9311C12.7767 22.0569 12.838 22.2036 12.8454 22.3713C12.8523 22.5389 12.7911 22.6856 12.6617 22.8114C12.5323 22.9371 12.378 23 12.1985 23C12.0186 23 11.8639 22.9371 11.7345 22.8114Z" fill="white"/>
</svg>
