<svg width="124" height="124" viewBox="0 0 124 124" fill="none" xmlns="http://www.w3.org/2000/svg">
<path d="M62 124C96.2417 124 124 96.2417 124 62C124 27.7583 96.2417 0 62 0C27.7583 0 0 27.7583 0 62C0 96.2417 27.7583 124 62 124Z" fill="#F4F4F4"/>
<mask id="mask0_1373_2584" style="mask-type:luminance" maskUnits="userSpaceOnUse" x="0" y="0" width="124" height="124">
<path d="M62 124C96.2417 124 124 96.2417 124 62C124 27.7583 96.2417 0 62 0C27.7583 0 0 27.7583 0 62C0 96.2417 27.7583 124 62 124Z" fill="white"/>
</mask>
<g mask="url(#mask0_1373_2584)">
<path d="M119.477 17.4752C123.956 8.32641 124.103 -2.77546 118.89 -12.4235C110.314 -28.298 90.4893 -34.216 74.6149 -25.64C65.0843 -20.4856 59.1516 -11.2928 57.7712 -1.32165C48.6812 -5.63904 37.7262 -5.71245 28.1956 -0.572702C12.3212 8.00333 6.40313 27.828 14.9792 43.7025C20.1923 53.3505 29.5613 59.3127 39.6646 60.5902C35.1857 69.739 35.0388 80.8409 40.252 90.4889C48.828 106.363 68.6528 112.281 84.5272 103.705C94.0578 98.5509 99.9905 89.3582 101.371 79.387C110.461 83.7044 121.416 83.7778 130.946 78.6381C146.821 70.0621 152.739 50.2374 144.163 34.3629C138.95 24.7149 129.581 18.7528 119.477 17.4752Z" fill="url(#paint0_linear_1373_2584)"/>
<path d="M44.026 51.2805C46.7591 51.2805 48.9748 49.0648 48.9748 46.3316C48.9748 43.5985 46.7591 41.3828 44.026 41.3828C41.2928 41.3828 39.0771 43.5985 39.0771 46.3316C39.0771 49.0648 41.2928 51.2805 44.026 51.2805Z" fill="#262626"/>
<path d="M64.9225 40.0032C67.6557 40.0032 69.8713 37.7875 69.8713 35.0543C69.8713 32.3212 67.6557 30.1055 64.9225 30.1055C62.1893 30.1055 59.9736 32.3212 59.9736 35.0543C59.9736 37.7875 62.1893 40.0032 64.9225 40.0032Z" fill="#262626"/>
<path d="M62.4256 55.4083C58.96 57.288 54.8041 56.3335 53.1594 53.3084C52.5867 52.2364 52.9832 50.9 54.0552 50.3273C55.1272 49.7546 56.4635 50.1511 57.0362 51.2231C57.4474 51.9867 58.9013 52.3098 60.3257 51.5462C61.7501 50.7825 62.2788 49.3875 61.8676 48.6239C61.2949 47.5519 61.6914 46.2155 62.7634 45.6428C63.8354 45.0701 65.1717 45.4666 65.7445 46.5386C67.3745 49.5343 65.8913 53.5286 62.4256 55.4083Z" fill="#FAFAFA"/>
</g>
<defs>
<linearGradient id="paint0_linear_1373_2584" x1="109.556" y1="90.969" x2="51.8173" y2="-9.02988" gradientUnits="userSpaceOnUse">
<stop offset="2.82373e-07" stop-color="#FF965B"/>
<stop offset="1" stop-color="#FFDECC"/>
</linearGradient>
</defs>
</svg>
