<svg width="56" height="56" viewBox="0 0 56 56" fill="none" xmlns="http://www.w3.org/2000/svg">
<mask id="mask0_2401_4422" style="mask-type:alpha" maskUnits="userSpaceOnUse" x="0" y="0" width="56" height="56">
<rect width="56" height="56" fill="#D9D9D9"/>
</mask>
<g mask="url(#mask0_2401_4422)">
<path d="M28.1173 39.083C28.5062 39.083 28.827 38.9566 29.0798 38.7038C29.3326 38.4511 29.459 38.1302 29.459 37.7413V29.5163H37.8007C38.1507 29.5163 38.452 29.39 38.7048 29.1372C38.9576 28.8844 39.084 28.5636 39.084 28.1747C39.084 27.7858 38.9576 27.465 38.7048 27.2122C38.452 26.9594 38.1312 26.833 37.7423 26.833H29.459V18.1997C29.459 17.8497 29.3326 17.5483 29.0798 17.2955C28.827 17.0427 28.5062 16.9163 28.1173 16.9163C27.7284 16.9163 27.4173 17.0427 27.184 17.2955C26.9506 17.5483 26.834 17.8691 26.834 18.258V26.833H18.2007C17.8507 26.833 17.5493 26.9594 17.2965 27.2122C17.0437 27.465 16.9173 27.7858 16.9173 28.1747C16.9173 28.5636 17.0437 28.8844 17.2965 29.1372C17.5493 29.39 17.8701 29.5163 18.259 29.5163H26.834V37.7997C26.834 38.1497 26.9506 38.4511 27.184 38.7038C27.4173 38.9566 27.7284 39.083 28.1173 39.083ZM28.0007 50.1663C24.8895 50.1663 21.9826 49.6025 19.2798 48.4747C16.577 47.3469 14.2243 45.7816 12.2215 43.7788C10.2187 41.7761 8.65343 39.4233 7.52565 36.7205C6.39787 34.0177 5.83398 31.1108 5.83398 27.9997C5.83398 24.8886 6.39787 21.9913 7.52565 19.308C8.65343 16.6247 10.2187 14.2816 12.2215 12.2788C14.2243 10.2761 16.577 8.70106 19.2798 7.55384C21.9826 6.40662 24.8895 5.83301 28.0007 5.83301C31.1118 5.83301 34.009 6.40662 36.6923 7.55384C39.3757 8.70106 41.7187 10.2761 43.7215 12.2788C45.7243 14.2816 47.2993 16.6247 48.4465 19.308C49.5937 21.9913 50.1673 24.8886 50.1673 27.9997C50.1673 31.1108 49.5937 34.0177 48.4465 36.7205C47.2993 39.4233 45.7243 41.7761 43.7215 43.7788C41.7187 45.7816 39.3757 47.3469 36.6923 48.4747C34.009 49.6025 31.1118 50.1663 28.0007 50.1663Z" fill="url(#paint0_linear_2401_4422)"/>
</g>
<defs>
<linearGradient id="paint0_linear_2401_4422" x1="50.1673" y1="50.1663" x2="39.2091" y2="-1.27648" gradientUnits="userSpaceOnUse">
<stop stop-color="#31C690"/>
<stop offset="1" stop-color="#8FE1C3"/>
<stop offset="1" stop-color="#7FDCBA"/>
</linearGradient>
</defs>
</svg>
