<svg width="48" height="48" viewBox="0 0 48 48" fill="none" xmlns="http://www.w3.org/2000/svg">
<circle cx="24" cy="24" r="24" fill="#FEE500"/>
<path d="M24 14C25.9888 14 27.8283 14.3809 29.5184 15.1428C31.2085 15.9047 32.5447 16.9408 33.5268 18.2509C34.5089 19.561 35 20.99 35 22.538C35 24.086 34.5089 25.5171 33.5268 26.8313C32.5447 28.1454 31.2106 29.1834 29.5245 29.9453C27.8385 30.7072 25.997 31.0882 24 31.0882C23.3698 31.0882 22.7191 31.0438 22.048 30.9551C19.1343 32.9465 17.5833 33.9543 17.3951 33.9785C17.3051 34.0108 17.2191 34.0067 17.1373 33.9664C17.1045 33.9422 17.08 33.91 17.0636 33.8696C17.0472 33.8293 17.0391 33.7931 17.0391 33.7608V33.7125C17.0882 33.398 17.4606 32.0879 18.1563 29.7821C16.5766 29.0081 15.3224 27.9821 14.3934 26.7042C13.4645 25.4264 13 24.0376 13 22.538C13 20.99 13.4911 19.561 14.4732 18.2509C15.4554 16.9408 16.7915 15.9047 18.4816 15.1428C20.1717 14.3809 22.0112 14 24 14Z" fill="black"/>
</svg>
