<svg width="24" height="24" viewBox="0 0 24 24" fill="none" xmlns="http://www.w3.org/2000/svg">
<path d="M14.4498 6.87461C14.5998 7.02461 14.6748 7.19961 14.6748 7.39961C14.6748 7.59961 14.5998 7.77461 14.4498 7.92461L10.3748 11.9996L14.4498 16.0746C14.5998 16.2246 14.6748 16.3996 14.6748 16.5996C14.6748 16.7996 14.5998 16.9746 14.4498 17.1246C14.2998 17.2746 14.1248 17.3496 13.9248 17.3496C13.7248 17.3496 13.5498 17.2746 13.3998 17.1246L8.8998 12.6246C8.81647 12.5413 8.7538 12.4456 8.7118 12.3376C8.67047 12.2289 8.6498 12.1163 8.6498 11.9996C8.6498 11.8829 8.67047 11.7706 8.7118 11.6626C8.7538 11.5539 8.81647 11.4579 8.8998 11.3746L13.3998 6.87461C13.5498 6.72461 13.7248 6.64961 13.9248 6.64961C14.1248 6.64961 14.2998 6.72461 14.4498 6.87461Z" fill="#262626"/>
</svg>
