<svg width="24" height="24" viewBox="0 0 24 24" fill="none" xmlns="http://www.w3.org/2000/svg">
<path d="M12.0004 13.0504L6.92539 18.1254C6.79206 18.2587 6.62139 18.3294 6.41339 18.3374C6.20472 18.3461 6.02539 18.2754 5.87539 18.1254C5.72539 17.9754 5.65039 17.8004 5.65039 17.6004C5.65039 17.4004 5.72539 17.2254 5.87539 17.0754L10.9504 12.0004L5.87539 6.92539C5.74206 6.79206 5.67139 6.62106 5.66339 6.41239C5.65472 6.20439 5.72539 6.02539 5.87539 5.87539C6.02539 5.72539 6.20039 5.65039 6.40039 5.65039C6.60039 5.65039 6.77539 5.72539 6.92539 5.87539L12.0004 10.9504L17.0754 5.87539C17.2087 5.74206 17.3797 5.67106 17.5884 5.66239C17.7964 5.65439 17.9754 5.72539 18.1254 5.87539C18.2754 6.02539 18.3504 6.20039 18.3504 6.40039C18.3504 6.60039 18.2754 6.77539 18.1254 6.92539L13.0504 12.0004L18.1254 17.0754C18.2587 17.2087 18.3294 17.3794 18.3374 17.5874C18.3461 17.7961 18.2754 17.9754 18.1254 18.1254C17.9754 18.2754 17.8004 18.3504 17.6004 18.3504C17.4004 18.3504 17.2254 18.2754 17.0754 18.1254L12.0004 13.0504Z" fill="white"/>
</svg>
