<svg width="24" height="24" viewBox="0 0 24 24" fill="none" xmlns="http://www.w3.org/2000/svg">
<path d="M12 20C16.4183 20 20 16.4183 20 12C20 7.58172 16.4183 4 12 4C7.58172 4 4 7.58172 4 12C4 16.4183 7.58172 20 12 20Z" fill="#56D1A5"/>
<path d="M10.3133 13.9178L15.4356 8.79559C15.548 8.68316 15.6955 8.62695 15.8782 8.62695C16.0609 8.62695 16.2085 8.68316 16.3209 8.79559C16.4333 8.90801 16.4895 9.05556 16.4895 9.23825C16.4895 9.42094 16.4333 9.56849 16.3209 9.68092L10.8403 15.1404C10.6857 15.295 10.51 15.3723 10.3133 15.3723C10.1166 15.3723 9.94091 15.295 9.78632 15.1404L7.6784 13.0536C7.56598 12.9412 7.50977 12.7936 7.50977 12.6109C7.50977 12.4282 7.56598 12.2807 7.6784 12.1683C7.79082 12.0558 7.93838 11.9996 8.12106 11.9996C8.30375 11.9996 8.45131 12.0558 8.56373 12.1683L10.3133 13.9178Z" fill="white"/>
</svg>
