<svg width="24" height="24" viewBox="0 0 24 24" fill="none" xmlns="http://www.w3.org/2000/svg">
<path d="M14.4498 6.87559C14.5998 7.02559 14.6748 7.20059 14.6748 7.40059C14.6748 7.60058 14.5998 7.77559 14.4498 7.92558L10.3748 12.0006L14.4498 16.0756C14.5998 16.2256 14.6748 16.4006 14.6748 16.6006C14.6748 16.8006 14.5998 16.9756 14.4498 17.1256C14.2998 17.2756 14.1248 17.3506 13.9248 17.3506C13.7248 17.3506 13.5498 17.2756 13.3998 17.1256L8.8998 12.6256C8.81647 12.5423 8.7538 12.4466 8.7118 12.3386C8.67047 12.2299 8.6498 12.1173 8.6498 12.0006C8.6498 11.8839 8.67047 11.7716 8.7118 11.6636C8.7538 11.5549 8.81647 11.4589 8.8998 11.3756L13.3998 6.87559C13.5498 6.72559 13.7248 6.65059 13.9248 6.65059C14.1248 6.65059 14.2998 6.72559 14.4498 6.87559Z" fill="#262626"/>
</svg>
