<svg width="124" height="124" viewBox="0 0 124 124" fill="none" xmlns="http://www.w3.org/2000/svg">
<circle cx="62" cy="62" r="62" fill="#A7E7D0"/>
<path d="M71.9451 88.0712L65.3799 53.0642C65.1085 51.2256 65.9259 49.4108 67.4381 48.378C70.3634 46.3804 72.1801 42.8184 71.74 38.8602C71.2337 34.2858 67.597 30.5715 63.1231 30.0636C57.2064 29.3932 52.1997 34.1131 52.1997 40.0317C52.1997 43.5091 53.9271 46.57 56.5545 48.3679C58.0701 49.4074 58.9006 51.2087 58.626 53.054C57.3023 62.0301 53.7219 76.7961 52.0574 88.078C51.5974 91.1998 53.9601 94 57.0442 94H66.9583C70.0424 94 72.4051 91.1931 71.9418 88.0712H71.9451Z" fill="#DFF6EE"/>
</svg>
